<?xml version="1.0" standalone="yes"?>
<svg xmlns="http://www.w3.org/2000/svg" width="512" height="560">
<path style="fill:#e6f1f1; stroke:none;" d="M0 0L0 163L3 163C3.17014 157.757 6.4168 155.489 7.68287 150.83C11.2376 137.749 21.7477 116.321 37 113L18.8171 134.259L8.35031 158L7 189L7.96065 244L7.05401 317L10 393L16 393C16.014 411.096 37.0304 417.486 47.9097 427.843C62.6699 441.896 83.8542 448.967 101.91 457.529C132.682 472.119 162.734 488.814 194 502.214C207.667 508.071 222.917 513.985 236 521.011C240.087 523.205 250.324 526.868 254 523C269.123 526.601 289.66 518.535 304 514L303 511C310.873 508.096 319.466 506.354 326.91 502.433C335.892 497.702 343.265 489.424 351.3 483.388C357.884 478.442 366.729 475.071 374 471.193C396.788 459.038 423.784 451.507 445.385 436.961C457.892 428.539 473.781 419.813 484.161 408.906C489.4 403.402 492.54 390.988 501 390C507.269 363.667 504 332.957 504 306C504 263.487 506.828 220.643 504.961 178C504.422 165.703 500.52 154.117 500 142C504.542 146.194 508.366 155.847 509 162L512 162L512 0L0 0z"/>
<path style="fill:#e2d5a6; stroke:none;" d="M192 24L197 20L192 24M316 20L316 23L320 23L320 20L316 20M184 28L188 25L184 28M325 25L325 27L328 27L328 25L325 25M166 37L166 38L169 38L166 37M155 45L161 41C157.207 40.277 155.669 41.1451 155 45M352 41L356 44L352 41M144 51L154 45C149.473 45.3008 145.548 46.439 144 51M360 46L360 47L363 47L360 46M128 61L134 56C130.136 56.3002 128.652 57.0891 128 61M380 57L380 59L382 59L382 57L380 57M109 72L127 63L127 61C120.87 59.7353 111.053 66.0724 109 72M388 61L395 67L388 61M399 68L399 71L404 71L404 68L399 68M416 78L419 80L416 78M424 82C424.79 86.5938 427.631 87.5479 432 88C430.715 83.8358 428.211 82.5648 424 82M434 89L434 91L444 95C441.808 90.7209 438.936 87.8869 434 89M99 216C98.5421 222.325 95.5409 228.415 95.0895 235C93.9585 251.501 100.043 263.198 108 277L109 277C103.97 257.517 91.99 243.35 100.209 222C104.265 211.464 116.254 204.062 119 194C125.97 192.642 133.906 183.487 141 180.26C148.609 176.799 160.735 176.737 169 177.104C181.945 177.679 195.784 183.137 206.026 191.075C210.486 194.531 213.692 201.322 219.005 203.243C224.931 205.385 235.197 199.157 241 197.289C255.958 192.475 272.48 196.292 287 192L287 200C292.207 197.907 290.783 192.826 291.424 188C292.984 176.262 290.775 165.345 291.293 154.001C291.472 150.084 293.496 148.054 297 147C296.96 142.153 297.262 136.729 292 135C292.917 129.203 296.589 128.131 302 128L302 133C309.613 131.888 317.577 125.059 324.09 120.985C332.838 115.511 342.895 111.248 351.999 106.159C356.759 103.499 362.917 95.8264 368.961 97.9113C376.926 100.659 385.478 118.368 381.142 125.961C370.816 144.044 340.861 141.076 328.987 159.259C323.056 168.342 319.068 186.216 321.274 196.83C323.344 206.791 327.134 215.345 326.981 226C326.851 235.115 320.436 239.965 318 248L319 248C325.613 237.985 327.322 232.566 329.147 221.024C329.575 218.317 330.542 217.011 333 218L334 218L335 218C337.576 215.93 343.488 211.653 346.871 212.041C362.366 213.817 367.781 237.502 358.628 247.741C354.569 252.282 348.977 256.885 343 258.502C337.517 259.985 332.179 257.98 327.129 261.398C312.641 271.205 298.658 280.301 281.996 286.362C270.933 290.386 259.024 291.473 248.04 295.34C241.403 297.676 235.806 305.511 229.83 309.452C225.074 312.589 218.546 313.591 213 314.535C200.905 316.595 178.011 309.512 172.317 297.985C169.045 291.361 170.952 282.195 168.83 275.039C165.856 265.009 162 258.973 162 248L181.4 248.607L186 258L187 258C186.079 254.526 185.447 247.257 182.436 245.028C177.71 241.529 159.153 242.923 154 245L154 247C159.707 250.789 158.609 257.513 154.671 262.576C148.638 270.332 137.214 284.963 144.318 295.566C146.948 299.493 153.238 297.391 156.581 301.148C162.976 308.335 163.842 318.669 172.093 325.291C177.055 329.273 183.962 330.444 190 331.884C205.824 335.659 224.866 339.954 241 335.646C248.858 333.547 255.259 327.783 263.001 325.367C272.409 322.43 293.237 325.146 299 316C292.697 312.338 297.325 302.087 296.941 296.001C296.772 293.321 293.817 289.515 294.537 287.09C296.045 282.013 308.609 277.602 312.961 275.275C319.301 271.885 324.325 265.937 331 263.089C335.131 261.326 339.707 262.461 344 261.471C349.625 260.173 354.411 256.541 360 255L368 270C375.696 267.444 372.746 258.098 374.318 252.015C375.439 247.675 379.968 246.569 381.971 242.896C385.346 236.709 379.422 226.705 377 221C390.948 230.909 404.998 256.16 408 273L409 273C408.573 263.226 402.162 252.458 397.421 244C382.206 216.86 359.739 197.634 329 190L330 194L326 195C324.258 181.216 326.378 163.337 338.188 153.836C355.317 140.056 395.737 139.712 381.183 109C379.625 105.712 377.966 101.948 375.585 99.1736C367.357 89.5865 361.782 95.7944 352.996 99.7909C336.848 107.136 321.59 115.08 306.576 124.491C302.117 127.286 296.71 125.097 292.305 128.483C286.921 132.622 288 138.934 288 145C288 156.97 288.35 167.926 284.725 179.424C283.583 183.043 285.035 188.366 280.852 190.258C276.064 192.424 269.143 190.68 264 191.17C253.794 192.141 244.892 194.354 235 196.976C231.133 198.001 223.985 202.444 220.09 201.268C214.192 199.487 207.579 188.433 201.961 184.635C184.568 172.879 160.124 168.915 140.015 175.978C119.986 183.012 112.58 201.979 99 216z"/>
<path style="fill:#e58bad; stroke:none;" d="M302 133C300.742 128.698 296.866 129.349 293 129L292 135C296.661 137.545 296.897 142.048 297 147C288.311 148.437 292.021 156.977 292.787 163C293.819 171.117 294.277 195.536 287 200L287 192L251 196L251 197L283 197L281 229L278 257L279 257L282 236L283 236L285 250C292.492 247.316 296.943 227.289 299.087 220C299.975 216.984 300.207 211.941 303.303 210.234C306.516 208.462 311.566 211.63 315 212L315 209L322 209C318.731 203.769 321.021 192.643 322.667 187C325.34 177.836 322.84 167.75 329.167 159C341.704 141.661 368.767 144.007 380.833 128C386.445 120.556 376.994 98.3034 368 97C361.375 96.0399 347.912 107.133 342 110.5C332.901 115.681 324.505 120.914 315.333 125.5C310.743 127.795 307.184 132.454 302 133z"/>
<path style="fill:#cfb364; stroke:none;" d="M371.667 99.3333L372.333 99.6667L371.667 99.3333z"/>
<path style="fill:#e2d5a6; stroke:none;" d="M452 99L457 103L452 99M40 112L53 107L53 104C56.6916 103.88 58.7774 103.687 60 100C53.7154 100.469 41.1736 105.172 40 112z"/>
<path style="fill:#ad6559; stroke:none;" d="M376 127C385.814 125.296 377.857 106.922 372.727 103.052C366.441 98.3105 366.707 108.476 367.99 112C368.72 114.005 369.792 115.943 370.78 117.83C372.435 120.99 374.608 123.711 376 127z"/>
<path style="fill:#cfb364; stroke:none;" d="M376.333 103.667L376.667 104.333L376.333 103.667z"/>
<path style="fill:#a46333; stroke:none;" d="M373 113C372.95 98.8521 364.387 110.003 373 113z"/>
<path style="fill:#e2d5a6; stroke:none;" d="M462 105L462 107L467 107L467 105L462 105M313 133L313 136L308 137L308 138C314.307 139.407 320.906 134.367 326.09 131.124C334.677 125.752 344.542 123.544 352.961 117.977C356.429 115.683 361.697 112.951 363 109C345.151 109.565 329.721 128.254 313 133M3 163L0 163L0 396L3 396C3.06185 401.502 5.92628 404.053 7.29089 409.04C15.9905 440.831 45.2934 455.777 73.7369 468.258C77.2979 469.82 79.7975 474.105 83.1736 476.211C91.6569 481.505 101.306 484.125 109.831 489.023C113.665 491.226 116.094 495.32 120 497.586C141.124 509.837 162.376 519.428 182.104 533.308C191.905 540.203 203.67 543.555 213.665 549.589C217.902 552.148 221.487 551.017 224 556C240.005 558.069 255.377 560.585 272 559.98C278.045 559.76 287.21 557.169 289 551L307 547C310.113 541.664 314.936 542.786 319.406 539.469C330.517 531.224 341.827 525.178 353.576 518.035C360.193 514.011 362.599 508.328 371 509C375.162 502.343 386.036 500.903 392.561 496.582C404.355 488.77 416.69 483.532 428.829 476.085C439.769 469.374 453.506 457.226 467 456C471.444 447.07 483.26 443.86 490.022 436.385C499.678 425.711 507.007 408.618 511.455 394.715C513.575 388.09 512 378.921 512 372L512 323L512 162L509 162C508.695 156.139 505.11 145.124 500 142C500.256 154.423 504.409 166.414 504.961 179C506.828 221.641 504 264.453 504 307C504 334.234 505.984 363.152 501 390C492.233 390.375 489.284 402.502 484.161 408.215C474.176 419.351 457.679 427.832 445.385 436.385C438.869 440.918 431.002 442.7 424 446.184C407.667 454.314 391.486 462.503 375 470.174C356.837 478.626 343.644 491.794 326.91 501.915C319.6 506.337 310.607 507.245 303 511L304 514C288.684 517.773 269.891 525.948 254 523C248.013 526.462 240.547 522.579 235 519.926C223.29 514.325 210.038 507.943 198 503.39C165.341 491.038 134.22 472.851 102.83 457.529C84.3486 448.507 63.1984 441.471 47.9136 427.14C37.5063 417.382 16.0611 410.287 16 393L10 393C9.79109 367.763 7.74288 342.263 7.12886 317C6.54064 292.799 8.58295 268.394 7.98534 244C7.33556 217.477 2.38793 186.143 8.12346 160C10.0486 151.225 13.7799 141.276 19.4985 134.259C24.5399 128.074 34.939 120.5 37 113C20.2057 115.112 12.3232 138.119 7.40123 150.83C5.56503 155.572 3.06465 157.526 3 163z"/>
<path style="fill:#a46333; stroke:none;" d="M373 116C373.888 119.857 375.127 122.686 379 124C378.747 119.395 377.806 116.784 373 116z"/>
<path style="fill:#cfb364; stroke:none;" d="M381 116L381 119L382 119L381 116z"/>
<path style="fill:#e2d5a6; stroke:none;" d="M479 116C480.615 121.46 487.068 128.248 492 131C491.913 123.707 486.405 117.218 479 116z"/>
<path style="fill:#cfb364; stroke:none;" d="M382 120L382 124L383 124L382 120z"/>
<path style="fill:#ad6559; stroke:none;" d="M366 128L366 130L372 130L372 128L366 128z"/>
<path style="fill:#b0a08a; stroke:none;" d="M295 130L301 130C299.053 127.769 296.947 127.769 295 130z"/>
<path style="fill:#cfb364; stroke:none;" d="M301.333 128.667L301.667 129.333L301.333 128.667M292.333 130.667L292.667 131.333L292.333 130.667z"/>
<path style="fill:#ad6559; stroke:none;" d="M296 130L299 134L299 130L296 130M351 138C355.343 137.794 364.731 135.337 366 131C360.193 131.137 353.905 132.585 351 138z"/>
<path style="fill:#e2d5a6; stroke:none;" d="M493 132L494 137L495 137L493 132M496 137L499 141L498 137L496 137z"/>
<path style="fill:#ad6559; stroke:none;" d="M341 143L348 142L348 140C344.383 139.401 342.806 139.751 341 143z"/>
<path style="fill:#cfb364; stroke:none;" d="M359 139L359 140L362 140L359 139z"/>
<path style="fill:#ad6559; stroke:none;" d="M336 145L336 146L340 144L336 145z"/>
<path style="fill:#cfb364; stroke:none;" d="M346.667 145.333L347.333 145.667L346.667 145.333z"/>
<path style="fill:#ad6559; stroke:none;" d="M313 148C315.007 154.107 330.39 160.272 332 151L313 148z"/>
<path style="fill:#cfb364; stroke:none;" d="M332 157L335 154L332 157z"/>
<path style="fill:#ad6559; stroke:none;" d="M301 159C302.643 165.093 306.633 170.556 312.996 172.092C316.482 172.933 323.594 170.608 320.84 165.56C319.153 162.47 312.98 162.242 310 161.407C306.948 160.551 304.149 159.472 301 159z"/>
<path style="fill:#e3b916; stroke:none;" d="M119 194C115.226 202.498 103.473 209.724 105 220C108.427 218.911 109.137 217.56 109 214C116.235 209.733 121.738 202.975 129.09 198.869C147.927 188.348 170.74 192.331 188.09 203.17C194.327 207.066 203.849 211.486 206 219L207 219L208 217L212 226L213 226L213 222L218 224C217.194 185.131 176.952 170.056 143 179.188C133.554 181.729 127.39 191.222 119 194z"/>
<path style="fill:#cfb364; stroke:none;" d="M196 185L201 188L196 185M204.333 189.667L204.667 190.333L204.333 189.667M205 191L208 193L205 191M109 214L105 220L109 208C91.021 218.398 96.8639 251.007 103.718 266C106.338 271.73 109.129 278.131 115 281L108 268L117 276L120 276L140 266L138 271C143.273 277.962 135.204 296.781 147.019 299.606C149.894 300.293 153.065 300 156 300C159.434 334.451 211.99 345.436 240 338.561C251.133 335.828 259.308 327.311 271 325.17C282.548 323.055 294.394 322.337 306 320.321C311.151 319.426 317.491 319.632 321.812 316.181C327.129 311.936 321.099 309.23 321.172 304.961C321.224 301.936 325.069 298.128 326 295L322 292L330 286L329 283C332.954 281.485 338.811 277.338 342.209 276.607C344.166 276.186 346.239 278.239 348.09 278.688C359.774 281.517 360.961 283.136 357 295C368.673 289.245 373.299 278.038 375.246 266C376.418 258.755 373.96 252.316 380 247L380 246C369.09 249.833 378.002 264.591 368 270L360 255C353.846 256.063 349.005 260.085 343 261.471C338.296 262.556 333.452 261.296 329 263.569C322.861 266.703 318.057 272.083 311.986 275.275C307.793 277.48 295.028 282.087 293.881 287.09C293.31 289.58 296.25 292.545 296.718 295.004C297.836 300.875 291.804 313.588 299 316C290.657 324.766 273.823 321.924 263.001 325.076C254.867 327.444 248.185 333.46 240 335.646C224.46 339.796 206.236 335.519 191 331.884C184.904 330.43 178.104 329.219 173.04 325.291C164.549 318.704 163.346 308.847 157.297 301.148C153.863 296.777 147.166 299.557 144.318 294.772C137.268 282.926 150.434 270.619 155.925 261.715C159.035 256.671 159.953 249.637 154 247L154 245C159.785 243.443 177.728 241.203 182.436 245.603C185.659 248.616 186.12 255.958 188 260L189 260C186.904 252.317 182.119 241.618 193 239L193 238L191 238L191 237L195 238L190 236L190 235L210 235L212.667 226L207 219C203.417 211.256 195.159 206.885 188.09 202.615C159.302 185.226 133.001 193.389 109 214M227 203C245.81 197.079 264.278 194 284 194C272.658 189.241 250.3 193.762 239 197.635C234.724 199.1 230.184 199.711 227 203M209 194L216 208L226 204L226 203C216.947 204.462 215.8 197.611 209 194z"/>
<path style="fill:#e2d5a6; stroke:none;" d="M145 211L148 211C147.978 208.34 146.834 203.813 148.198 201.448C150.497 197.461 166.616 200 171 200L174 208C184.251 204.125 189.537 214.625 199 216C191.464 202.305 168.794 194.638 154 196.576C150.306 197.059 141.354 195.856 139.662 200.285C138.335 203.758 144.039 207.668 145 211z"/>
<path style="fill:#ad6559; stroke:none;" d="M219 207L219 209L225 210L228 207L228 208L226 212C229.865 211.707 231.905 210.862 233 207C240.147 210.029 246.247 207.225 253 208.714C262.4 210.787 264.233 221.742 275 218L278 213L278 227C267.421 227.835 254.554 230.322 245 235L245 236L281 229L283 197L250 197.326L219 207z"/>
<path style="fill:#e58bad; stroke:none;" d="M244 198L244 199L249 198L244 198M235 200L235 201L243 200L235 200z"/>
<path style="fill:#cfb364; stroke:none;" d="M321 199L324 237L325 237C327.755 228.308 329.611 204.9 321 199z"/>
<path style="fill:#b0a08a; stroke:none;" d="M229 203L232 201L229 203z"/>
<path style="fill:#e58bad; stroke:none;" d="M232 201L232 202L235 202L232 201z"/>
<path style="fill:#b0a08a; stroke:none;" d="M226.667 203.333L227.333 203.667L226.667 203.333z"/>
<path style="fill:#cfb364; stroke:none;" d="M109 207L112 204L109 207z"/>
<path style="fill:#e2d5a6; stroke:none;" d="M106 232L107 232C110.825 220.607 114.634 223.351 124 224C120.845 214.258 119.496 210.583 131 205C118.765 201.44 106.289 222.023 106 232z"/>
<path style="fill:#e58bad; stroke:none;" d="M224.667 204.333L225.333 204.667L224.667 204.333M220 206L220 207L224 206L220 206z"/>
<path style="fill:#909e5c; stroke:none;" d="M215 207L218 224L213 222L212.372 241.339L204.914 240.848L189 245L189 246L197 247L196 249L211 246L211 255L215 255L215 232L218 228C223.101 223.708 219.072 214.837 220 209L215 207z"/>
<path style="fill:#a46333; stroke:none;" d="M225 210C215.621 207.865 222.146 222.705 218 228L215 232C215.315 239.444 218.557 253.932 211 258L216 266C218.261 264.059 221.358 263.487 222.914 260.66C226.26 254.579 226.176 247.691 231.478 242.379C241.783 232.055 264.096 228.759 278 227L278 213L275 218C264.691 220.17 262.956 211.261 254 208.603C247.566 206.694 240.129 209.224 233 207L226 212L228 208C225.86 206.882 225.473 207.749 225 210z"/>
<path style="fill:#b0a08a; stroke:none;" d="M320 207L320 208L320 210L324 212L320 207z"/>
<path style="fill:#ad6559; stroke:none;" d="M285 250L283 236L282 236L277 264L279 261C289.917 263.24 289.979 258.561 299 254C301.406 237.462 312.016 226.527 319 212L324 214C321.938 210.071 319.316 209.236 315 209L315 212C311.486 211.332 306.847 208.186 303.303 209.761C299.727 211.35 299.582 217.769 298.456 221C295.661 229.023 292.525 245.521 285 250z"/>
<path style="fill:#e6f1f1; stroke:none;" d="M335 218L334 218L333 218C331.032 215.921 329.586 217.386 329.147 220.059C328.499 224.016 329.599 228.12 328.277 232C323.56 245.842 309.563 258.516 297 265.235C290.401 268.763 278.507 275.752 275.318 263.91C272.799 254.557 276.974 242.609 277 233C268.989 233.166 265.315 236.75 259 241L258 247C264.19 250.904 257.757 253.998 256.661 259.015C255.823 262.851 258.273 267.159 256.691 270.857C254.284 276.481 242.314 278.715 237 279.56C222.55 281.858 204.627 275.82 193.754 266.458C188.228 261.7 186.35 251.825 181.4 248.029C178.078 245.48 166.094 247.324 162 248C162 259.382 165.804 265.601 168.83 276.015C170.899 283.134 169.015 292.409 172.317 298.961C178.155 310.545 201.996 316.638 214 314.536C219.513 313.571 226.014 312.633 230.715 309.452C237.354 304.959 243.174 296.796 251.001 294.809C268.71 290.313 286.629 286.512 302.961 277.866C312.338 272.901 320.574 264.762 330.005 260.279C334.175 258.295 338.634 259.569 343 258.725C349.035 257.558 354.5 252.868 358.628 248.544C373.712 232.743 350.489 199.196 335 218z"/>
<path style="fill:#a46333; stroke:none;" d="M319 212C310.121 224.625 300.158 238.192 299 254L286 263L288 266L289 266C294.928 261.544 302.901 259.145 308.387 254.186C314.575 248.593 311.487 241.981 321 239L321 236C312.432 232.525 314.851 222.833 322 219L322 223L324 223C323.996 217.996 324.465 213.659 319 212z"/>
<path style="fill:#b0a08a; stroke:none;" d="M324 213L324 218L325 218L324 213z"/>
<path style="fill:#e2d5a6; stroke:none;" d="M169 217L169 220L171 220L171 217L169 217z"/>
<path style="fill:#ad6559; stroke:none;" d="M324 218L324 223L325 223L324 218z"/>
<path style="fill:#537322; stroke:none;" d="M322 236L322 219C314.584 221.726 314.073 233.553 322 236z"/>
<path style="fill:#b0a08a; stroke:none;" d="M325 220L325 232L326 232L325 220z"/>
<path style="fill:#e2d5a6; stroke:none;" d="M201 221L200 227L204 227L203 221L201 221z"/>
<path style="fill:#cfb364; stroke:none;" d="M377 221C379.23 229.274 384.663 236.3 381 245C386.558 243.044 384.098 236.755 384 232L392 239C389.177 232.323 383.656 224.13 377 221z"/>
<path style="fill:#787153; stroke:none;" d="M316 222L316 227L317 227L316 222M323 223C322.999 228.521 323.402 233.115 319 237L321 239C314.088 240.526 313.643 245.04 311 251C320.375 245.68 324.993 233.23 325 223L323 223z"/>
<path style="fill:#b0a08a; stroke:none;" d="M212 228L210 235C205.113 232.425 195.338 233.426 190 235L190 236L195 238L191 237L191 238L193 238L193 239C183.886 240.233 185.685 248.918 187 256L188 256C185.289 233.934 222.364 252.643 212 228z"/>
<path style="fill:#787153; stroke:none;" d="M315 228L318 235L315 228z"/>
<path style="fill:#b0a08a; stroke:none;" d="M234 274L214 275L214 276C220.438 276 241.408 280.367 243.972 271.867C245.603 266.461 241.388 264.158 239.752 259.871C238.5 256.588 239.853 252.417 240 249C243.945 248.438 245.303 241.083 249.06 238.606C257.592 232.984 269.004 231.125 279 232C272.193 226.843 259.21 231.459 252 234.089C239.611 238.608 224.147 244.804 226.502 261.791C227.007 265.43 232.105 270.629 234 274M200 231L200 232L203 232L200 231z"/>
<path style="fill:#cfb364; stroke:none;" d="M273 231L273 232L276 232L273 231M265 232L265 233L269 233L265 232z"/>
<path style="fill:#e2d5a6; stroke:none;" d="M198 269L198 270C213.084 279.841 238.906 285.08 254.938 273.66C260.045 270.022 255.352 263.083 257.392 258.039C258.456 255.409 261.662 253.251 261.458 250.189C261.319 248.09 259.614 247.651 258 247L259 241L277 233L275 267C277.25 261.637 280.954 239.648 278.393 234.434C274.738 226.993 252.744 235.934 249.044 240.279C244.916 245.126 242.443 251.637 243.108 258C243.819 264.806 249.973 270.784 240.946 274.895C225.046 282.137 212.571 272.485 198 269z"/>
<path style="fill:#cfb364; stroke:none;" d="M277 232L277 233L279 237L280 237L280 232L277 232z"/>
<path style="fill:#909e5c; stroke:none;" d="M324 232L324 235L325 235L324 232z"/>
<path style="fill:#b0a08a; stroke:none;" d="M384 235L387 235L386 232L384 235z"/>
<path style="fill:#cfb364; stroke:none;" d="M260.667 233.333L261.333 233.667L260.667 233.333M254 236L254 237L259 234L254 236z"/>
<path style="fill:#909e5c; stroke:none;" d="M385 234L384 245L387 240L398 251L388 234L385 234z"/>
<path style="fill:#b0a08a; stroke:none;" d="M323 235L322 239L323 239L323 235z"/>
<path style="fill:#ad6559; stroke:none;" d="M235 239L235 240L244 237L235 239z"/>
<path style="fill:#cfb364; stroke:none;" d="M250 237L250 238L253 238L250 237M240 249L244 271L247 271L243.062 256L250 238L240 249M323 238L321 242L323 238z"/>
<path style="fill:#b0a08a; stroke:none;" d="M392.333 239.667L392.667 240.333L392.333 239.667z"/>
<path style="fill:#e2d5a6; stroke:none;" d="M106 240L105 249L108 249L106 240z"/>
<path style="fill:#ad6559; stroke:none;" d="M233 240L233 242L235 240L233 240z"/>
<path style="fill:#cfb364; stroke:none;" d="M278 240L278 246L279 246L278 240z"/>
<path style="fill:#66962b; stroke:none;" d="M387 240C384.843 244.628 378.895 247.286 377.612 252.104C375.413 260.359 378.344 270.201 375.491 278.816C373.254 285.569 365.464 292.457 360.385 297.157C345.944 310.522 329.26 319.706 310 323.536C297.511 326.02 284.378 325.02 272 327.514C260.144 329.902 252.201 338.073 241 341.483C224.551 346.491 208.005 342.114 192 337.514C184.192 335.27 176.528 334.249 170.04 328.726C161.566 321.513 159.894 310.222 153.015 302.746C150.633 300.157 147.004 302.284 144.108 301.307C140.737 300.17 139.396 295.914 138 293L137 293C136.44 320.146 138.103 342.633 145 369L146 369L139 329L140 329L141 335C154.932 336.553 150.942 357.936 165 359C166.606 364.705 171.632 367.483 175.153 372.015C183.81 383.158 191.194 396.519 206 400C206.358 410.915 224.289 412.353 233 414L230 418L252 420L251 408L279 421.606L299 419L305 393L307 393L309 400L319 406L324.275 397.067L335 393L332 392L332 390L338 391C344.392 381.547 346.03 371.058 346 360L352 360L357.63 339.194L367.389 329.866L371.838 317L370.319 310.301L373 311L374 311L375 291L372 292L378.779 276L380.446 252.104L391 242L394 247C392.762 242.88 391.368 240.711 387 240z"/>
<path style="fill:#cfb364; stroke:none;" d="M393 240L394 244L395 244L393 240z"/>
<path style="fill:#787153; stroke:none;" d="M231 241L231 243L233 241L231 241z"/>
<path style="fill:#b0a08a; stroke:none;" d="M319 241L319 243L321 241L319 241z"/>
<path style="fill:#909e5c; stroke:none;" d="M232 242L232 244L234 242L232 242M317 242L315 248L316 248L319 242L317 242z"/>
<path style="fill:#537322; stroke:none;" d="M390 242L379.912 252.104L378.779 275L372 292L375 291L374 311L373 311L373 308C367.557 309.832 372.024 317.061 369.86 322C366.511 329.642 361.182 332.635 357.178 339.259C354.105 344.344 352.484 354.077 352 360L346 360C346.008 371.384 343.053 380.803 338 391L332 390L332 392L335 393C328.928 400.112 322.35 394.286 319 406L309 400L307 393L305 393L299 419L279 421.351L251 408L252 420L230 418L233 414C224.578 411.902 206.813 410.666 206 400C191.23 394.711 184.433 382.749 175.153 371.039C171.786 366.791 167.334 363.991 165 359C151.259 356.872 155.281 335.782 141 335L140 329L139 329C137.908 344.466 143.457 360.042 149.144 374.09C170.06 425.754 226.836 461.757 283 457.91C361.666 452.523 420.576 381.743 411.285 303C408.669 280.823 403.345 260.475 390 242z"/>
<path style="fill:#ad6559; stroke:none;" d="M229 246L232 243L229 246z"/>
<path style="fill:#537322; stroke:none;" d="M312 243L312 248L313 248L314 243L312 243z"/>
<path style="fill:#cfb364; stroke:none;" d="M318 243L316 249L317 249L320 243L318 243z"/>
<path style="fill:#b0a08a; stroke:none;" d="M395 244L395 247L396 247L395 244z"/>
<path style="fill:#787153; stroke:none;" d="M228 245L223 261L216 266L211 258L215 255L211 255L211 251L204 251L204 250L207 250L207 249L192 254L188 251L189 259L192 259C194.423 273.719 218.059 274.226 229 274L225.524 261L228 245z"/>
<path style="fill:#b0a08a; stroke:none;" d="M380 247L383 246L380 247z"/>
<path style="fill:#cfb364; stroke:none;" d="M396 245L397 249L398 249L396 245z"/>
<path style="fill:#ad6559; stroke:none;" d="M188 246L188 251L189 251L189 247L193 252L197 253L200 250L196 249L197 247L188 246M204 248L204 249L210 248L211 251L212 251L211 246L204 248z"/>
<path style="fill:#909e5c; stroke:none;" d="M229 246L228 255L229 255L229 246z"/>
<path style="fill:#cfb364; stroke:none;" d="M277 246L277 252L278 252L277 246z"/>
<path style="fill:#909e5c; stroke:none;" d="M138 272C131.193 275.921 130.442 279.912 132 287L122 284L134.393 297.04L134.039 318L140 357L141 357L137.17 336L137 293L138 293C138.981 295.916 140.08 300.079 143.224 301.382C146.454 302.72 150.475 300.25 153.015 303.448C159.256 311.303 160.967 321.569 169.093 328.726C175.453 334.327 183.258 335.289 191 337.514C207.591 342.283 224.952 346.674 242 341.483C253.183 338.078 261.146 329.902 273 327.514C291.271 323.833 310.038 325.587 328 319.2C339.364 315.159 349.345 306.643 358.711 299.315C364.485 294.797 373.931 286.215 375.726 278.816C378.128 268.915 374.124 253.048 383 247C377.174 246.048 376.033 251.279 376.001 256C375.831 280.654 362.469 293.185 343.536 306.887C321.287 322.988 294.398 320.298 269 325.379C256.248 327.93 246.887 338.577 234 339.83C215.943 341.586 184.241 338.237 170.3 325.481C163.194 318.98 161.156 309.176 155.262 302.434C152.155 298.879 146.879 301.243 143.56 298.258C137.179 292.517 139.328 279.485 138 272M187 247L187 253L188 253L187 247z"/>
<path style="fill:#a46333; stroke:none;" d="M189 247L189 252L192 254L193 254L195 253L189 247M204 250L204 251L211 251L210 248L204 250z"/>
<path style="fill:#b0a08a; stroke:none;" d="M314 248L312 252L316 248L314 248z"/>
<path style="fill:#ad6559; stroke:none;" d="M215 249L215 254L216 254L215 249z"/>
<path style="fill:#e2d5a6; stroke:none;" d="M315 249L292 268C300.745 264.55 312.507 257.521 317 249L315 249z"/>
<path style="fill:#66962b; stroke:none;" d="M395 249L398 253L395 249z"/>
<path style="fill:#b0a08a; stroke:none;" d="M398 250L400 253L398 250z"/>
<path style="fill:#a46333; stroke:none;" d="M197 251L197 252L200 252L197 251z"/>
<path style="fill:#b0a08a; stroke:none;" d="M278 251C276.791 254.824 275.225 260.048 276.746 263.981C278.919 269.597 287.336 270.258 291 266C275.383 268.284 281.211 261.443 278 251z"/>
<path style="fill:#ad6559; stroke:none;" d="M310 251L310 253L312 251L310 251M204 252L204 253L207 253L204 252z"/>
<path style="fill:#cfb364; stroke:none;" d="M311 252L311 254L313 252L311 252z"/>
<path style="fill:#b0a08a; stroke:none;" d="M375 252L375 256L376 256L375 252z"/>
<path style="fill:#909e5c; stroke:none;" d="M398 252L406 274L407 274C406.627 266.807 403.134 257.12 398 252z"/>
<path style="fill:#a46333; stroke:none;" d="M203 253L203 254L207 255L203 253z"/>
<path style="fill:#b0a08a; stroke:none;" d="M309 253L309 255L311 253L309 253z"/>
<path style="fill:#66962b; stroke:none;" d="M398.333 254.667L398.667 255.333L398.333 254.667z"/>
<path style="fill:#909e5c; stroke:none;" d="M188 255L188 258L189 258L188 255M227 255L225 264L226 264L227 255z"/>
<path style="fill:#cfb364; stroke:none;" d="M276 255L276 258L277 258L276 255z"/>
<path style="fill:#b0a08a; stroke:none;" d="M304 258L308 256L304 258z"/>
<path style="fill:#cfb364; stroke:none;" d="M308.667 255.333L309.333 255.667L308.667 255.333z"/>
<path style="fill:#ad6559; stroke:none;" d="M302 257L302 259L304 259L304 257L302 257z"/>
<path style="fill:#cfb364; stroke:none;" d="M305.667 257.333L306.333 257.667L305.667 257.333z"/>
<path style="fill:#66962b; stroke:none;" d="M399.333 257.667L399.667 258.333L399.333 257.667z"/>
<path style="fill:#b0a08a; stroke:none;" d="M402.333 258.667L402.667 259.333L402.333 258.667z"/>
<path style="fill:#e2d5a6; stroke:none;" d="M187 259L197 269L187 259z"/>
<path style="fill:#909e5c; stroke:none;" d="M189 259L189 260L192 261L189 259z"/>
<path style="fill:#537322; stroke:none;" d="M194 259L197 262L194 259z"/>
<path style="fill:#ad6559; stroke:none;" d="M295 263L301 259L295 263z"/>
<path style="fill:#b0a08a; stroke:none;" d="M301 259L301 260L304 260L301 259z"/>
<path style="fill:#66962b; stroke:none;" d="M400 259L402 262L400 259z"/>
<path style="fill:#cfb364; stroke:none;" d="M190.333 260.667L190.667 261.333L190.333 260.667M296 263L296 264L303 261L296 263z"/>
<path style="fill:#b0a08a; stroke:none;" d="M191.333 261.667L191.667 262.333L191.333 261.667z"/>
<path style="fill:#a46333; stroke:none;" d="M279 261L279 266L280 266L280 263L284 264L279 261z"/>
<path style="fill:#66962b; stroke:none;" d="M402.333 262.667L402.667 263.333L402.333 262.667z"/>
<path style="fill:#909e5c; stroke:none;" d="M192.667 263.333L193.333 263.667L192.667 263.333z"/>
<path style="fill:#787153; stroke:none;" d="M280 263C280.826 267.947 283.581 267.771 288 267L280 263z"/>
<path style="fill:#ad6559; stroke:none;" d="M289 266L294 263L289 266z"/>
<path style="fill:#b0a08a; stroke:none;" d="M293 265L296 263L293 265M404.333 263.667L404.667 264.333L404.333 263.667M193.667 264.333L194.333 264.667L193.667 264.333z"/>
<path style="fill:#537322; stroke:none;" d="M199 264L199 265L204 266L199 264z"/>
<path style="fill:#909e5c; stroke:none;" d="M226 264L229 274L222 274L222 275L234 274C232.25 269.567 230.653 265.704 226 264z"/>
<path style="fill:#cfb364; stroke:none;" d="M276 264L279 268L276 264z"/>
<path style="fill:#b0a08a; stroke:none;" d="M375 264L375 269L376 269L375 264z"/>
<path style="fill:#cfb364; stroke:none;" d="M195.333 265.667L195.667 266.333L195.333 265.667M291 268L294 265L291 268z"/>
<path style="fill:#66962b; stroke:none;" d="M403.333 265.667L403.667 266.333L403.333 265.667z"/>
<path style="fill:#b0a08a; stroke:none;" d="M405.333 265.667L405.667 266.333L405.333 265.667M120 276L117 276C115.419 271.78 112.317 269.207 108 268C109.033 277.285 118.942 286.878 127 291L122 284L132 287C131.102 279.676 132.09 276.914 138 272L138 284L139 284C139.76 279.907 141.463 274.026 138 271L140 266C134.052 267.06 122.967 270.597 120 276M330 267C332.72 272.15 329.566 275.953 328 281L334 280C334.293 275.37 335.828 271.269 340 269L330 267M196.667 267.333L197.333 267.667L196.667 267.333M406.333 267.667L406.667 268.333L406.333 267.667z"/>
<path style="fill:#cfb364; stroke:none;" d="M197 268L197 269L200 269L197 268z"/>
<path style="fill:#909e5c; stroke:none;" d="M200 268L200 269L203 269L200 268z"/>
<path style="fill:#537322; stroke:none;" d="M217 268L219 272L219 268L217 268z"/>
<path style="fill:#e2d5a6; stroke:none;" d="M278 268C281.981 272.733 285.865 271.281 291 269L291 268L278 268z"/>
<path style="fill:#cfb364; stroke:none;" d="M285 268L285 269L288 269L285 268z"/>
<path style="fill:#b0a08a; stroke:none;" d="M201 269L204 271L201 269z"/>
<path style="fill:#cfb364; stroke:none;" d="M281 269L281 270L284 270L281 269z"/>
<path style="fill:#787153; stroke:none;" d="M404.333 269.667L404.667 270.333L404.333 269.667z"/>
<path style="fill:#b0a08a; stroke:none;" d="M407 269L408 276L409 276L407 269M322 270L322 273L325 273L325 270L322 270M374.333 270.667L374.667 271.333L374.333 270.667M204 271L204 272L208 273L208 272L204 271z"/>
<path style="fill:#787153; stroke:none;" d="M405 271L405 274L406 274L405 271z"/>
<path style="fill:#cfb364; stroke:none;" d="M204.667 272.333L205.333 272.667L204.667 272.333z"/>
<path style="fill:#909e5c; stroke:none;" d="M208 272L208 273L211 273L208 272z"/>
<path style="fill:#cfb364; stroke:none;" d="M244.333 272.667L244.667 273.333L244.333 272.667z"/>
<path style="fill:#b0a08a; stroke:none;" d="M209 273L209 274L213 275L213 274L209 273z"/>
<path style="fill:#909e5c; stroke:none;" d="M213.667 274.333L214.333 274.667L213.667 274.333z"/>
<path style="fill:#787153; stroke:none;" d="M406.333 274.667L406.667 275.333L406.333 274.667z"/>
<path style="fill:#e2d5a6; stroke:none;" d="M409 274C413.331 299.482 417.48 321.987 412.532 348C410.256 359.971 402.485 371.091 401 383L402 383C413.799 357.771 419.486 329.822 416.155 302C415.135 293.484 414.819 280.655 409 274z"/>
<path style="fill:#cfb364; stroke:none;" d="M212.667 275.333L213.333 275.667L212.667 275.333z"/>
<path style="fill:#b0a08a; stroke:none;" d="M329 283L330 286L322 292L326 295L320.627 304.961L322 317L359 297L357 295C362.385 283.812 359.649 281.26 349.039 278.687C346.859 278.158 344.494 275.506 342.209 275.916C339.525 276.397 332.097 281.388 329 283z"/>
<path style="fill:#909e5c; stroke:none;" d="M407 275C411.725 299.021 413.994 320.418 410.816 345C409.846 352.499 406.021 359.453 405 367L406 367C412.491 344.125 416.182 321.837 412.87 298C411.796 290.27 412.214 281.339 407 275M114 276L114 278L116 278L114 276z"/>
<path style="fill:#cfb364; stroke:none;" d="M215 276L215 277L227 277L215 276M234 276L234 277L237 277L234 276z"/>
<path style="fill:#e2d5a6; stroke:none;" d="M110.333 277.667L110.667 278.333L110.333 277.667z"/>
<path style="fill:#66962b; stroke:none;" d="M407.333 277.667L407.667 278.333L407.333 277.667z"/>
<path style="fill:#b0a08a; stroke:none;" d="M409 277L410 283L411 283L409 277z"/>
<path style="fill:#e2d5a6; stroke:none;" d="M111 279C115.066 287.34 128.794 291.577 131.227 300.04C133.883 309.28 131.195 323.097 132.17 333C134.829 360.03 147.446 386.888 164.161 408C169.313 414.506 176.014 424.163 184 427C179.433 418.741 170.247 412.413 164.262 405C154.867 393.363 147.394 378.887 142.004 365C135.945 349.389 134.014 332.617 132.754 316C132.308 310.12 135.939 301.399 132.972 296.109C131.096 292.762 127.344 292.553 124.443 290.582C119.423 287.17 116.557 281.942 111 279z"/>
<path style="fill:#909e5c; stroke:none;" d="M118 283L121 280L118 283z"/>
<path style="fill:#b0a08a; stroke:none;" d="M370 281L370 283L372 281L370 281z"/>
<path style="fill:#66962b; stroke:none;" d="M408 282L410 285L408 282z"/>
<path style="fill:#cfb364; stroke:none;" d="M116.667 283.333L117.333 283.667L116.667 283.333z"/>
<path style="fill:#b0a08a; stroke:none;" d="M411.333 283.667L411.667 284.333L411.333 283.667M139 284L139 287L140 287L139 284z"/>
<path style="fill:#787153; stroke:none;" d="M409.333 285.667L409.667 286.333L409.333 285.667z"/>
<path style="fill:#cfb364; stroke:none;" d="M120 287L120 288L128 292L128 291L120 287z"/>
<path style="fill:#b0a08a; stroke:none;" d="M140 287L140 293L141 293L140 287z"/>
<path style="fill:#66962b; stroke:none;" d="M410.333 287.667L410.667 288.333L410.333 287.667z"/>
<path style="fill:#b0a08a; stroke:none;" d="M412 287L412 296L413 296L412 287z"/>
<path style="fill:#787153; stroke:none;" d="M410.333 289.667L410.667 290.333L410.333 289.667z"/>
<path style="fill:#b0a08a; stroke:none;" d="M362 290L360 294L364 290L362 290M128 291L131 293L128 291M131 293L135 296L131 293z"/>
<path style="fill:#cfb364; stroke:none;" d="M413.333 295.667L413.667 296.333L413.333 295.667M134 296L134 301L135 301L134 296z"/>
<path style="fill:#66962b; stroke:none;" d="M411 296L411 300L412 300L411 296z"/>
<path style="fill:#b0a08a; stroke:none;" d="M413 297L413 338L414 338C415.415 326.801 418.447 307.246 413 297M142.667 298.333L143.333 298.667L142.667 298.333M144.667 299.333L145.333 299.667L144.667 299.333M153 300L153 301L156 302L153 300z"/>
<path style="fill:#787153; stroke:none;" d="M411 300L411 305L412 305L411 300z"/>
<path style="fill:#b0a08a; stroke:none;" d="M134 301L134 304L135 304L134 301M133 304L134 328L135 328L133 304M157 306L157 309L158 309L157 306z"/>
<path style="fill:#66962b; stroke:none;" d="M412 306L412 316L413 316L412 306z"/>
<path style="fill:#cfb364; stroke:none;" d="M132 311L132 315L133 315L132 311z"/>
<path style="fill:#b0a08a; stroke:none;" d="M160.333 312.667L160.667 313.333L160.333 312.667z"/>
<path style="fill:#cfb364; stroke:none;" d="M415 314L415 320L416 320L415 314z"/>
<path style="fill:#787153; stroke:none;" d="M412 316L412 320L413 320L412 316z"/>
<path style="fill:#b0a08a; stroke:none;" d="M317 318L317 319L322 318L317 318M312 319L312 320L315 320L312 319M304.667 320.333L305.333 320.667L304.667 320.333z"/>
<path style="fill:#66962b; stroke:none;" d="M412 320L412 328L413 328L412 320z"/>
<path style="fill:#b0a08a; stroke:none;" d="M293 322L293 323L299 323L293 322z"/>
<path style="fill:#cfb364; stroke:none;" d="M133.333 323.667L133.667 324.333L133.333 323.667z"/>
<path style="fill:#b0a08a; stroke:none;" d="M287.667 323.333L288.333 323.667L287.667 323.333M275 324L275 325L278 325L275 324M261.667 327.333L262.333 327.667L261.667 327.333z"/>
<path style="fill:#cfb364; stroke:none;" d="M134 328L134 333L135 333L134 328z"/>
<path style="fill:#b0a08a; stroke:none;" d="M175 329L175 330L178 330L175 329z"/>
<path style="fill:#787153; stroke:none;" d="M411 330L411 333L412 333L411 330z"/>
<path style="fill:#b0a08a; stroke:none;" d="M253.667 331.333L254.333 331.667L253.667 331.333M135 333L135 341L136 341L135 333M186 333L186 334L190 334L186 333z"/>
<path style="fill:#66962b; stroke:none;" d="M411 333L411 338L412 338L411 333z"/>
<path style="fill:#b0a08a; stroke:none;" d="M190.667 334.333L191.333 334.667L190.667 334.333M194.667 335.333L195.333 335.667L194.667 335.333M199 336L199 337L202 337L199 336M204 337L204 338L207 338L204 337M208 338L208 339L211 339L208 338M240 338L240 339L243 339L240 338z"/>
<path style="fill:#cfb364; stroke:none;" d="M413.333 338.667L413.667 339.333L413.333 338.667z"/>
<path style="fill:#b0a08a; stroke:none;" d="M216 339L216 340L223 340L216 339M235.667 339.333L236.333 339.667L235.667 339.333M412 340L409 357L410 357L412 340z"/>
<path style="fill:#787153; stroke:none;" d="M410 342L410 345L411 345L410 342z"/>
<path style="fill:#b0a08a; stroke:none;" d="M136 344L137 351L138 351L136 344z"/>
<path style="fill:#66962b; stroke:none;" d="M410 345L410 348L411 348L410 345z"/>
<path style="fill:#787153; stroke:none;" d="M409 348L409 351L410 351L409 348z"/>
<path style="fill:#66962b; stroke:none;" d="M408 350L408 353L409 353L408 350z"/>
<path style="fill:#b0a08a; stroke:none;" d="M138.333 351.667L138.667 352.333L138.333 351.667z"/>
<path style="fill:#cfb364; stroke:none;" d="M411.333 351.667L411.667 352.333L411.333 351.667z"/>
<path style="fill:#b0a08a; stroke:none;" d="M139 353L139 357L140 357L139 353z"/>
<path style="fill:#66962b; stroke:none;" d="M407 355L407 358L408 358L407 355z"/>
<path style="fill:#b0a08a; stroke:none;" d="M140 357L141 364L142 364L140 357z"/>
<path style="fill:#787153; stroke:none;" d="M406 357L406 360L407 360L406 357z"/>
<path style="fill:#909e5c; stroke:none;" d="M141 358C141.665 362.918 142.708 369.071 147 372L141 358z"/>
<path style="fill:#b0a08a; stroke:none;" d="M408 358L405 370L406 370L408 358z"/>
<path style="fill:#787153; stroke:none;" d="M405 361L405 364L406 364L405 361z"/>
<path style="fill:#b0a08a; stroke:none;" d="M142.333 365.667L142.667 366.333L142.333 365.667z"/>
<path style="fill:#66962b; stroke:none;" d="M404 365L404 368L405 368L404 365M349.333 366.667L349.667 367.333L349.333 366.667z"/>
<path style="fill:#b0a08a; stroke:none;" d="M143.333 367.667L143.667 368.333L143.333 367.667z"/>
<path style="fill:#909e5c; stroke:none;" d="M404 368L404 371L405 371L404 368z"/>
<path style="fill:#66962b; stroke:none;" d="M403 369L403 372L404 372L403 369z"/>
<path style="fill:#b0a08a; stroke:none;" d="M144.333 370.667L144.667 371.333L144.333 370.667z"/>
<path style="fill:#66962b; stroke:none;" d="M147 371L149 374L149 371L147 371z"/>
<path style="fill:#b0a08a; stroke:none;" d="M404.333 371.667L404.667 372.333L404.333 371.667M145 372L147 377L148 377L145 372z"/>
<path style="fill:#909e5c; stroke:none;" d="M402 372L399 382L400 382L404 372L402 372M147 373L151 381L147 373z"/>
<path style="fill:#787153; stroke:none;" d="M149 374L149 377L150 377L149 374z"/>
<path style="fill:#b0a08a; stroke:none;" d="M402 375L401 379L402 379L402 375z"/>
<path style="fill:#66962b; stroke:none;" d="M399 376L399 379L400 379L399 376z"/>
<path style="fill:#cfb364; stroke:none;" d="M147.333 377.667L147.667 378.333L147.333 377.667z"/>
<path style="fill:#b0a08a; stroke:none;" d="M400.333 379.667L400.667 380.333L400.333 379.667M149 380L156 395L157 395L149 380z"/>
<path style="fill:#66962b; stroke:none;" d="M151 380L151 383L152 383L151 380M398 380L396 386L397 386L398 380z"/>
<path style="fill:#cfb364; stroke:none;" d="M400 381L400 384L401 384L400 381z"/>
<path style="fill:#537322; stroke:none;" d="M338.333 382.667L338.667 383.333L338.333 382.667z"/>
<path style="fill:#b0a08a; stroke:none;" d="M399 382L398 385L399 382z"/>
<path style="fill:#909e5c; stroke:none;" d="M152.333 383.667L152.667 384.333L152.333 383.667z"/>
<path style="fill:#787153; stroke:none;" d="M395 384L395 387L396 387L395 384z"/>
<path style="fill:#909e5c; stroke:none;" d="M397 384L380 411L381 411C385.74 404.822 398.781 392.352 397 384z"/>
<path style="fill:#e2d5a6; stroke:none;" d="M399 384C369.262 439.77 305.795 474.026 243 456.842C231.833 453.786 219.919 450.21 210 444.139C202.304 439.429 193.401 430.463 185 428L185 429L212 449C219.955 449.651 226.482 454.15 234 456.47C248.141 460.834 263.121 463.205 278 463.545C316.543 464.425 355.32 443.544 380.13 415.004C388.156 405.772 397.029 395.787 401 384L399 384z"/>
<path style="fill:#909e5c; stroke:none;" d="M153 385L155 388L153 385z"/>
<path style="fill:#66962b; stroke:none;" d="M155 387L156 392L157 392L155 387z"/>
<path style="fill:#b0a08a; stroke:none;" d="M396 388L393 395L394 395L396 388z"/>
<path style="fill:#787153; stroke:none;" d="M157 390L161 396L157 390z"/>
<path style="fill:#909e5c; stroke:none;" d="M157 393L169 410L170 410L157 393z"/>
<path style="fill:#787153; stroke:none;" d="M390 394L390 397L391 397L392 394L390 394z"/>
<path style="fill:#e6f1f1; stroke:none;" d="M0 396L0 560L235 560L224 556C222.231 550.174 211.433 547.775 205.985 545.748C192.117 540.59 180.746 530.199 168 523.978C160.671 520.4 155.446 514.309 148.536 510.483C130.668 500.588 112.119 491.678 94.1698 482.056C87.08 478.255 81.3028 471.716 74.5301 468.062C55.1456 457.603 29.2861 449.202 15.8634 429.829C10.9257 422.703 9.54046 416.039 7.29089 408.093C5.99329 403.51 3.15175 401.068 3 396L0 396M510 396C505.564 409.526 499.413 424.937 490.022 435.561C483.717 442.695 469.716 447.006 467 456C449.516 456.815 432.947 473.746 418.625 481.992C409.535 487.225 401.161 489.528 392.561 495.975C386.475 500.538 373.957 501.942 371 509C362.2 507.554 359.605 513.9 352.715 518.035C341.31 524.879 329.905 530.442 319.406 538.83C314.977 542.369 309.266 541.073 307 547L289 551L277 560L512 560L512 396L510 396z"/>
<path style="fill:#b0a08a; stroke:none;" d="M159.333 397.667L159.667 398.333L159.333 397.667z"/>
<path style="fill:#cfb364; stroke:none;" d="M391.333 397.667L391.667 398.333L391.333 397.667z"/>
<path style="fill:#b0a08a; stroke:none;" d="M390 398L389 401L390 398M160 399L163 403L160 399z"/>
<path style="fill:#787153; stroke:none;" d="M386 399L386 402L387 402L388 399L386 399z"/>
<path style="fill:#cfb364; stroke:none;" d="M388.333 401.667L388.667 402.333L388.333 401.667z"/>
<path style="fill:#b0a08a; stroke:none;" d="M163 403L177 419L163 403M384.333 406.667L384.667 407.333L384.333 406.667z"/>
<path style="fill:#787153; stroke:none;" d="M170.667 409.333L171.333 409.667L170.667 409.333z"/>
<path style="fill:#b0a08a; stroke:none;" d="M381 409L381 411L383 409L381 409z"/>
<path style="fill:#66962b; stroke:none;" d="M170 410L182 421L182 420L170 410M378 410L378 413L379 413L380 410L378 410z"/>
<path style="fill:#b0a08a; stroke:none;" d="M379 411L379 413L381 411L379 411z"/>
<path style="fill:#909e5c; stroke:none;" d="M376 416L379 413L376 416z"/>
<path style="fill:#787153; stroke:none;" d="M367 424L368 424L376 415C371.384 416.314 368.314 419.384 367 424z"/>
<path style="fill:#b0a08a; stroke:none;" d="M12 416L15 419L12 416M371 422L377 416L371 422z"/>
<path style="fill:#909e5c; stroke:none;" d="M177 419L180 421L177 419z"/>
<path style="fill:#b0a08a; stroke:none;" d="M180.333 421.667L180.667 422.333L180.333 421.667z"/>
<path style="fill:#787153; stroke:none;" d="M181.667 421.333L182.333 421.667L181.667 421.333z"/>
<path style="fill:#909e5c; stroke:none;" d="M369 421L369 423L371 421L369 421M181 422L181 424L183 424L183 422L181 422z"/>
<path style="fill:#66962b; stroke:none;" d="M183 423L186 425L183 423z"/>
<path style="fill:#b0a08a; stroke:none;" d="M368 423L368 425L370 423L368 423M182.667 424.333L183.333 424.667L182.667 424.333z"/>
<path style="fill:#909e5c; stroke:none;" d="M360 430L368 424L360 430z"/>
<path style="fill:#b0a08a; stroke:none;" d="M184 425L187 428L187 427L184 425z"/>
<path style="fill:#909e5c; stroke:none;" d="M185 425L191 430L185 425z"/>
<path style="fill:#787153; stroke:none;" d="M187.667 426.333L188.333 426.667L187.667 426.333M189 427L193 430L189 427z"/>
<path style="fill:#b0a08a; stroke:none;" d="M352 436L352 437L364 428L352 436M190 430L195 435L190 430z"/>
<path style="fill:#66962b; stroke:none;" d="M191.667 430.333L192.333 430.667L191.667 430.333z"/>
<path style="fill:#909e5c; stroke:none;" d="M192 431L199 436L199 435L192 431M204 439L204 440C215.393 445.327 225.663 451.114 238 454.417C281.974 466.191 321.833 457.728 359 432C354.07 430.991 345.584 438.903 341 441.374C327.017 448.912 312.803 455.125 297 457.576C274.643 461.043 251.279 458.018 230 450.453C221.171 447.314 212.949 441.31 204 439z"/>
<path style="fill:#66962b; stroke:none;" d="M195 432L199 435L195 432M199.667 435.333L200.333 435.667L199.667 435.333z"/>
<path style="fill:#b0a08a; stroke:none;" d="M198.667 436.333L199.333 436.667L198.667 436.333z"/>
<path style="fill:#909e5c; stroke:none;" d="M200 436L203 439L200 436z"/>
<path style="fill:#787153; stroke:none;" d="M346 439L351 437L346 439M203.667 437.333L204.333 437.667L203.667 437.333z"/>
<path style="fill:#66962b; stroke:none;" d="M203.667 438.333L204.333 438.667L203.667 438.333z"/>
<path style="fill:#b0a08a; stroke:none;" d="M202 439L202 440L206 441L206 440L202 439z"/>
<path style="fill:#66962b; stroke:none;" d="M206.667 439.333L207.333 439.667L206.667 439.333z"/>
<path style="fill:#b0a08a; stroke:none;" d="M348.667 439.333L349.333 439.667L348.667 439.333z"/>
<path style="fill:#787153; stroke:none;" d="M337 442L337 443L343 441L337 442z"/>
<path style="fill:#b0a08a; stroke:none;" d="M341 443L341 444L347 440L341 443M206 441L214 446L214 445L206 441z"/>
<path style="fill:#787153; stroke:none;" d="M210 441L213 443L210 441z"/>
<path style="fill:#66962b; stroke:none;" d="M213.667 443.333L214.333 443.667L213.667 443.333M215.667 444.333L216.333 444.667L215.667 444.333z"/>
<path style="fill:#787153; stroke:none;" d="M329 446L329 447L336 445L329 446z"/>
<path style="fill:#b0a08a; stroke:none;" d="M339.667 444.333L340.333 444.667L339.667 444.333z"/>
<path style="fill:#787153; stroke:none;" d="M218.667 445.333L219.333 445.667L218.667 445.333z"/>
<path style="fill:#b0a08a; stroke:none;" d="M333 447L333 448L339 446L333 447z"/>
<path style="fill:#cfb364; stroke:none;" d="M213.667 446.333L214.333 446.667L213.667 446.333z"/>
<path style="fill:#66962b; stroke:none;" d="M219.667 446.333L220.333 446.667L219.667 446.333z"/>
<path style="fill:#b0a08a; stroke:none;" d="M216 447L216 448L223 449L223 448L216 447z"/>
<path style="fill:#787153; stroke:none;" d="M223.667 447.333L224.333 447.667L223.667 447.333M325 450L329 448L325 450z"/>
<path style="fill:#66962b; stroke:none;" d="M225.667 448.333L226.333 448.667L225.667 448.333z"/>
<path style="fill:#b0a08a; stroke:none;" d="M330.667 448.333L331.333 448.667L330.667 448.333z"/>
<path style="fill:#66962b; stroke:none;" d="M227.667 449.333L228.333 449.667L227.667 449.333M323 449L323 451L325 449L323 449z"/>
<path style="fill:#b0a08a; stroke:none;" d="M224 450L224 451L236 454L224 450z"/>
<path style="fill:#66962b; stroke:none;" d="M229.667 450.333L230.333 450.667L229.667 450.333z"/>
<path style="fill:#b0a08a; stroke:none;" d="M325 451L325 452L329 451L325 451z"/>
<path style="fill:#66962b; stroke:none;" d="M233.667 451.333L234.333 451.667L233.667 451.333z"/>
<path style="fill:#787153; stroke:none;" d="M235.667 451.333L236.333 451.667L235.667 451.333M317 451L317 452L320 452L317 451z"/>
<path style="fill:#66962b; stroke:none;" d="M237.667 452.333L238.333 452.667L237.667 452.333z"/>
<path style="fill:#787153; stroke:none;" d="M239 452L239 453L242 453L239 452M308 454L308 455L315 453L308 454z"/>
<path style="fill:#66962b; stroke:none;" d="M315.667 452.333L316.333 452.667L315.667 452.333z"/>
<path style="fill:#b0a08a; stroke:none;" d="M319 453L319 454L325 453L319 453M56 458L60 458L61 453C57.597 453.588 56.728 454.649 56 458z"/>
<path style="fill:#66962b; stroke:none;" d="M241.667 453.333L242.333 453.667L241.667 453.333M312.667 453.333L313.333 453.667L312.667 453.333z"/>
<path style="fill:#b0a08a; stroke:none;" d="M451 453L455 458L451 453M236.667 454.333L237.333 454.667L236.667 454.333z"/>
<path style="fill:#787153; stroke:none;" d="M244.667 454.333L245.333 454.667L244.667 454.333z"/>
<path style="fill:#b0a08a; stroke:none;" d="M309 456L309 457L318 454L309 456M238 455L238 456C262.626 461.08 284.183 461.649 309 458L286 459.996L238 455z"/>
<path style="fill:#66962b; stroke:none;" d="M246 455L246 456L252 456L246 455z"/>
<path style="fill:#787153; stroke:none;" d="M303 455L303 456L306 456L303 455z"/>
<path style="fill:#66962b; stroke:none;" d="M306 455L306 456L309 456L306 455M253 456L253 457L258 457L253 456z"/>
<path style="fill:#787153; stroke:none;" d="M258 456L258 457L261 457L258 456M296 456L296 457L301 457L296 456z"/>
<path style="fill:#66962b; stroke:none;" d="M301 456L301 457L304 457L301 456M259 457L259 458L263 458L259 457z"/>
<path style="fill:#787153; stroke:none;" d="M263 457L263 458L271 458L263 457M286 457L286 458L295 458L286 457z"/>
<path style="fill:#66962b; stroke:none;" d="M295 457L295 458L298 458L295 457M265 458L265 459L273 459L265 458z"/>
<path style="fill:#787153; stroke:none;" d="M273 458L273 459L285 459L273 458z"/>
<path style="fill:#66962b; stroke:none;" d="M285 458L285 459L291 459L285 458z"/>
<path style="fill:#b0a08a; stroke:none;" d="M93 473L94 478L99 474L93 473M413 475L419 477L419 474L413 475M130 494L130 498L135 499C134.423 495.526 133.474 494.577 130 494M169 516L169 520L173 517L169 516M340 517L340 519L343 519L343 517L340 517M180 521L180 523L183 523L183 521L180 521M192 529L191 533L194 537C198.302 536.859 200.462 536.182 202 532L192 529M311 533C315.719 541.082 322.723 529.468 311 533M204 535L205 541L211 539L204 535M302 540L307 540L307 536L302 540M216 541L220 545L216 541M292 541L292 545L296 541L292 541M225 545C225.688 551.032 232.198 554.555 238.039 555.428C249.982 557.214 280.369 558.924 287 547L262 549.985L225 545z"/>
<path style="fill:#e6f1f1; stroke:none;" d="M245 559L245 560L265 560L245 559z"/>
</svg>
