<?xml version="1.0" standalone="yes"?>
<svg xmlns="http://www.w3.org/2000/svg" width="388" height="428">
<path style="fill:#f8fcfd; stroke:none;" d="M0 0L0 126L3 126C3.05787 119.101 5.60095 110.543 12 107C14.1111 99.5034 23.5034 90.1111 31 88C35.3155 80.1974 57.0988 67.6459 66 67C68.5817 62.5356 74.3775 61.0705 78.5764 58.2408C89.8184 50.6646 107.727 37.558 121 35C125.616 27.0524 141.102 21.6955 149 16.9861C157.626 11.843 167.057 6.0267 177 3.86188C217.805 -5.02234 255.008 25.1483 287.845 44.5795C299.988 51.7648 316.857 66.4028 331 68L342.884 75.8009L364.588 89.3518L377 99L377 104C381.948 106.701 384.822 113.504 385 119L388 119L388 0L0 0z"/>
<path style="fill:#e9d5a5; stroke:none;" d="M121 35L98.7145 46.6296L77.7184 58.2408L66 67C56.4232 67.3058 47.0816 75.6433 39.2708 80.6952C35.8365 82.9165 32.3532 83.9393 31 88C23.2848 89.2222 13.2222 99.2849 12 107C3.21256 109.93 6.21607 121.971 0 126C5.15386 143.939 4 162.037 4 181L4 260C4 270.331 4.11903 280.67 3.99614 291C3.94328 295.444 3.98643 300.445 0 303C3.0601 313.422 8.56621 323.555 15.3619 332.08C18.6779 336.24 23.4983 339.341 26 344L41 352.572L79.5448 373.72L107 389L107 392C120.061 395.059 131.662 404.686 143 411.424C147.442 414.063 154.293 415.57 157 420L165 424C169.421 424.016 172.711 423.849 175 428L216 428L216 425C225.833 424.216 235.066 418.595 243 413L243 412L240 409L244 412L271 397L271 396L260 400L273 392L272 396C290.784 390.217 309.172 375.14 326.09 365.154C341.096 356.297 359.338 348.761 372.07 336.696C379.136 330 381.363 319.413 388 313L388 271L388 178L387.995 139.004L388 119L378 104L380 111L376 105L357 88L347 84L356 89C357.595 93.3993 363.19 95.7952 366.561 99.0008C372.949 105.076 378.265 112.238 380 121L384 121L384.985 140L385 182L383 311L380 311C378.723 320.508 371.549 328.813 364.981 335.394C362.07 338.311 357.158 339.042 356 343C343.549 344.131 329.675 356.304 319.014 362.598C294.927 376.819 270.097 389.915 246.155 404.383C235.174 411.018 221.86 421.917 208.996 423.853C200.225 425.172 187.561 426.066 179 423.441C163.513 418.691 150.929 406.774 136 401C134.041 405.126 133.781 401.66 135 399L124 393L123 393C119.236 398.432 105.387 388.373 103 384L122 393L117 391C114.968 384.869 100.809 379.814 95 377C93.2182 379.4 92.157 378.891 90 377L94 377L94 376L66.8449 359.669L48 348C35.6196 346.874 12.9737 328.995 12 316C7.22113 313.365 8.34735 308.332 6.42438 303.715C0.483525 289.448 5 265.423 5 250L5 165C5 145.588 3.34235 127.213 14.1034 110.086C23.4731 95.173 35.9659 90.1705 50 81L50 80L47 80L52 76L51 80L87 60L87 59L81 60L91 57L91 56L88 53L93 53L92 56L129 36L129 35L123 36C128.516 26.3625 152.465 14.8327 163 12L129 34C146.168 28.9746 159.624 13.9106 177.039 9.41125C187.409 6.73206 200.476 6.32385 211 8.47916C215.945 9.49188 219.903 12.4751 225 13C226.136 16.8824 229.304 16.8821 233 17C235.108 24.2127 259.679 36.3815 267 37C268.059 40.6191 271.414 40.9056 274.412 42.875C281.735 47.686 292.28 55.9939 301 57L313.87 65.3889L346 84L346 83L339 77C350.328 78.6944 370.61 92.9309 376 103L377 103L377 99L328 68L329 72C326.383 71.1636 323.769 69.9164 327 68L327 67L280 40L281 43C278.244 43.0679 275.79 41.9807 279 40L279 39L248 21L261 32L242 21L247 21L247 19C236.113 17.3715 225.881 7.91046 215 4.68365C189.018 -3.0213 162.92 7.33447 141.424 21.0764C135.713 24.7276 123.34 28.3122 121 35z"/>
<path style="fill:#a9afbc; stroke:none;" d="M177 5L177 7L184 7L184 5L177 5z"/>
<path style="fill:#f8fcfd; stroke:none;" d="M95 56C83.281 57.2102 70.0258 68.9391 60.0008 74.9144C47.5438 82.3392 30.6923 88.0715 21.2083 99.4391C3.95684 120.117 5 141.557 5 167L5 233C5 253.999 4.89001 275.001 5.00077 296C5.02864 301.283 6.73726 314.253 12 316C12.4348 329.409 35.2275 347.404 48 348C49.9537 353.907 61.5224 357.19 66.8449 360.117C78.5231 366.537 89.201 374.528 101.039 380.741C105.968 383.327 114.317 386.124 117 391C126.596 392.337 138.881 402.227 147.245 407.265C167.692 419.583 185.654 427.561 209.985 423.853C222.823 421.896 236.053 410.973 247.05 404.383C271.071 389.988 295.851 376.775 320 362.598C330.695 356.319 343.685 344.952 356 343C357.996 339.729 361.338 339.3 364.181 336.867C371.511 330.596 379.117 320.804 380 311L383 311L385 176L384 121L380 121C377.865 104.613 363.269 101.065 356 89C342.312 85.553 327.703 73.1676 315.576 65.9151C311.094 63.2343 303.698 61.4123 301 57C292.339 54.6213 271.627 44.5816 267 37C258.131 35.2048 237.728 24.822 233 17L225 13C212.566 11.0851 202.321 6.4241 189 7.18982C165.322 8.5509 141.232 27.1926 121.741 39.4537C115.445 43.4143 97.002 49.1559 95 56z"/>
<path style="fill:#a9afbc; stroke:none;" d="M165 10L165 11L171 11L171 9L165 10M220 9L220 11L224 11L224 9L220 9M123 36L129 32C136.569 31.583 160.469 19.2315 163 12C152.577 13.5714 140.898 22.3509 132.09 27.9838C128.586 30.224 124.402 31.9437 123 36M228 13L228 15L232 15L232 13L228 13M236 17L240 20L236 17M242 21C245.792 26.2754 254.552 31.2856 261 32C258.917 25.9904 248.083 21.1967 242 21M262 32L268 36C266.901 32.6787 265.41 32.2625 262 32M116 40L121 36L116 40M269 36L274 39L269 36M109 43C112.194 42.9865 114.271 43.4029 115 40L109 43M276 40C277 43.0359 277.863 43.4943 281 43L281 41L276 40M103 45L103 47L107 47L107 45L103 45M284 45L284 47L288 47L288 45L284 45M96 49L96 51L100 51L100 49L96 49M291 49L291 51L294 51L294 49L291 49M88 53L88 56L93 53L88 53M297 53L297 55L300 55L300 53L297 53M81 60L87 57C83.8058 57.0135 81.7292 56.5971 81 60M305 57L305 59L307 59L307 57L305 57M75 61L75 63L79 63L79 61L75 61M312 61L312 63L315 63L315 61L312 61M68 65L68 67L72 67L72 65L68 65M318 65L318 67L322 67L322 65L318 65M324 68L329 72L324 68M60 69L60 72L66 69L60 69M53 76L59 72L53 76M332 73L332 75L336 75L336 73L332 73M47 80L52 76L47 80z"/>
<path style="fill:#e9d5a5; stroke:none;" d="M183 90L179 87L172 88L173 90C162.06 90.8634 148.614 93.6722 145 106C137.153 103.39 115.413 97.4315 115 110C102.652 113.362 104.456 121.926 101.509 131.83C95.702 151.348 94.9807 165.966 97.8688 186C102.287 216.647 110.928 246.761 117.331 277C120.081 289.987 119.611 306.366 127.742 317.711C135.301 328.259 153.027 328.665 163.91 334.134C169.626 337.006 173.416 341.73 180 343L179 346C186.427 346.088 192.026 350.977 199 353.215C213.962 358.017 242.722 356.546 249 339C244.953 341.26 242.993 345.745 238.91 348.066C220.055 358.782 202.423 352.813 184.961 343.819C179.157 340.829 171.383 338.966 168 333C157.94 331.289 136.824 324.779 130.344 316.981C122.258 307.249 121.563 290.006 119.704 278C118.227 268.463 114.729 259.32 112.469 250C109.778 238.901 109.345 227.004 106.367 216C102.994 203.542 101.743 190.362 98.0995 178C96.279 171.822 93.8195 164.073 99 159L98 152L102 154L106 118C112.436 117.474 123.672 113.786 123 106L147 112C149.334 100.884 156.841 99.285 167 98C170.527 91.1615 177.031 95.1305 182.985 93.0533C187.558 91.458 190.066 87.3229 195 86L193 84C200.127 80.9792 205.855 81.5922 213 84L212 87C216.975 91.9729 214.713 103.528 223.019 104.852C228.535 105.731 242.531 101.749 246.671 97.8557C248.972 95.6912 249.354 91.623 252.275 90.1219C256.552 87.9235 266 93.3613 268 97C301.808 100.68 249.913 153.927 282.998 154.742C285.574 154.806 287.529 154.712 290 154L282.468 181L282.674 195L263.525 281L249 337L250 337L275.503 235L283.679 204L286.174 178L292 152C287.74 151.209 277.552 152.826 275.194 148.812C271.944 143.279 278.569 131.161 280.444 125.83C286.981 107.254 281.434 98.9038 265.17 89.9236C261.332 87.8043 254.68 83.8674 250.148 84.5062C246.366 85.0392 246.302 91.4183 242 93L242 98L220 101C220.668 97.0515 221.964 86.7878 219.958 83.3295C217.9 79.7838 213.55 79.4283 210 78.5602C198.423 75.7291 188.495 78.1182 183 90z"/>
<path style="fill:#a9afbc; stroke:none;" d="M339 77C342.243 82.6065 350.709 87.0863 357 88C358.182 92.0433 371.768 103.841 376 105L380 111C378.47 97.1644 352.446 78.011 339 77M40 84L45 80L40 84z"/>
<path style="fill:#ebbe5e; stroke:none;" d="M195 86C189.433 86.5864 187.779 90.4602 182.985 92.5123C177.261 94.963 169.322 90.3725 167 98C156.663 98.8158 148.563 100.467 147 112C139.17 108.311 132.102 104.224 123 106C122.279 113.362 112.517 117.117 106 118L102 154L98 152C98.51 157.622 101.329 164.085 107.911 164.473C112.202 164.726 114.879 159.842 118.17 157.818C122.304 155.274 129.205 154.416 134 154.084C148.935 153.05 157.679 161.516 171 164L171 160L179 161L179 165L181 164C181.154 168.678 182.149 171.298 187 169L189 181L190 181C191.155 171.863 188.585 157.76 198 152L192 146L193 151C189.136 151.3 187.652 152.089 187 156L193 157C190.579 159.695 188.99 160.316 187 157C181.583 156.592 173.551 152.862 171 148L165 151L166 142L144 132L144 129L154 118C135.941 115.052 167.468 89.7585 169 110L177 110L173 101L179 105L180 97C186.791 98.7472 193.964 104.356 198 110C200.904 109.16 203.201 106.432 206.09 105.939C214.071 104.577 221.46 111.999 228.129 113.476C233.075 114.572 237.922 109.368 240 116C247.411 113.361 247.571 104.44 251.863 99.0586C255.217 94.8524 260.013 94.6308 265 94L266 98L268 94C262.097 91.9364 257.653 89.3315 252 93L251 90C246.349 96.9869 229.637 110.633 220.264 103.397C214.652 99.0637 217.76 90.9199 212 87L213 84C209.74 82.4849 192.288 78.6393 195 86z"/>
<path style="fill:#a9afbc; stroke:none;" d="M33 85L33 87L38 87L38 85L33 85M29 89L29 91L31 91L31 89L29 89z"/>
<path style="fill:#d7aca1; stroke:none;" d="M251 89L252 93L256 89L251 89M261 94L261 95L275 100C272.751 96.8036 269.4 96.1951 266 98L265 94L261 94z"/>
<path style="fill:#da9d2d; stroke:none;" d="M240 116C238.708 108.285 233.144 114.571 228.129 113.084C225.553 112.32 224.363 109.555 221.871 108.613C212.652 105.13 206.201 106.105 198 110C195.083 103.91 186.71 97.9729 180 97L179 105L173 101L177 110L169 110C168.288 88.1436 135.45 116.521 154 118L144 129L144 132L166 142L165 151L171 148C172.726 153.466 181.554 156.822 187 157C188.411 161.203 191.05 160.513 193 157L187 156C188.057 152.508 189.418 151.568 193 151L192 146L198 152C193.285 153.379 195.064 157.147 193.523 160.917C192.534 163.337 189.311 163.779 188.56 166.153C187.674 168.954 190.267 177.025 190 181L189 181L187 169C182.474 170.26 181.337 168.403 181 164L179 165L179 161L171 160L171 164C157.991 160.857 148.794 152.381 134 153.66C121.797 154.716 113.143 164.849 102 163L120.849 206.075L132 215L129 173L132 172L132 162L137 167L141 164L144 164L145 171L149 169L146 170L147 165L152 165L152 169C157.123 171.744 161.308 176.006 161 182C176.542 186.506 161.867 213.79 172.558 221.548C175.447 223.645 180.638 221.098 184 221L183 226L193 227L194 205L198 204L198 210L203 210L211 198L216 198L218 204L216 204C219.111 209.585 216.83 218.974 224 221L226 208C232.229 206.963 230.542 201.11 231 196L232 196L232 200L233 200L236 199C236.568 195.418 237.508 194.057 241 193L242 181L247 181L248 181L250 183L251 180L256 181L256 184L254 189C259.964 186.018 257.33 182.339 260 177C262.45 172.099 281.739 169.685 283 170C285.923 158.702 284.244 158.336 274 159L270 153L260 155C258.757 151.462 256.569 151.197 253 151L253 149L264.972 146.262L266.133 132.039L272.267 111.17L270 102L261 98L262 95C247.408 95.0516 250.608 109.747 240 116z"/>
<path style="fill:#ebbe5e; stroke:none;" d="M262 95L261 98L270 102C269.391 105.71 271.675 107.656 271.78 111.17C271.97 117.556 268.215 123.416 266.495 129.285C263.127 140.775 269.076 148.308 253 149L253 151L260 155L270 153C270.904 157.217 275.356 156 279 156L279 155C271.805 154.444 270.406 148.37 271.844 142C274.477 130.336 283.095 116.218 279.276 104.059C277.428 98.1745 266.675 98.86 262 95z"/>
<path style="fill:#a9afbc; stroke:none;" d="M13 104L13 107L15 107L15 104L13 104z"/>
<path style="fill:#d7aca1; stroke:none;" d="M149 106L149 108L151 106L149 106z"/>
<path style="fill:#ebbe5e; stroke:none;" d="M182 107L180 113L186 112L182 107z"/>
<path style="fill:#a9afbc; stroke:none;" d="M9 109L9 114L11 114L11 109L9 109z"/>
<path style="fill:#c99265; stroke:none;" d="M150 109L151 113L152 113L150 109z"/>
<path style="fill:#ab671e; stroke:none;" d="M193 111C192.915 121.09 183.148 141.117 200 143L195 111L193 111z"/>
<path style="fill:#a9afbc; stroke:none;" d="M380 112L383 119L383 112L380 112z"/>
<path style="fill:#da9d2d; stroke:none;" d="M127 118L132 132L140 131L132.995 113.921L127 118z"/>
<path style="fill:#c99265; stroke:none;" d="M192 115L192 119L193 119L192 115M161 121L167 121L167 116C163.136 116.3 161.652 117.089 161 121z"/>
<path style="fill:#ab671e; stroke:none;" d="M163 120L166 117L163 120z"/>
<path style="fill:#a9afbc; stroke:none;" d="M5 118L5 125L7 125L7 118L5 118z"/>
<path style="fill:#c99265; stroke:none;" d="M169 125C175.453 121.127 186.691 119.489 187 129L175 127L175 128L189 133L191 124L188 125C186.039 116.005 172.455 118.128 169 125M191 119L191 122L192 122L191 119z"/>
<path style="fill:#ab671e; stroke:none;" d="M167 125C167.38 129.598 167.307 132.582 164 136L164 138L168 139C174.169 128.816 175.82 128.427 187 129C186.867 117.751 174.461 121.768 167 125z"/>
<path style="fill:#c99265; stroke:none;" d="M199 122L199 139L200 139L199 122z"/>
<path style="fill:#a9afbc; stroke:none;" d="M386 122L386 133L388 133L388 122L386 122z"/>
<path style="fill:#da9d2d; stroke:none;" d="M106 127L107 133C111.806 131.076 110.557 127.992 106 127z"/>
<path style="fill:#d7aca1; stroke:none;" d="M273 128L273 131L274 131L273 128z"/>
<path style="fill:#a9afbc; stroke:none;" d="M0 129L0 303L3 303C6.12889 263.353 4 222.804 4 183C4 167.045 8.24152 143.792 2 129L0 129z"/>
<path style="fill:#c99265; stroke:none;" d="M172 131L171 135L172 135L174 131L172 131z"/>
<path style="fill:#ebbe5e; stroke:none;" d="M177 137L182 140L188 140L188 137L183 133C179.59 133.263 178.099 133.679 177 137z"/>
<path style="fill:#c99265; stroke:none;" d="M190.333 133.667L190.667 134.333L190.333 133.667M206 135C206.654 138.054 208.007 137.936 211 138L206 135z"/>
<path style="fill:#da9d2d; stroke:none;" d="M112 144C118.961 143.527 124.272 146.835 129 152L131 152C132.012 148.575 133.764 139.63 130.258 137.068C125.393 133.514 113.569 138.97 112 144z"/>
<path style="fill:#c99265; stroke:none;" d="M191.333 137.667L191.667 138.333L191.333 137.667z"/>
<path style="fill:#da9d2d; stroke:none;" d="M153 139L153 143L155 143L155 139L153 139z"/>
<path style="fill:#ebbe5e; stroke:none;" d="M171 145L175 145L176 139L171 145M200 148L216.957 151.253L227 144L227 140C219.268 140.16 203.105 139.549 200 148z"/>
<path style="fill:#c99265; stroke:none;" d="M196 143L196 144L200 144L196 143z"/>
<path style="fill:#ab671e; stroke:none;" d="M126.333 144.667L126.667 145.333L126.333 144.667z"/>
<path style="fill:#ebbe5e; stroke:none;" d="M242 148L245 146L242 148M280 154L280 155L283 155L280 154z"/>
<path style="fill:#d7aca1; stroke:none;" d="M289 154L274 156L274 157C278.568 157.013 282.506 156.731 285 161C288.458 159.533 290.454 157.83 289 154z"/>
<path style="fill:#ab671e; stroke:none;" d="M203 156L197 186L206 182C205.421 175.114 211.007 158.655 203 156z"/>
<path style="fill:#da9d2d; stroke:none;" d="M166 157L169 160L166 157z"/>
<path style="fill:#c99265; stroke:none;" d="M274 158L274 159L280 159L280 157L274 158z"/>
<path style="fill:#d7aca1; stroke:none;" d="M96 162L101 160L96 162z"/>
<path style="fill:#c99265; stroke:none;" d="M104 206L105 206L104.701 189.17L97 163C103.627 166.241 103.535 171.809 105.866 178C108.958 186.215 113.248 193.557 116 202L117 202C115.221 188.33 106.775 172.444 101 160C96.1513 161.472 95.4246 165.273 96.6088 170C99.6153 182 103.741 193.454 104 206z"/>
<path style="fill:#ebbe5e; stroke:none;" d="M286 160L285 161L285 162L285 163L288 160L286 160z"/>
<path style="fill:#c99265; stroke:none;" d="M132.333 162.667L132.667 163.333L132.333 162.667z"/>
<path style="fill:#ab671e; stroke:none;" d="M133 162L130 168C134.505 168.688 134.868 166.015 135 162L133 162z"/>
<path style="fill:#c99265; stroke:none;" d="M135 162L132 171L135 169L136 169L142 184L139 184C140.496 189.399 144.411 198.34 150 200L150 208L152 208L152 201L156 200C154.901 196.679 153.41 196.263 150 196L150 192C159.144 194.435 153.779 184.856 159.184 184.333C162.594 184.003 165.195 186.991 165.772 190.019C167.533 199.265 168.922 209.534 169 219L170 219C169.994 210.301 171.411 183.659 161 182C161.938 175.93 157.79 170.898 152 169L152 165L147 165L146 170L149 169L145 171L144 164L141 164L137 167L135 162z"/>
<path style="fill:#ebbe5e; stroke:none;" d="M224 191L225 191L228.31 175.039L233 162C224.517 162.54 212.734 171.545 216.694 181.683C218.543 186.417 224.218 184.13 224 191z"/>
<path style="fill:#a56155; stroke:none;" d="M97 163L103 187C106.426 181.156 103.987 165.075 97 163z"/>
<path style="fill:#d7aca1; stroke:none;" d="M284 163L284 174L285 174L287 163L284 163z"/>
<path style="fill:#c99265; stroke:none;" d="M206 167L205 173L206 173L208 167L206 167z"/>
<path style="fill:#ab671e; stroke:none;" d="M103 168L104 187L112 193L103 168z"/>
<path style="fill:#c99265; stroke:none;" d="M283 168L281 169L270 172L270 173C277.619 173.249 278.351 177.499 276 184L273 183L273 188L278 187L280 199L281 199L280.583 183L283 168z"/>
<path style="fill:#ab671e; stroke:none;" d="M135 169L130 172L132 180C126.106 181.263 132.407 186.34 132.917 190C134.462 201.097 130.652 208.91 137 219L129 217C135.253 235.91 154.725 226.233 166 221L167 236L188 234L187 229L170 226C169.913 215.498 167.082 205.33 166.104 195C165.654 190.24 166.02 183.62 159.148 183.778C153.825 183.9 158.697 193.432 150 192L150 196L156 200L152 201L152 208L150 208L150 200C144.549 197.311 141.465 189.424 139 184L142 184L135 169z"/>
<path style="fill:#d7aca1; stroke:none;" d="M96 170L103 206L104 206C103.913 195.492 102.416 178.577 96 170z"/>
<path style="fill:#c99265; stroke:none;" d="M129.333 173.667L129.667 174.333L129.333 173.667z"/>
<path style="fill:#da9d2d; stroke:none;" d="M140 173L143 177L143 173L140 173z"/>
<path style="fill:#c99265; stroke:none;" d="M206 173L204 182L204 183L211 180L211 179L208 179L208 176L211 175L206 173M263 173L263 174L268 174L263 173z"/>
<path style="fill:#ab671e; stroke:none;" d="M262 174L254 208L250 204L243 205L244 209L230 210L227 224C222.058 223.624 220.32 219.947 215.961 218.727C206.953 216.206 199.266 220.557 194 227L195 231L240 224L240 223L236 223L236 221L261 219L261 217C254.937 213.187 257.214 208.187 258 202L272 205L263 216L265 213L269 215L274 212L274 208L275 208L276 210L278 187L273 188L273 183L276 184C282.078 171.353 270.397 173.639 262 174M156 175L159 181C159.803 177.566 159.302 176.328 156 175z"/>
<path style="fill:#c99265; stroke:none;" d="M261 175L254 189L256 184L256 181L251 180L250 183L248 181L247 181L242 181L241 193C237.089 193.652 236.3 195.136 236 199L233 200L232 200L232 196L231 196C230.139 200.945 231.614 206.278 226 208L227 216L230 210C235.472 211.991 238.879 211.868 244 209L243 205L250 204L254 208L261 175z"/>
<path style="fill:#d7aca1; stroke:none;" d="M283.333 175.667L283.667 176.333L283.333 175.667z"/>
<path style="fill:#ab671e; stroke:none;" d="M146.333 176.667L146.667 177.333L146.333 176.667M208 176L208 179L211 179L211 176L208 176z"/>
<path style="fill:#c99265; stroke:none;" d="M131 177L130 180L131 177M274 177L273 180L274 177z"/>
<path style="fill:#d7aca1; stroke:none;" d="M282 177L278.961 207L269 254L270 254C273.889 236.988 277.86 220.151 281.095 203C282.552 195.277 284.712 184.559 282 177z"/>
<path style="fill:#c99265; stroke:none;" d="M197.333 181.667L197.667 182.333L197.333 181.667z"/>
<path style="fill:#da9d2d; stroke:none;" d="M146.667 182.333L147.333 182.667L146.667 182.333z"/>
<path style="fill:#c99265; stroke:none;" d="M196 183L195 188L199 188L196 183M201 183L201 184L204 184L201 183M129.667 184.333L130.333 184.667L129.667 184.333M131 185L132 204C136.016 201.166 133.589 188.79 131 185z"/>
<path style="fill:#df6549; stroke:none;" d="M105 187L108 217L109 217L106.098 202L105 187z"/>
<path style="fill:#da9d2d; stroke:none;" d="M152 187L152 191L155 191L155 187L152 187z"/>
<path style="fill:#ab671e; stroke:none;" d="M249 188L249 191L251 191L251 188L249 188z"/>
<path style="fill:#da4f2a; stroke:none;" d="M107 191C106.225 197.131 103.619 211.174 112 213L114 237L119 236L117 225L124 232L128 232L128 237L132 237L142 296C129.958 292.79 126.404 276.697 124.704 266C123.818 260.417 126.383 252.39 120 251L120 239L117 239C118.163 256.501 123.427 280.772 130.065 297C132.001 301.734 133.334 309.075 137.058 312.66C147.16 322.387 166.356 327.545 178.996 333.439C188.448 337.847 201.705 348.922 212.942 345.427C225.788 341.433 217.785 322.374 225 318L230 275L232 276L235.977 243.004L236.434 228.148L255 221L255 220L248 220L249 223C236.11 223 218.029 226.14 207.981 234.194C205.182 236.438 200.436 237.47 200 241L172 242L173 245L148 238.811L128 228L128 227L130 226L123 220L129 220L121 212L123 220C118.307 217.548 115.723 214.374 116 209L112 202L107 191z"/>
<path style="fill:#df6549; stroke:none;" d="M112 192C108.651 195.006 106.302 200.333 112 202C112.197 205.569 112.462 207.757 116 209C115.154 214.473 117.661 218.271 123 220L121 212L137 219L126.819 212.227L112 192z"/>
<path style="fill:#c99265; stroke:none;" d="M209 193L209 195L211 195L209 193z"/>
<path style="fill:#ab671e; stroke:none;" d="M246.333 193.667L246.667 194.333L246.333 193.667z"/>
<path style="fill:#a56155; stroke:none;" d="M278 194L277 204C279.389 200.639 280.585 197.484 278 194z"/>
<path style="fill:#ab671e; stroke:none;" d="M248 196L251 200L251 196L248 196z"/>
<path style="fill:#c99265; stroke:none;" d="M211 198L203 210L198 210L198 204L194 205L193 227L183 226L184 221L170 220L170 226C180.608 225.581 186.02 232.212 196 227C198.877 208.963 225.031 229.764 226 216L225 216L224 221C216.888 217.724 219.935 209.589 216 204L218 204L216 198L211 198M279 200L275 224L276 224L279 200z"/>
<path style="fill:#a23522; stroke:none;" d="M258 202C257.445 204.948 254.963 211.755 257.063 214.338C260.197 218.192 271.058 208.08 272 205L258 202z"/>
<path style="fill:#c99265; stroke:none;" d="M117.667 203.333L118.333 203.667L117.667 203.333z"/>
<path style="fill:#da9d2d; stroke:none;" d="M209 203L210 208L213 205L214 207L215 207L209 203z"/>
<path style="fill:#c99265; stroke:none;" d="M130 204L129 215L129 216L134 216L132 204L130 204z"/>
<path style="fill:#d7aca1; stroke:none;" d="M104 206C104.539 228.909 114.226 253.616 119.115 276C121.361 286.283 121.012 298.597 126 308L127 308C122.952 287.197 117.158 266.74 113.261 246C110.899 233.428 110.304 217.236 104 206z"/>
<path style="fill:#c99265; stroke:none;" d="M105 207L105 210L106 210L105 207z"/>
<path style="fill:#a56155; stroke:none;" d="M274 208L274 212L268 217L274 214C273.817 222.812 270.044 231.441 268.039 240C263.594 258.977 259.46 277.983 254.847 297C251.632 310.255 250.655 327.566 242.711 339.041C237.924 345.954 230.996 346.556 224 350L224 351C244.193 349.91 247.462 334.199 252.345 318C262.918 282.926 272.41 244.288 277 208L276 208L274 208z"/>
<path style="fill:#c99265; stroke:none;" d="M107 212L107 216L108 216L107 212M247 214L250 213L247 214z"/>
<path style="fill:#a56155; stroke:none;" d="M262 212L261 219L264 212L262 212M109 213L113 237L114 237C113.979 229.352 113.3 219.516 109 213z"/>
<path style="fill:#a23522; stroke:none;" d="M111 213L111 218L112 218L111 213z"/>
<path style="fill:#df6549; stroke:none;" d="M248.667 213.333L249.333 213.667L248.667 213.333M265 213L265 216L268 216L268 213L265 213z"/>
<path style="fill:#a23522; stroke:none;" d="M272 214C266.952 218.825 254.636 222.758 247.961 224.57C244.421 225.531 240.347 224.196 237.228 226.603C231.641 230.917 235.752 236.635 235.927 242.015C236.291 253.12 232 264.639 232 276L230 275C231.791 289.776 220.594 302.671 225 318C219.353 319.994 223.17 324.433 222.686 328.91C222.186 333.534 218.476 341.361 214.701 344.146C206.976 349.845 195.051 340.206 187 339C199.282 353.949 231.701 356.482 243.231 339.041C250.735 327.691 251.704 310.96 254.847 298C259.46 278.983 263.594 259.977 268.039 241C270.134 232.057 273.924 223.23 274 214L272 214z"/>
<path style="fill:#df6549; stroke:none;" d="M226 216L221 223L221 224L227 224L228 216L226 216z"/>
<path style="fill:#da4f2a; stroke:none;" d="M259 219L259 220L268 217L259 219z"/>
<path style="fill:#c99265; stroke:none;" d="M108 217C108.017 241.913 119.354 268.332 123.679 293C125.154 301.413 126.395 314.76 134 320C125.667 300.656 120.887 278.765 117.104 258C114.677 244.677 113.581 229.428 108 217z"/>
<path style="fill:#df6549; stroke:none;" d="M123 220L128 227L128 228C143.368 234.663 156.154 242.382 173 245L172 242C181.339 243.258 190.847 243.828 200 241C200.657 235.976 215.999 229.345 221 228C216.786 223.635 205.7 227.103 203 232L194 227L193 227L187 230L188 234C178.585 235.568 164.344 238.81 155.039 235.401C143.735 231.26 135.207 220.009 123 220M236 221L236 223L249 223C246.159 218.634 240.589 220.905 236 221z"/>
<path style="fill:#a56155; stroke:none;" d="M162 225L163 225L166 222L162 225z"/>
<path style="fill:#df6549; stroke:none;" d="M220.333 221.667L220.667 222.333L220.333 221.667z"/>
<path style="fill:#a23522; stroke:none;" d="M164 222L163 225L161 223C159.04 224.861 153.793 226.211 153.546 229.129C153.112 234.266 164.766 237.909 167.628 234.092C169.647 231.399 166.594 225.02 166 222L164 222z"/>
<path style="fill:#df6549; stroke:none;" d="M117 225L119 236L113 237L114 242L115 242L120 239L120 251C125.936 253.191 122.807 257.814 123.885 263.001C126.184 274.065 128.223 293.766 142 296L132 237L128 237L128 232L124 232L120 225L117 225z"/>
<path style="fill:#c99265; stroke:none;" d="M274 226L272 233L273 233L274 226z"/>
<path style="fill:#da4f2a; stroke:none;" d="M140 228C143.275 232.541 155.363 235.98 161 236C154.097 230.945 148.701 228.374 140 228z"/>
<path style="fill:#df6549; stroke:none;" d="M112 229L112 234L113 234L112 229z"/>
<path style="fill:#da4f2a; stroke:none;" d="M197 230L197 231L203 232L197 230z"/>
<path style="fill:#c99265; stroke:none;" d="M271 233L271 241L272 241L271 233z"/>
<path style="fill:#a56155; stroke:none;" d="M161 235L161 236L164 236L161 235z"/>
<path style="fill:#da4f2a; stroke:none;" d="M164 236L164 237L167 237L164 236z"/>
<path style="fill:#a56155; stroke:none;" d="M115 240C115.002 256.422 121.716 271.046 124.536 287C126.274 296.832 125.814 308.398 132.247 316.852C137.385 323.605 154.124 326.083 161.83 329.34C175.98 335.322 188.108 346.786 203 351.201C209.181 353.033 216.609 352 223 352L223 351C208.381 349.273 188.885 347.658 180 333L146 322L147 319C133.108 318.991 128.379 305.684 127 293L128 293L128 295L129 295L121 256L120 256L118 259L117 240L115 240z"/>
<path style="fill:#c99265; stroke:none;" d="M270 241L268 256L269 256L270 241z"/>
<path style="fill:#df6549; stroke:none;" d="M184 248L184 251L191 252L192 246L184 248z"/>
<path style="fill:#a23522; stroke:none;" d="M119 253L118 259L120 259L119 253z"/>
<path style="fill:#d7aca1; stroke:none;" d="M268 256L250 330L251 330L258.04 302L265.055 273L268 256z"/>
<path style="fill:#c99265; stroke:none;" d="M267 257L267 260L268 260L267 257z"/>
<path style="fill:#df6549; stroke:none;" d="M188 261L191 269L192 261L188 261z"/>
<path style="fill:#c99265; stroke:none;" d="M266 261L264 268L265 268L266 261z"/>
<path style="fill:#df6549; stroke:none;" d="M181 264L184 267L183 264L181 264z"/>
<path style="fill:#c99265; stroke:none;" d="M263 270L261 282L262 282L263 270z"/>
<path style="fill:#df6549; stroke:none;" d="M181 283C182.989 282.748 184.991 282.502 186.961 282.111C190.028 281.502 194.603 277.016 190.485 274.157C184.896 270.275 180.342 278.717 181 283M123 282L123 285L124 285L123 282z"/>
<path style="fill:#c99265; stroke:none;" d="M260 282L260 289L261 289L260 282z"/>
<path style="fill:#df6549; stroke:none;" d="M124 286L124 291L125 291L124 286M189 299C188.549 295.013 189.173 293.419 193 292C191.697 288.293 181.786 284.316 179.657 289.279C177.127 295.181 183.48 301.674 189 299z"/>
<path style="fill:#a23522; stroke:none;" d="M127 289L127 292L128 292L127 289z"/>
<path style="fill:#c99265; stroke:none;" d="M259.333 291.667L259.667 292.333L259.333 291.667z"/>
<path style="fill:#a23522; stroke:none;" d="M127 293C127.623 304.442 132.384 318.964 145 319L135.862 310.521L127 293z"/>
<path style="fill:#c99265; stroke:none;" d="M258 293L257 298L258 298L258 293M256 298L256 302L257 302L256 298z"/>
<path style="fill:#a9afbc; stroke:none;" d="M386 300C384.868 303.866 384.46 307.499 388 310L388 300L386 300z"/>
<path style="fill:#df6549; stroke:none;" d="M179 307L190 307C187.594 301.261 181.373 301.039 179 307z"/>
<path style="fill:#f8fcfd; stroke:none;" d="M0 306L0 428L175 428C173.44 423.3 169.346 424.003 165 424C163.864 420.118 160.696 420.118 157 420C155.712 415.597 148.843 414.243 145 412.037C133.629 405.509 120.422 393.375 107 392L107 389L79.5448 373.244L45 354.191L26 344L9.43056 323.546L2 306L0 306z"/>
<path style="fill:#c99265; stroke:none;" d="M255 306L255 310L256 310L255 306z"/>
<path style="fill:#a9afbc; stroke:none;" d="M5 307L5 314L7 314L7 307L5 307z"/>
<path style="fill:#d7aca1; stroke:none;" d="M127 309L128 315L129 315L127 309z"/>
<path style="fill:#c99265; stroke:none;" d="M254 310L254 313L255 313L254 310z"/>
<path style="fill:#f8fcfd; stroke:none;" d="M386 313C378.846 333.371 364.034 341.204 347 352.323C318.393 370.997 287.122 390.608 256.086 404.816C242.53 411.022 231.327 423.009 216 425L216 428L388 428L388 313L386 313z"/>
<path style="fill:#c99265; stroke:none;" d="M253 314L253 317L254 317L253 314z"/>
<path style="fill:#a9afbc; stroke:none;" d="M381 314L381 319L383 319L383 314L381 314z"/>
<path style="fill:#d7aca1; stroke:none;" d="M129 315L132 319L129 315z"/>
<path style="fill:#df6549; stroke:none;" d="M180 318C182.852 319.861 184.971 319.838 187 317L180 318z"/>
<path style="fill:#c99265; stroke:none;" d="M252 317L251 326L252 326L252 317z"/>
<path style="fill:#a9afbc; stroke:none;" d="M9 319L9 322L11 322L11 319L9 319z"/>
<path style="fill:#a23522; stroke:none;" d="M146 322L177 334C173.457 328.59 150.364 316.017 146 322z"/>
<path style="fill:#d7aca1; stroke:none;" d="M133 320L133 321L148 325L148 324L133 320z"/>
<path style="fill:#c99265; stroke:none;" d="M135 320L135 321L140 321L135 320M140 321L140 322L153 328C150.396 323.034 145.163 322.184 140 321z"/>
<path style="fill:#a9afbc; stroke:none;" d="M377 321L377 326L379 326L379 321L377 321M13 325L13 327L15 327L15 325L13 325z"/>
<path style="fill:#c99265; stroke:none;" d="M250.333 326.667L250.667 327.333L250.333 326.667z"/>
<path style="fill:#d7aca1; stroke:none;" d="M152 328L152 329L157 329L152 328z"/>
<path style="fill:#c99265; stroke:none;" d="M157 328L157 329L160 329L157 328M249 328L247 336L248 336L249 328z"/>
<path style="fill:#a9afbc; stroke:none;" d="M368 336C372.629 335.224 374.792 332.421 376 328C371.828 329.235 369.235 331.828 368 336z"/>
<path style="fill:#d7aca1; stroke:none;" d="M158 329L167 333L158 329z"/>
<path style="fill:#c99265; stroke:none;" d="M161 329L164 331L161 329M164.667 331.333L165.333 331.667L164.667 331.333z"/>
<path style="fill:#d7aca1; stroke:none;" d="M249.333 331.667L249.667 332.333L249.333 331.667M168 333C170.102 339.159 179.296 341.971 185 344L168 333M248 333L237 348L237 349C242.806 347.346 250.618 339.421 248 333z"/>
<path style="fill:#c99265; stroke:none;" d="M169 334L172 336L169 334z"/>
<path style="fill:#a23522; stroke:none;" d="M180 334L185 337L185 336L180 334z"/>
<path style="fill:#c99265; stroke:none;" d="M172 336L172 337L175 337L172 336M175 337L187 344L175 337z"/>
<path style="fill:#a9afbc; stroke:none;" d="M365 337L365 339L367 339L367 337L365 337M29 341L29 343L32 343L32 341L29 341M358 343L361 341L358 343M33 344L39 348C37.9011 344.679 36.4098 344.263 33 344z"/>
<path style="fill:#c99265; stroke:none;" d="M187 344C190.795 348.316 198.321 351.257 204 352L204 351L187 344M239 345L239 347L241 345L239 345z"/>
<path style="fill:#a9afbc; stroke:none;" d="M351 346L351 347L355 345L351 346z"/>
<path style="fill:#d7aca1; stroke:none;" d="M189.667 347.333L190.333 347.667L189.667 347.333M192 348L192 349L195 349L192 348z"/>
<path style="fill:#c99265; stroke:none;" d="M229 350L229 351L237 349L229 350z"/>
<path style="fill:#a9afbc; stroke:none;" d="M41 349L41 351L46 351L46 349L41 349z"/>
<path style="fill:#d7aca1; stroke:none;" d="M195 349L195 350L200 352L200 351L195 349M232 351L235 349L232 351z"/>
<path style="fill:#a9afbc; stroke:none;" d="M344 352L348 349L344 352z"/>
<path style="fill:#c99265; stroke:none;" d="M223 351L223 352L228 352L223 351z"/>
<path style="fill:#d7aca1; stroke:none;" d="M218 352L218 353L231 352L218 352M200 352L200 353L217 354L200 352z"/>
<path style="fill:#c99265; stroke:none;" d="M206 352L206 353L218 353L206 352z"/>
<path style="fill:#a9afbc; stroke:none;" d="M335 356C338.696 355.882 341.864 355.882 343 352L335 356M48 353L48 354L52 355L48 353M56 357L56 359L60 359L60 357L56 357M330 360L336 357L330 360M61 360L67 364L61 360M325 361L325 363L328 363L328 361L325 361M69 365L69 367L73 367L73 365L69 365M317 365L317 367L320 367L320 365L317 365M309 372L314 369C311.007 369.064 309.654 368.946 309 372M281 388C286.138 387.533 292.219 385.19 294 380C299.299 379.829 306.072 377.316 308 372C301.247 373.076 283.262 381.54 281 388M84 373L84 375L87 375L87 373L84 373M90 377L95 380C94.3456 376.946 92.9934 377.064 90 377M97 381L97 383L101 383L101 381L97 381M103 384C104.99 390.036 116.928 395.448 123 396L123 393L103 384M275 390L275 391L279 389L275 390M260 400C265.156 399.716 271.307 397.184 273 392C268.333 392.718 262.287 395.829 260 400M125 397L125 399L129 399L129 397L125 397M132 401L136 404L132 401M254 401L254 403L259 403L259 401L254 401M138 405L143 408C142.346 404.946 140.993 405.064 138 405M247 405L247 407L251 407L251 405L247 405M145 409L145 411L150 411L150 409L145 409M240 409L240 412L244 412L244 409L240 409M152 413L155 415L152 413M233 416L239 413C235.806 413.013 233.729 412.597 233 416M160.667 417.333L161.333 417.667L160.667 417.333M226 418L226 419L232 419L232 417L226 418M168.667 421.333L169.333 421.667L168.667 421.333M219 421L219 423L222 423L222 421L219 421M203 427L203 428L212 428L212 426L203 427M179 427L179 428L184 428L179 427z"/>
</svg>
