<?xml version="1.0" standalone="yes"?>
<svg xmlns="http://www.w3.org/2000/svg" width="388" height="428">
<path style="fill:#f9fefe; stroke:none;" d="M0 0L0 126L3 126C3.18572 103.86 27.4685 89.2589 43.5795 78.4352C50.1364 74.0301 57.9047 67.5874 66 67C68.5817 62.5356 74.3775 61.0705 78.5764 58.2408C89.9016 50.6086 107.597 37.583 121 35C125.616 27.0524 141.102 21.6955 149 16.9861C157.626 11.843 167.057 6.0267 177 3.86188C217.782 -5.01736 255.008 25.1487 287.845 44.5795C299.988 51.7648 316.857 66.4028 331 68L342.884 75.8009L364.588 89.3518L377 99L377 104C381.948 106.701 384.822 113.504 385 119L388 119L388 0L0 0z"/>
<path style="fill:#c6ceda; stroke:none;" d="M121 35C107.7 36.4431 88.8141 50.8167 77.7184 58.2408C73.7744 60.8796 67.6328 62.3257 66 67C57.4082 67.2744 49.6296 73.8031 42.7292 78.4352C26.3058 89.4597 3.06193 103.558 3 126L0 126C0.29793 129.968 2.62274 133.068 2.94213 137.004C6.0613 175.442 3 215.421 3 254C3 266.993 3.23381 280.01 2.99537 293C2.92475 296.848 -0.250702 301.203 0.602623 304.754C4.7613 322.058 18.2503 329.569 26 344L41 352.572L79.5448 373.72L107 389L107 392C120.061 395.059 131.662 404.686 143 411.424C147.442 414.063 154.293 415.57 157 420L165 424L175 425L175 428L216 428L216 425C237.618 423.277 261.324 402.079 280.015 391.754C302.821 379.155 326.141 366.627 347.925 352.323C360.231 344.244 371.699 339.148 380.088 326.41C392.164 308.073 388 283.232 388 262L388 166C388 150.548 386.213 134.079 388 119L385 119C384.935 113.53 382.648 105.862 377 104L377 99L344.579 76.3572L331 68C318.785 65.5276 305.517 54.5332 294.845 48.2053C250.754 22.062 202.322 -16.3011 151 15.1536C143.595 19.692 123.874 26.7885 121 35z"/>
<path style="fill:#f9fefe; stroke:none;" d="M9 316C12.649 318.23 13.5787 322.706 16.1821 326.08C20.7089 331.948 25.8057 336.346 32 340.326C50.3181 352.099 69.9386 363.412 89.1736 373.617C96.7348 377.628 112.996 383.554 117 391L124 395C134.111 396.537 144.487 405.815 153.285 410.831C170.851 420.846 188.231 427.803 208.961 423.66C225.117 420.431 240.099 408.408 254.09 400.154C275.878 387.3 298.107 375.135 319.996 362.595C330.934 356.329 343.391 344.998 356 343C358.503 338.848 363.681 337.272 367.12 333.803C374.187 326.677 379.67 317.351 382.871 307.83C388.802 290.188 385 266.404 385 248C385 205.566 384.816 163.29 383 121L373.505 105.59L356 89C350.118 87.5189 339.043 82.2672 336 77C329.903 75.766 318.236 70.314 315 65L301 57C292.339 54.6213 271.627 44.5816 267 37C258.131 35.2048 237.728 24.822 233 17L225 13C207.962 9.92712 194.023 4.65509 176.09 9.41125C159.304 13.8629 144.022 27.0073 129.004 35.2654C107.98 46.826 87.5454 59.2247 66.7145 71.1891C39.8842 86.5992 14.9775 97.3358 5.49537 129.285C1.02377 144.352 5 166.258 5 182C5 220.604 3.81633 259.416 5.01543 297.999C5.21388 304.385 8.94448 309.381 9 316z"/>
<path style="fill:#d5b9a1; stroke:none;" d="M229 13L229 15L231 15L231 13L229 13z"/>
<path style="fill:#a9a2a0; stroke:none;" d="M151 17L151 19L155 19L155 17L151 17M144 21L144 23L147 23L147 21L144 21M139.333 25.6667L139.667 26.3333L139.333 25.6667M250 25L250 27L252 27L252 25L250 25z"/>
<path style="fill:#d5b9a1; stroke:none;" d="M252.333 25.6667L252.667 26.3333L252.333 25.6667M256.333 29.6667L256.667 30.3333L256.333 29.6667z"/>
<path style="fill:#a9a2a0; stroke:none;" d="M257 29L257 31L259 31L259 29L257 29z"/>
<path style="fill:#d5b9a1; stroke:none;" d="M259.333 29.6667L259.667 30.3333L259.333 29.6667z"/>
<path style="fill:#a9a2a0; stroke:none;" d="M277 41L277 43L279 43L279 41L277 41z"/>
<path style="fill:#d5b9a1; stroke:none;" d="M325.667 69.3333L326.333 69.6667L325.667 69.3333z"/>
<path style="fill:#a9a2a0; stroke:none;" d="M365 93L365 95L367 95L367 93L365 93M369 97L369 99L372 99L372 97L369 97M373 101L373 104L375 104L375 101L373 101M381.333 114.667L381.667 115.333L381.333 114.667z"/>
<path style="fill:#c6ceda; stroke:none;" d="M216 118L216 119L232 133C226.027 127.417 225.094 118.832 216 118M249 121L267 121C263.174 116.269 252.983 116.932 249 121M197 128L215 120C209.09 117.951 200.669 123.601 197 128z"/>
<path style="fill:#d5b9a1; stroke:none;" d="M215 119L215 120C223.583 121.747 222.004 130.333 228.44 133.914C232.496 136.171 248.172 124.25 251 121L229.874 131.477L215 119M252 119L252 120L270 124C264.338 119.254 259.129 119 252 119M157 151L157 152C176.432 146.79 196.463 130.852 214 121C207.47 119.907 198.937 127.013 193.715 130.495C182.107 138.233 168.688 143.128 157 151z"/>
<path style="fill:#a9a2a0; stroke:none;" d="M212 121L212 122C217.117 121.173 220.15 121.858 222 127C223.705 120.565 216.598 119.947 212 121M252 120L252 121L263 121L252 120z"/>
<path style="fill:#b98357; stroke:none;" d="M203 131L215 126L215 125L213 124L219 122C213.056 119.774 205.657 126.03 203 131z"/>
<path style="fill:#c3945e; stroke:none;" d="M247 124L247 125L253 121L247 124z"/>
<path style="fill:#a27b56; stroke:none;" d="M252 124L263 122L261 128L266 129L266 128L264 126L273 130L272 133C276.424 135.234 278.493 137.245 280 142C283.558 131.721 258.826 113.471 252 124z"/>
<path style="fill:#c3945e; stroke:none;" d="M264.333 121.667L264.667 122.333L264.333 121.667M210 124L213 122L210 124z"/>
<path style="fill:#a27b56; stroke:none;" d="M215 125L215 126C211.065 126.047 208.343 125.954 207 130L208 130C212.23 125.68 217.83 126.809 223 129C221.167 120.422 213.584 123.935 215 125z"/>
<path style="fill:#b98357; stroke:none;" d="M220.333 122.667L220.667 123.333L220.333 122.667z"/>
<path style="fill:#c6ceda; stroke:none;" d="M242 125L247 123L242 125z"/>
<path style="fill:#99684b; stroke:none;" d="M229 138L229 139C235.934 140.841 261.733 129.384 263 122C248.384 122.011 241.718 134.248 229 138z"/>
<path style="fill:#c6ceda; stroke:none;" d="M267 122L267 123L272 124L267 122z"/>
<path style="fill:#a9a2a0; stroke:none;" d="M265.667 123.333L266.333 123.667L265.667 123.333z"/>
<path style="fill:#d5b9a1; stroke:none;" d="M387 123L386 128L387 128L387 123z"/>
<path style="fill:#dea464; stroke:none;" d="M206.667 124.333L207.333 124.667L206.667 124.333z"/>
<path style="fill:#c3945e; stroke:none;" d="M208.667 124.333L209.333 124.667L208.667 124.333z"/>
<path style="fill:#a27b56; stroke:none;" d="M248 126L251 124L248 126z"/>
<path style="fill:#b98357; stroke:none;" d="M265 124L265 125L268 125L265 124z"/>
<path style="fill:#a9a2a0; stroke:none;" d="M268 124L268 125L273 127L268 124z"/>
<path style="fill:#d5b9a1; stroke:none;" d="M271.667 124.333L272.333 124.667L271.667 124.333z"/>
<path style="fill:#c6ceda; stroke:none;" d="M273 124L279 130L273 124z"/>
<path style="fill:#c3945e; stroke:none;" d="M204 128L207 125L204 128M243 128L246 125L243 128z"/>
<path style="fill:#b98357; stroke:none;" d="M246.667 125.333L247.333 125.667L246.667 125.333z"/>
<path style="fill:#a9a2a0; stroke:none;" d="M387 125L387 128L388 128L387 125z"/>
<path style="fill:#c3945e; stroke:none;" d="M223.333 126.667L223.667 127.333L223.333 126.667z"/>
<path style="fill:#c6ceda; stroke:none;" d="M235 130L240 127L235 130z"/>
<path style="fill:#a27b56; stroke:none;" d="M243 129L247 126L243 129z"/>
<path style="fill:#99684b; stroke:none;" d="M264 126L269 129L269 133L273 132C271.005 127.635 268.77 126.158 264 126z"/>
<path style="fill:#d5b9a1; stroke:none;" d="M273 126L276 129L273 126z"/>
<path style="fill:#dea464; stroke:none;" d="M201 129L204 127L201 129z"/>
<path style="fill:#99684b; stroke:none;" d="M173 150C177.908 147.765 183.931 146.068 188.447 143.233C199.389 136.364 219.22 118.567 224 140C227.413 131.234 219.222 125.332 211.09 127.303C207.218 128.241 204.537 131.847 200.999 133.559C193.114 137.374 177.773 142.314 173 150z"/>
<path style="fill:#dea464; stroke:none;" d="M241.667 127.333L242.333 127.667L241.667 127.333z"/>
<path style="fill:#985931; stroke:none;" d="M248 130L252 127L248 130z"/>
<path style="fill:#bf7844; stroke:none;" d="M231 138L231 137L225 135L225 140L208.985 149.985L184.996 163.867L173 172C164.301 173.312 155.965 180.044 148 183.711C130.845 191.608 111.098 198.871 95.4213 209.481C88.5466 214.133 84.415 227.804 93 233L93 217L97 219L113 228C114.036 234.793 122.065 250.255 128 254L131 233L128 229L133 232L136 232C140.382 226.91 144.85 227.877 151 228L149 219L152 222C157.501 218.866 165.492 212.578 166 206L173 207C172.453 197.97 183.325 195.06 191 194L191 198L192 198L192 196L193 196L195 205L196 205C194.096 194.745 188.329 168.932 202 165L205 162L205 157C215.945 156.645 222.412 144.791 233.985 143.15C238.822 142.465 244.242 138.583 244 146L259 149C260.962 155.706 274.255 155 280 155L282 143L279 141L276 142C274.871 135.871 275.057 135.386 270.167 132.5C267.012 130.638 265.147 127.737 261 127.333C251.227 126.383 241.52 138.307 233 139.833C231.134 140.168 229.31 139.056 231 138M206.333 128.667L206.667 129.333L206.333 128.667z"/>
<path style="fill:#b98357; stroke:none;" d="M223.333 128.667L223.667 129.333L223.333 128.667z"/>
<path style="fill:#dea464; stroke:none;" d="M224 128L224 131L225 131L224 128z"/>
<path style="fill:#c3945e; stroke:none;" d="M235 133L241 128L235 133z"/>
<path style="fill:#b98357; stroke:none;" d="M241.667 128.333L242.333 128.667L241.667 128.333z"/>
<path style="fill:#dea464; stroke:none;" d="M196 132L199 129L196 132z"/>
<path style="fill:#c3945e; stroke:none;" d="M176 143L176 144L204 130C195.597 126.852 183.126 139.31 176 143z"/>
<path style="fill:#985931; stroke:none;" d="M189 144L219 133C218.689 145.253 200.218 150.322 191.286 155.376C188.156 157.147 185.952 160.129 182.83 161.904C178.494 164.369 172.85 164.822 171 170C161.884 170.22 154.762 176.672 147.001 180.816C135.242 187.094 122.969 193.203 111.025 199.049C102.912 203.02 93.7333 204.767 87.9684 212.545C81.5109 221.257 85.7124 226.948 86 236L83 236L83 231C70.975 226.823 72.7918 211.088 73 201L113.285 183.289L188 145L188 144C174.069 145.711 159.646 157.392 148 164.676C144.173 167.07 137.314 167.51 136 172C118.243 174.364 103.557 188.068 87 193.619C80.1987 195.899 70.2477 198.245 69.4992 207.001C68.5761 217.798 74.9355 232.474 80.0123 241.575C82.6534 246.309 86.5687 248.185 87 254L91 254L102 269L107 272C114.127 271.745 124.697 275.508 125 264L124 264C115.182 282.153 95.4406 256.737 90 248C100.506 250.87 115.064 273.395 121 254L123 254L125 263L126 263C125.917 252.968 118.783 234.509 110 229L112 235C103.696 233.179 104.027 236.29 105 244C96.2015 239.94 90.5119 221.479 105 224L105 223C92.1332 217.85 94.4019 233.212 96 241L92 241C90.7068 232.673 84.736 224.632 89.1636 216.09C94.4282 205.934 108.622 204.029 117.715 199.02C143.671 184.723 169.995 171.949 195.439 156.755C203.419 151.989 217.857 147.677 222.922 139.406C226.936 132.851 217.905 128.645 213.004 129.059C206.289 129.625 191.671 137.757 189 144z"/>
<path style="fill:#a27b56; stroke:none;" d="M240.667 129.333L241.333 129.667L240.667 129.333M267.667 129.333L268.333 129.667L267.667 129.333z"/>
<path style="fill:#c3945e; stroke:none;" d="M275.333 129.667L275.667 130.333L275.333 129.667z"/>
<path style="fill:#a9a2a0; stroke:none;" d="M276.333 129.667L276.667 130.333L276.333 129.667z"/>
<path style="fill:#c6ceda; stroke:none;" d="M179 138L195 131C190.895 129.505 180.264 133.674 179 138z"/>
<path style="fill:#a27b56; stroke:none;" d="M223.333 130.667L223.667 131.333L223.333 130.667z"/>
<path style="fill:#bf7844; stroke:none;" d="M238 133L241 130L238 133z"/>
<path style="fill:#d5b9a1; stroke:none;" d="M277 130L277 132L279 132L279 130L277 130z"/>
<path style="fill:#a9a2a0; stroke:none;" d="M0 131L0 301C3.82894 298.518 2.99973 294.206 3 290L3 261L3 173C3 159.996 5.68744 143.475 2 131L0 131z"/>
<path style="fill:#b98357; stroke:none;" d="M194 133L194 134L202 132L194 133z"/>
<path style="fill:#bf7844; stroke:none;" d="M202 131L202 132L205 132L202 131z"/>
<path style="fill:#b98357; stroke:none;" d="M224 131L229 137L229 136L224 131z"/>
<path style="fill:#c3945e; stroke:none;" d="M225 131L232 137L232 136L225 131z"/>
<path style="fill:#985931; stroke:none;" d="M241 133L244 131L241 133z"/>
<path style="fill:#b98357; stroke:none;" d="M276 131L278 134L276 131z"/>
<path style="fill:#c6ceda; stroke:none;" d="M279 131L284 136L279 131z"/>
<path style="fill:#a27b56; stroke:none;" d="M201 134L204 133L201 134z"/>
<path style="fill:#dea464; stroke:none;" d="M233.667 132.333L234.333 132.667L233.667 132.333z"/>
<path style="fill:#b98357; stroke:none;" d="M234 133L234 134L238 133L234 133z"/>
<path style="fill:#c3945e; stroke:none;" d="M278 132L278 134L280 134L280 132L278 132z"/>
<path style="fill:#bf7844; stroke:none;" d="M199 133L199 135L201 133L199 133z"/>
<path style="fill:#874420; stroke:none;" d="M73 201C72.5925 210.492 70.484 228.419 83 231L83 236L86 236C85.8958 227.116 82.2275 221.859 87.9684 213.299C93.2259 205.459 103.019 203.08 111.025 199.477C123.321 193.942 136.043 187.178 148 180.816C155.384 176.886 162.373 170.467 171 170C173.859 165.183 179.162 164.568 183.714 161.904C191.585 157.296 198.991 151.944 207.09 147.424C213.084 144.079 219.871 140.785 219 133C191.903 139.111 169.195 155.64 144.83 169.117C122.224 181.622 96.8623 191.286 73 201z"/>
<path style="fill:#a27b56; stroke:none;" d="M224.333 133.667L224.667 134.333L224.333 133.667z"/>
<path style="fill:#c3945e; stroke:none;" d="M232 133L232 135L234 133L232 133z"/>
<path style="fill:#b98357; stroke:none;" d="M257 133L257 135L260 135L260 133L257 133z"/>
<path style="fill:#d5b9a1; stroke:none;" d="M280 133C282.321 141.26 290.261 149.391 286.397 158.892C282.46 168.576 266.065 172.902 268 184L275 182L276 178L278 180L282 177C282.926 184.33 281.577 193.881 287.684 199.287C295.472 206.18 312.602 206.009 317 217C321.655 214.97 324.493 214.239 326 220L319 219L317 225L317 227L323 227C323.963 236.371 318.49 262.813 308 265L306 275L297 280L297 281C318.988 274.759 320.456 253.969 324.299 236C325.792 229.023 331.454 221.178 325.486 214.343C316.167 203.672 291.154 203.444 285.6 188.946C282.259 180.228 287.668 167.844 288.715 159C289.701 150.658 286.65 143.929 285 136L280 133z"/>
<path style="fill:#a27b56; stroke:none;" d="M192 137L199 135C195.883 133.737 193.829 134.176 192 137M233 134L231 138L235 134L233 134z"/>
<path style="fill:#b98357; stroke:none;" d="M279.333 134.667L279.667 135.333L279.333 134.667z"/>
<path style="fill:#dea464; stroke:none;" d="M229 135L229 136L232 136L229 135z"/>
<path style="fill:#99684b; stroke:none;" d="M275 135L276 142L279 143C280.155 139.187 278.761 136.236 275 135z"/>
<path style="fill:#b98357; stroke:none;" d="M190.667 136.333L191.333 136.667L190.667 136.333M280 136L280 155L275 155L275 156L282 156L283 156L286 159L286 152L283 152C283 146.415 283.866 140.446 280 136z"/>
<path style="fill:#a9a2a0; stroke:none;" d="M183 137L183 138L186 138L183 137z"/>
<path style="fill:#a27b56; stroke:none;" d="M175 146L175 147C180.965 145.503 187.881 142.471 191 137L175 146z"/>
<path style="fill:#c6ceda; stroke:none;" d="M285 137L288 149L289 149L285 137z"/>
<path style="fill:#c3945e; stroke:none;" d="M282 138L283 152L286 152L286 159L283 156L282 156L260 152L260 153L286 162C287.472 154.072 287.251 144.595 282 138z"/>
<path style="fill:#dea464; stroke:none;" d="M283.333 138.667L283.667 139.333L283.333 138.667z"/>
<path style="fill:#c6ceda; stroke:none;" d="M176 139L176 140L179 140L176 139z"/>
<path style="fill:#dea464; stroke:none;" d="M180 139L180 141L182 139L180 139z"/>
<path style="fill:#b98357; stroke:none;" d="M181 142L181 143L187 139L181 142z"/>
<path style="fill:#c3945e; stroke:none;" d="M239 144L223 146L223 147L237 145.647L259 151L259 150C251.476 149.994 244.664 148.784 244 140L239 144z"/>
<path style="fill:#dea464; stroke:none;" d="M174 143L174 144L180 142L174 143z"/>
<path style="fill:#b98357; stroke:none;" d="M244 141L244 144L245 144L244 141z"/>
<path style="fill:#99684b; stroke:none;" d="M218 142L218 144L220 142L218 142z"/>
<path style="fill:#c6ceda; stroke:none;" d="M162 146L162 147L171 144L162 146z"/>
<path style="fill:#b98357; stroke:none;" d="M178.667 143.333L179.333 143.667L178.667 143.333M231 143L231 144L239 144L231 143z"/>
<path style="fill:#dea464; stroke:none;" d="M171 144L171 146L173 144L171 144z"/>
<path style="fill:#c3945e; stroke:none;" d="M173.667 144.333L174.333 144.667L173.667 144.333z"/>
<path style="fill:#b98357; stroke:none;" d="M164 149L164 150L178 145L164 149M224 145L224 146L231 145L224 145z"/>
<path style="fill:#dea464; stroke:none;" d="M285 144L285 147L286 147L285 144z"/>
<path style="fill:#a9a2a0; stroke:none;" d="M168 147L171 145L168 147z"/>
<path style="fill:#dea464; stroke:none;" d="M201 186C204.29 179.551 215.225 184.637 221 186.845C232.421 191.211 246.011 191.698 256.91 197.16C261.081 199.251 263.273 203.549 267 206L273.968 198.59L274.654 189.914L282 177L276 178L275 182L268 184C267.186 175.36 272.591 176.644 277.401 171.452C280.323 168.298 279.626 165.015 284 163C275.26 153.921 260.374 153.392 249 150.581C239.209 148.162 231.848 141.845 221.425 148.495C214.06 153.195 201.272 164.833 197 172.289C194.146 177.27 195.296 184.051 201 186z"/>
<path style="fill:#bf7844; stroke:none;" d="M173.667 146.333L174.333 146.667L173.667 146.333z"/>
<path style="fill:#b98357; stroke:none;" d="M221.667 146.333L222.333 146.667L221.667 146.333M245 146L248 148L245 146z"/>
<path style="fill:#c6ceda; stroke:none;" d="M160 147L160 149L162 147L160 147z"/>
<path style="fill:#c3945e; stroke:none;" d="M167 147L167 148L170 148L167 147z"/>
<path style="fill:#a27b56; stroke:none;" d="M163 150L163 153L156 157L174 147L163 150z"/>
<path style="fill:#99684b; stroke:none;" d="M212.667 147.333L213.333 147.667L212.667 147.333z"/>
<path style="fill:#c3945e; stroke:none;" d="M220 147L219 151L220 151L222 147L220 147z"/>
<path style="fill:#dea464; stroke:none;" d="M286.333 147.667L286.667 148.333L286.333 147.667z"/>
<path style="fill:#a9a2a0; stroke:none;" d="M163.667 148.333L164.333 148.667L163.667 148.333z"/>
<path style="fill:#c3945e; stroke:none;" d="M165.667 148.333L166.333 148.667L165.667 148.333z"/>
<path style="fill:#99684b; stroke:none;" d="M205 151L205 152L211 148L205 151z"/>
<path style="fill:#b98357; stroke:none;" d="M248 148L248 149L259 150L259 149L248 148z"/>
<path style="fill:#c3945e; stroke:none;" d="M162 149L162 151L164 149L162 149z"/>
<path style="fill:#c6ceda; stroke:none;" d="M127 166L159 151C152.556 148.398 130.533 160.38 127 166z"/>
<path style="fill:#a9a2a0; stroke:none;" d="M160 150L154 155L162 150L160 150z"/>
<path style="fill:#d5b9a1; stroke:none;" d="M224 150L224 152L228 152L228 150L224 150z"/>
<path style="fill:#b98357; stroke:none;" d="M160 153L163 151L160 153z"/>
<path style="fill:#99684b; stroke:none;" d="M157 159L172 152C166.86 149.928 158.984 154.013 157 159z"/>
<path style="fill:#b98357; stroke:none;" d="M215 151L215 152L218 152L215 151z"/>
<path style="fill:#c6ceda; stroke:none;" d="M289 151C288.973 160.681 278.819 187.386 289 193C282.47 180.124 294.442 163.97 289 151z"/>
<path style="fill:#d5b9a1; stroke:none;" d="M153 152C147.882 157.917 136.217 161.476 129 164.556C114.468 170.757 99.8039 178.714 85.8657 186.333C80.8501 189.075 68.7134 190.142 67 196C60.7099 197.05 62.3411 201.945 62.8302 207C63.8313 217.344 67.1596 227.297 71 237L72 237L64 197C78.5735 196.03 93.3683 184.474 106.09 178.081C122.581 169.794 140.549 163.503 156 153L153 152z"/>
<path style="fill:#99684b; stroke:none;" d="M203.667 152.333L204.333 152.667L203.667 152.333z"/>
<path style="fill:#c3945e; stroke:none;" d="M214 152C210.081 158.22 204.641 164.979 197 166C190.971 182.845 202.732 201.529 193 217L197 217L190 232C198.327 231.731 199.969 240.621 198 247C208.736 246.097 213.713 248.044 223 253C224.928 249.502 227.122 249.125 231 249L228 252L228 256C224.229 257.19 223.431 259.172 223 263L208.025 268.204L172 248L162 236L161 236C162.429 245.414 170.69 253.398 158 259L158 260L165 260C165.001 268.995 166.198 277.212 171 285L172 285L172 276L171 276L171 278L170 278C168.937 273.298 163.325 264.242 172 265L172 260L177 256L169 255L170 251C175.83 253.092 180.852 254.085 184 260C178.967 260.577 173.392 265.971 179 270C178.058 261.563 185.257 265.035 191 263C192.272 271.263 208.793 289.615 193 288L201 292L203 300L200 300L200 296L193 297L193 301L189 300L189 301C201.497 306.83 204.974 309.75 219 306L219 305L209 306L209 304C214.568 303.072 218.347 294.483 213 291C215.85 281.705 214.07 268.797 225 265C226.166 260.093 229.565 254.508 234 252C232.868 244.903 227.545 246.806 222 245.275C214.907 243.318 204.769 239.064 202 232C210.536 227.009 200.368 219.788 202.147 213.17C203.56 207.917 210.392 206.782 211.995 202.451C212.898 200.015 210.701 198.933 209 198L208 201L205 201L204.448 191.451L212.996 192.51L235 194L237 205C240.576 203.563 240.877 201.714 241 198L242.312 212.995L252 227L245 229L245 231C256.054 235.944 243.826 240.21 241 246C246.48 244.879 251.816 242.749 253 250L258 250L285 212L295 212L298 223C293.911 223.308 291.865 224.3 290 228L294 229L294 230L291 230L287.681 268L285 283C298.682 286.997 297.181 272.046 307 270C306.853 265.145 303.331 260.87 307 257C307.3 260.864 308.089 262.348 312 263L308 252L312 248L317 249L323 229C319.95 229.516 311.742 234.947 310.155 237.599C308.13 240.982 311.9 245.561 306.81 247.927C301.913 250.204 287.975 244.268 296 239L294 233L311 226L313 219L319 219L312 212L312 215L311 215L310 215C305.207 206.833 294.209 202.278 285 202C283.495 212.891 279.918 211.635 272 209L275 221L267 219L263 227L271 224L263 239L258 221C263.115 218.364 266.256 213.683 267 208C279.866 205.891 282 190.649 282 180C273.807 185.378 277.302 191.401 273.918 197.791C272.031 201.353 268.268 201.783 267 206C253.942 193.261 236.365 190.917 219 185.683C213.347 183.979 203.228 178.663 201 186C184.305 176.525 212.249 160.988 216 152L214 152z"/>
<path style="fill:#b98357; stroke:none;" d="M156 153L156 155L158 153L156 153z"/>
<path style="fill:#c3945e; stroke:none;" d="M155 154L126 168L126 169L149.134 159.588L155 154z"/>
<path style="fill:#99684b; stroke:none;" d="M196 155L196 156L199 156L196 155z"/>
<path style="fill:#dea464; stroke:none;" d="M143 160L143 161L150 156L143 160z"/>
<path style="fill:#b98357; stroke:none;" d="M151 157L151 158L154 158L151 157z"/>
<path style="fill:#bf7844; stroke:none;" d="M139 166L139 167C144.26 166.311 155.175 162.21 157 157L139 166z"/>
<path style="fill:#b98357; stroke:none;" d="M205 157L202 165L211 158L205 157z"/>
<path style="fill:#a9a2a0; stroke:none;" d="M286.333 159.667L286.667 160.333L286.333 159.667z"/>
<path style="fill:#b98357; stroke:none;" d="M147 160L147 162L149 160L147 160z"/>
<path style="fill:#dea464; stroke:none;" d="M140.667 161.333L141.333 161.667L140.667 161.333z"/>
<path style="fill:#99684b; stroke:none;" d="M137 168L137 169L154 162L137 168z"/>
<path style="fill:#c3945e; stroke:none;" d="M260 161L260 163L262 163L262 161L260 161z"/>
<path style="fill:#b98357; stroke:none;" d="M139 165L139 166L147 163L139 165z"/>
<path style="fill:#dea464; stroke:none;" d="M135 164L135 165L138 165L135 164z"/>
<path style="fill:#99684b; stroke:none;" d="M181 165L181 166L185 165L181 165z"/>
<path style="fill:#dea464; stroke:none;" d="M130.667 165.333L131.333 165.667L130.667 165.333z"/>
<path style="fill:#b98357; stroke:none;" d="M198 165L198 166L202 166L198 165M124 172L139 167C134.447 165.276 126.517 167.884 124 172z"/>
<path style="fill:#99684b; stroke:none;" d="M178.667 166.333L179.333 166.667L178.667 166.333z"/>
<path style="fill:#a27b56; stroke:none;" d="M136 167L136 169L138 167L136 167z"/>
<path style="fill:#b98357; stroke:none;" d="M196.333 167.667L196.667 168.333L196.333 167.667z"/>
<path style="fill:#bf7844; stroke:none;" d="M131 169L131 170L136 168L131 169z"/>
<path style="fill:#c6ceda; stroke:none;" d="M113 171L113 172L122 170L113 171z"/>
<path style="fill:#dea464; stroke:none;" d="M123 169L121 171L121 172L125 169L123 169z"/>
<path style="fill:#a27b56; stroke:none;" d="M115 177L115 178C119.287 177.189 125.688 175.503 127 171L134 171C127.399 168.238 120.735 174.054 115 177z"/>
<path style="fill:#99684b; stroke:none;" d="M127 171L111 180L111 181C118.22 179.491 131.442 176.109 136 170L127 171M172.333 170.667L172.667 171.333L172.333 170.667z"/>
<path style="fill:#c3945e; stroke:none;" d="M123 171L112 176L112 177C115.08 176.363 123.614 174.726 123 171z"/>
<path style="fill:#b98357; stroke:none;" d="M187 171L191 176L191 175L188 175L188 172L191 172L187 171z"/>
<path style="fill:#c6ceda; stroke:none;" d="M104 177L113 173C109.314 172.238 106.039 173.913 104 177z"/>
<path style="fill:#c3945e; stroke:none;" d="M188 172L188 175L191 175L191 172L188 172z"/>
<path style="fill:#b98357; stroke:none;" d="M118 174L118 175L122 175L118 174z"/>
<path style="fill:#d5b9a1; stroke:none;" d="M203 174C199.406 175.377 197.659 176.046 197 180L204 178L203 174z"/>
<path style="fill:#99684b; stroke:none;" d="M163 175L163 176L166 176L163 175z"/>
<path style="fill:#dea464; stroke:none;" d="M110.667 176.333L111.333 176.667L110.667 176.333z"/>
<path style="fill:#b98357; stroke:none;" d="M111 179L116 177L111 179z"/>
<path style="fill:#99684b; stroke:none;" d="M160.667 176.333L161.333 176.667L160.667 176.333z"/>
<path style="fill:#b98357; stroke:none;" d="M193 176C193.008 187.415 201.626 208.891 190 216L190 217C202.488 213.453 196.924 185.096 193 176z"/>
<path style="fill:#a9a2a0; stroke:none;" d="M103 181L108 178L103 181z"/>
<path style="fill:#c3945e; stroke:none;" d="M64 208L65 208L66 199C77.1849 198.225 90.5593 188.653 100.09 183.283C103.846 181.167 108.282 180.529 111 177L75.5756 193.755L65.858 198.549L64 208z"/>
<path style="fill:#a27b56; stroke:none;" d="M112.667 178.333L113.333 178.667L112.667 178.333z"/>
<path style="fill:#99684b; stroke:none;" d="M157 178L157 180L159 178L157 178z"/>
<path style="fill:#c3945e; stroke:none;" d="M115 220L125 210C131.771 212.445 150.464 204.038 152 197C155.886 198.646 159.271 201.24 161 196L156 194L156 193L166.961 193.133L183 184L183 181C171.312 175.374 169.034 185.434 158.791 188.272C156.213 188.987 153.64 187.24 151 187.623C138.677 189.412 127.501 196.058 117.741 202.998C113.682 205.885 103.506 205.744 101.176 210.365C98.5768 215.519 111.627 219.815 115 220z"/>
<path style="fill:#b98357; stroke:none;" d="M179.333 178.667L179.667 179.333L179.333 178.667z"/>
<path style="fill:#c6ceda; stroke:none;" d="M84 187L100 180C94.1787 177.796 87.368 182.48 84 187z"/>
<path style="fill:#b98357; stroke:none;" d="M105 182L110 180L105 182z"/>
<path style="fill:#a27b56; stroke:none;" d="M103 183L103 184L112 179L103 183z"/>
<path style="fill:#99684b; stroke:none;" d="M153.667 180.333L154.333 180.667L153.667 180.333z"/>
<path style="fill:#d5b9a1; stroke:none;" d="M212 180L212 183L217 180L212 180z"/>
<path style="fill:#a9a2a0; stroke:none;" d="M282 180L282 184L283 184L282 180z"/>
<path style="fill:#b98357; stroke:none;" d="M77 196L104 183C99.6846 181.595 79.5763 191.871 77 196z"/>
<path style="fill:#99684b; stroke:none;" d="M108.667 182.333L109.333 182.667L108.667 182.333M105.667 183.333L106.333 183.667L105.667 183.333z"/>
<path style="fill:#b98357; stroke:none;" d="M181 184L181 185L187 188L187 184L181 184z"/>
<path style="fill:#a27b56; stroke:none;" d="M100 184L100 186L102 184L100 184z"/>
<path style="fill:#99684b; stroke:none;" d="M91 192L105 185C100.129 183.861 93.9574 188.351 91 192z"/>
<path style="fill:#dea464; stroke:none;" d="M282 184C281.689 193.738 277.144 204.997 267 208L258 221L263 239L271 224L263 227L267 219L275 221L272 209C280.053 213.405 284.095 212.978 285 202L301 206L288.414 199.287L282 184z"/>
<path style="fill:#b98357; stroke:none;" d="M179 185L179 188L180 188L181 185L179 185z"/>
<path style="fill:#d5b9a1; stroke:none;" d="M258 185L264 189L258 185z"/>
<path style="fill:#c6ceda; stroke:none;" d="M67 193L84 188C79.2973 186.086 70.1833 189.197 67 193z"/>
<path style="fill:#dea464; stroke:none;" d="M86.6667 188.333L87.3333 188.667L86.6667 188.333z"/>
<path style="fill:#b98357; stroke:none;" d="M159.667 188.333L160.333 188.667L159.667 188.333z"/>
<path style="fill:#d5b9a1; stroke:none;" d="M241 188L241 190L244 190L244 188L241 188z"/>
<path style="fill:#dea464; stroke:none;" d="M82.6667 189.333L83.3333 189.667L82.6667 189.333z"/>
<path style="fill:#b98357; stroke:none;" d="M171 189L171 191L173 189L171 189M205 201L208 201L209 198C210.557 199.366 212.589 200.87 210.961 203.13C208.267 206.87 202.877 207.917 201.668 213.17C199.99 220.464 209.362 225.43 202 232C205.581 246.885 230.591 240.249 234 252C229.038 253.703 225.67 259.994 225 265C214.251 267.219 214.638 282.163 213 291C217.211 295.296 214.506 302.33 209 304L209 306L221 302L216 304C218.895 300.524 221.298 298.041 226 299L234 294C234.5 291.087 235.123 289.683 232 289L231 280L218 277C219.892 269.047 224.021 268.366 231 270C232.873 265.267 231.215 264.064 229 260L238 256L238 248C243.721 248.246 252.52 252.675 257.714 250.011C263.506 247.04 265.726 234.677 271.846 234.113C274.994 233.824 278.286 237.89 280.424 239.718C292.533 250.075 281.089 267.828 280 281L271 282L271 283L290 285L290 284L285 283C289.568 277.05 292.436 256.713 291.751 249C291.221 243.035 287.704 234.078 294 230L294 229L290 228L298 223L295 212L285 212C275.92 222.294 262.108 236.62 258 250L253 250C252.399 242.469 246.517 244.279 241 246C245.06 241.23 255.985 234.863 245 231L245 229L252 227C250.554 220.399 244.152 218.318 242.447 211.999C241.019 206.707 246.545 201.617 241 198L237 205L235 194C230.783 194.035 226.244 195.347 222.09 194.726C212.524 193.297 198.988 184.26 205 201z"/>
<path style="fill:#dea464; stroke:none;" d="M80.6667 190.333L81.3333 190.667L80.6667 190.333z"/>
<path style="fill:#a27b56; stroke:none;" d="M88 191L88 192L91 192L88 191z"/>
<path style="fill:#99684b; stroke:none;" d="M130 191L130 192L133 192L130 191z"/>
<path style="fill:#a27b56; stroke:none;" d="M84 192L84 193L87 193L84 192z"/>
<path style="fill:#99684b; stroke:none;" d="M78 195L78 196L90 193L78 195M127 192L127 194L129 192L127 192z"/>
<path style="fill:#b98357; stroke:none;" d="M160 192L160 193L163 193L160 192z"/>
<path style="fill:#dea464; stroke:none;" d="M198 192L198 197L199 197L198 192z"/>
<path style="fill:#c3945e; stroke:none;" d="M205 195L208 192L205 195z"/>
<path style="fill:#a27b56; stroke:none;" d="M81.6667 193.333L82.3333 193.667L81.6667 193.333z"/>
<path style="fill:#c6ceda; stroke:none;" d="M62 197L67 194L62 197z"/>
<path style="fill:#dea464; stroke:none;" d="M73 194L73 195L76 195L73 194z"/>
<path style="fill:#b98357; stroke:none;" d="M164 194L167 196L164 194z"/>
<path style="fill:#99684b; stroke:none;" d="M173 207L166 206L161 213L161 214L182 200L188 196L194 211L195 211L193 196L192 196L192 198L191 198L191 194C183.192 194.644 171.507 197.63 173 207z"/>
<path style="fill:#c6ceda; stroke:none;" d="M290 194L290 195L294 196L294 195L290 194z"/>
<path style="fill:#dea464; stroke:none;" d="M69 195L69 197L71 195L69 195z"/>
<path style="fill:#b98357; stroke:none;" d="M159.667 195.333L160.333 195.667L159.667 195.333M66 202L76 197C72.9075 195.474 66.7187 198.646 66 202z"/>
<path style="fill:#99684b; stroke:none;" d="M73 200L78 197L73 200z"/>
<path style="fill:#b98357; stroke:none;" d="M127.667 196.333L128.333 196.667L127.667 196.333M161 196L161 199L162 199L161 196z"/>
<path style="fill:#985931; stroke:none;" d="M182 200L160 214C155.292 227.389 140.555 230.952 133.098 241.58C127.471 249.6 131 264.753 131 274L135 274L135 273C122.92 257.055 149.06 247.131 146 234L159 230C160.939 225.662 164.402 222.299 169 221C171.015 216.992 173.726 215.933 178 215C177.86 210.581 179.502 208.568 183 206L184 212L191 210L191 214C198.281 208.856 190.46 201.38 188 196L182 200z"/>
<path style="fill:#c6ceda; stroke:none;" d="M61 197L61 204L62 204L61 197z"/>
<path style="fill:#a9a2a0; stroke:none;" d="M64 197L64 201L65 201L66 197L64 197z"/>
<path style="fill:#b98357; stroke:none;" d="M122.667 197.333L123.333 197.667L122.667 197.333z"/>
<path style="fill:#dea464; stroke:none;" d="M144 197L144 198L148 198L144 197z"/>
<path style="fill:#a27b56; stroke:none;" d="M71 200L74 198L71 200z"/>
<path style="fill:#c3945e; stroke:none;" d="M223 204C235.993 203.286 224.758 193.64 223 204z"/>
<path style="fill:#c6ceda; stroke:none;" d="M297 199L297 200L311 205L297 199z"/>
<path style="fill:#99684b; stroke:none;" d="M70 200C64.2004 211.538 70.8016 221.698 74.4745 233C79.7362 249.191 95.1707 275.461 114.039 278.775C125.621 280.81 135.277 274.617 144 268L144 267L131 274C131 264.12 128.305 251.233 133.294 242.299C134.804 239.595 138.788 238.769 140.856 236.366C144.585 232.034 144.562 229.21 151 229L151 228C145.104 227.748 139.42 225.994 136 232L133 232L128 229L131 233C127.253 239.104 127.879 246.998 128 254L126 252L125 252C126.255 267.93 122.39 272.311 107 272C106.346 268.946 104.993 269.064 102 269L91 254L87 254C86.7932 247.629 82.8331 245.868 80.0123 240.715C73.6435 229.08 67.0015 213.073 72 200L70 200z"/>
<path style="fill:#b98357; stroke:none;" d="M151 200L142 205C147.131 204.982 150.327 204.726 153 200L151 200z"/>
<path style="fill:#a27b56; stroke:none;" d="M71 227L72 227C70.3165 217.096 65.0845 210.779 70 201C60.995 204.62 68.3344 220.76 71 227z"/>
<path style="fill:#b98357; stroke:none;" d="M119.333 201.667L119.667 202.333L119.333 201.667z"/>
<path style="fill:#dea464; stroke:none;" d="M127 208L132 209L133 201C128.798 201.723 127.74 203.964 127 208z"/>
<path style="fill:#b98357; stroke:none;" d="M65 203L65 214L66 214L65 203z"/>
<path style="fill:#99684b; stroke:none;" d="M106.667 203.333L107.333 203.667L106.667 203.333z"/>
<path style="fill:#c6ceda; stroke:none;" d="M62 204L62 213L63 213L62 204z"/>
<path style="fill:#b98357; stroke:none;" d="M114.667 204.333L115.333 204.667L114.667 204.333z"/>
<path style="fill:#99684b; stroke:none;" d="M102.667 205.333L103.333 205.667L102.667 205.333z"/>
<path style="fill:#b98357; stroke:none;" d="M140 205L134 211L142 205L140 205z"/>
<path style="fill:#a27b56; stroke:none;" d="M195 205L195 211L196 211L195 205z"/>
<path style="fill:#b98357; stroke:none;" d="M289 205L291 208L291 205L289 205z"/>
<path style="fill:#c6ceda; stroke:none;" d="M311.333 205.667L311.667 206.333L311.333 205.667z"/>
<path style="fill:#b98357; stroke:none;" d="M104 207L104 208L110 207L104 207z"/>
<path style="fill:#874420; stroke:none;" d="M178 215C173.527 215.619 170.385 216.423 169 221C164.065 221.783 160.323 225.181 159 230L146 234C146.807 242.334 137.733 246.425 134.318 253.004C131.471 258.487 133 266.977 133 273C139.849 270.467 157.368 261.304 159.567 253.896C161.465 247.5 157.134 240.203 159.603 234.104C162.086 227.973 170.833 228.726 172 222L191 215L191 210L184 212L183 206C178.793 208.029 177.24 210.33 178 215z"/>
<path style="fill:#dea464; stroke:none;" d="M198.667 206.333L199.333 206.667L198.667 206.333z"/>
<path style="fill:#a9a2a0; stroke:none;" d="M301 206L301 207L304 207L301 206z"/>
<path style="fill:#99684b; stroke:none;" d="M98 207L98 208L101 208L98 207z"/>
<path style="fill:#dea464; stroke:none;" d="M304 207L312 215L312 212L315 213L304 207z"/>
<path style="fill:#c6ceda; stroke:none;" d="M313 207L313 208C317.772 210.406 324.063 211.93 326.682 217.04C330.105 223.719 325.639 228.736 324.299 235C323.054 240.822 324.077 247.258 322.455 253C320.846 258.695 316.967 262.736 315 268C326.545 262.441 324.715 247.863 325.888 237.015C327.391 223.114 334.645 208.168 313 207z"/>
<path style="fill:#a9a2a0; stroke:none;" d="M64 208L64 214L65 214L64 208z"/>
<path style="fill:#b98357; stroke:none;" d="M101.667 208.333L102.333 208.667L101.667 208.333M99 209L99 212L100 212L101 209L99 209z"/>
<path style="fill:#dea464; stroke:none;" d="M258 210L258 211L263 211L263 209L258 210z"/>
<path style="fill:#99684b; stroke:none;" d="M93 210L93 212L95 210L93 210z"/>
<path style="fill:#dea464; stroke:none;" d="M102 210L102 212L105 212L105 210L102 210M108 213L111 210L108 213M118 214L123 214L122 210L118 214z"/>
<path style="fill:#b98357; stroke:none;" d="M125 210L129 212L129 211L125 210z"/>
<path style="fill:#bf7844; stroke:none;" d="M194 211L194 214L195 214L196 211L194 211z"/>
<path style="fill:#a27b56; stroke:none;" d="M193.333 212.667L193.667 213.333L193.333 212.667z"/>
<path style="fill:#b98357; stroke:none;" d="M249 212L248 217L251 217L251 212L249 212z"/>
<path style="fill:#dea464; stroke:none;" d="M315 213L317 216L315 213z"/>
<path style="fill:#a9a2a0; stroke:none;" d="M65 214L67 221L68 221L65 214z"/>
<path style="fill:#b98357; stroke:none;" d="M102 214L109 222L110 219L102 214z"/>
<path style="fill:#a27b56; stroke:none;" d="M191.667 214.333L192.333 214.667L191.667 214.333z"/>
<path style="fill:#a9a2a0; stroke:none;" d="M318 218L326 220C325.163 214.306 321.304 213.163 318 218z"/>
<path style="fill:#c6ceda; stroke:none;" d="M63 215C63.287 220.592 65.4239 232.703 70 236L63 215z"/>
<path style="fill:#985931; stroke:none;" d="M187 217L190 216L187 217z"/>
<path style="fill:#bf7844; stroke:none;" d="M190.667 215.333L191.333 215.667L190.667 215.333z"/>
<path style="fill:#99684b; stroke:none;" d="M88 216L88 229L89 229L88 216M152 222L149 219L151 227L152 227L160 216L152 222z"/>
<path style="fill:#bf7844; stroke:none;" d="M188 216L188 218L190 216L188 216z"/>
<path style="fill:#c3945e; stroke:none;" d="M67.3333 217.667L67.6667 218.333L67.3333 217.667z"/>
<path style="fill:#985931; stroke:none;" d="M93 219L96 218L93 219z"/>
<path style="fill:#99684b; stroke:none;" d="M96 217L93 219L93 233L90 229L89 229L92 241L96 241C95.0814 233.42 95.8953 212.261 107 227L108 227C106.008 220.196 101.82 219.301 96 217z"/>
<path style="fill:#b98357; stroke:none;" d="M115 217L111 220L117 223L117 217L115 217z"/>
<path style="fill:#99684b; stroke:none;" d="M186 217L184 219L184 220L188 217L186 217z"/>
<path style="fill:#c3945e; stroke:none;" d="M189 217L179 225L188 227L185 223L191 217L189 217z"/>
<path style="fill:#dea464; stroke:none;" d="M185 223L188 227C182.409 225.853 160.945 228.443 162.712 238.025C163.617 242.934 169.786 243.936 172 248L198.544 261.471L208.025 268.548L223 263L228 256L231 249C227.065 249.047 224.343 248.954 223 253C214.982 246.778 207.971 245.327 198 247C200.653 240.731 198.559 230.565 190 232L197 217L185 223z"/>
<path style="fill:#b98357; stroke:none;" d="M68.3333 218.667L68.6667 219.333L68.3333 218.667z"/>
<path style="fill:#985931; stroke:none;" d="M172 222L170 226L170 227L186 219L172 222z"/>
<path style="fill:#b98357; stroke:none;" d="M187 218L187 220L189 218L187 218z"/>
<path style="fill:#dea464; stroke:none;" d="M313 219L311 226L294 233L296 239C286.059 241.13 301.029 249.841 305.972 249.361C313.35 248.645 308.225 240.265 310.444 237.333C311.779 235.57 314.583 236.239 316.167 234.667C318.571 232.279 319.535 227.842 323 231L324 231L323 227L317 227L317 225L321 220L313 219z"/>
<path style="fill:#c3945e; stroke:none;" d="M68 220L68 223L69 223L68 220z"/>
<path style="fill:#bf7844; stroke:none;" d="M180 223L184 221L180 223z"/>
<path style="fill:#b98357; stroke:none;" d="M184 220L184 221L187 221L184 220z"/>
<path style="fill:#c3945e; stroke:none;" d="M208 220L208 225C211.474 224.423 212.423 223.474 213 220L208 220z"/>
<path style="fill:#a27b56; stroke:none;" d="M104 221L107 223L104 221z"/>
<path style="fill:#a9a2a0; stroke:none;" d="M68.3333 223.667L68.6667 224.333L68.3333 223.667z"/>
<path style="fill:#874420; stroke:none;" d="M105 244C104.421 236.587 104.041 234.048 112 235C111.353 232.68 110.718 230.449 109.196 228.516C96.6093 212.537 89.8224 239.699 105 244z"/>
<path style="fill:#b98357; stroke:none;" d="M119 224L119 225L122 226L122 223L119 224z"/>
<path style="fill:#99684b; stroke:none;" d="M177 223L177 224L180 224L177 223z"/>
<path style="fill:#c3945e; stroke:none;" d="M69.3333 224.667L69.6667 225.333L69.3333 224.667z"/>
<path style="fill:#bf7844; stroke:none;" d="M175 224L161 234L177 224L175 224z"/>
<path style="fill:#b98357; stroke:none;" d="M177.667 224.333L178.333 224.667L177.667 224.333z"/>
<path style="fill:#a27b56; stroke:none;" d="M277 224L276 230L284 228C282.777 224.313 280.692 224.12 277 224z"/>
<path style="fill:#a9a2a0; stroke:none;" d="M325 224L325 228L326 228L325 224z"/>
<path style="fill:#b98357; stroke:none;" d="M70 225L72 231L73 231L70 225z"/>
<path style="fill:#985931; stroke:none;" d="M105.667 225.333L106.333 225.667L105.667 225.333M108 225L110 228L108 225z"/>
<path style="fill:#c3945e; stroke:none;" d="M175 228L178 225L175 228z"/>
<path style="fill:#a9a2a0; stroke:none;" d="M69 226L71 232L72 232L69 226z"/>
<path style="fill:#985931; stroke:none;" d="M159 235L160 235L169 227C164.449 228.171 160.446 230.363 159 235z"/>
<path style="fill:#99684b; stroke:none;" d="M169 227L169 228L172 228L169 227M110 228L110 229L112 231L113 231L110 228z"/>
<path style="fill:#c3945e; stroke:none;" d="M173.667 228.333L174.333 228.667L173.667 228.333z"/>
<path style="fill:#b98357; stroke:none;" d="M169.667 229.333L170.333 229.667L169.667 229.333z"/>
<path style="fill:#c3945e; stroke:none;" d="M171.667 229.333L172.333 229.667L171.667 229.333z"/>
<path style="fill:#a27b56; stroke:none;" d="M73 230C73.6707 236.082 74.4953 241.358 80 245L73 230z"/>
<path style="fill:#c3945e; stroke:none;" d="M167 232L170 230L167 232M72.3333 231.667L72.6667 232.333L72.3333 231.667z"/>
<path style="fill:#bf7844; stroke:none;" d="M140 231L142 235L142 231L140 231z"/>
<path style="fill:#b98357; stroke:none;" d="M165.667 231.333L166.333 231.667L165.667 231.333M73 232L73 235L74 235L73 232z"/>
<path style="fill:#c3945e; stroke:none;" d="M162 235L166 233L162 235z"/>
<path style="fill:#dea464; stroke:none;" d="M322 232L322 235L323 235L322 232z"/>
<path style="fill:#a9a2a0; stroke:none;" d="M72 233C72.1254 236.878 72.5016 239.072 76 241L72 233z"/>
<path style="fill:#99684b; stroke:none;" d="M114 233L120 241L114 233M160 233L157 259C166.238 253.351 162.211 241.743 160 233z"/>
<path style="fill:#a27b56; stroke:none;" d="M238 248L238 256L229 260L231 270C223.99 267.497 219.1 268.776 218 277L231 280L232 289L235 291L236 291L254.093 275.036L268.424 281.201L280 281C281.195 272.374 284.982 269.968 282 261L286 263C284.553 252.252 288.11 245.591 279.579 238.221C277.406 236.344 274.182 232.85 270.954 233.737C264.482 235.516 263.547 246.871 256.83 249.993C252.115 252.185 243.324 248.11 238 248z"/>
<path style="fill:#c3945e; stroke:none;" d="M277.667 233.333L278.333 233.667L277.667 233.333z"/>
<path style="fill:#d5b9a1; stroke:none;" d="M305 233L305 235L307 235L307 233L305 233z"/>
<path style="fill:#b98357; stroke:none;" d="M161.333 234.667L161.667 235.333L161.333 234.667z"/>
<path style="fill:#d5b9a1; stroke:none;" d="M166 237L169 234L166 237z"/>
<path style="fill:#99684b; stroke:none;" d="M105 235L108 244L111 250C115.164 251.285 116.435 253.789 117 258L108 257C111.124 260.277 117.555 262.938 117.836 255.981C118.139 248.495 112.499 236.827 105 235z"/>
<path style="fill:#bf7844; stroke:none;" d="M160 235L160 240L161 240L160 235z"/>
<path style="fill:#99684b; stroke:none;" d="M240 250L243 263C239.071 264.386 237.87 270.292 242.303 272.397C245.853 274.082 250.259 272.021 254 272.815C259.45 273.971 263.313 277.69 269 278L268 273C273.727 272.976 285.138 260.744 277 259L279 253C275.819 249.1 280.5 246.885 282 243C280.469 241.578 279.176 239.908 277.62 238.515C267.656 229.587 265.236 248.252 257.625 251.817C252.636 254.154 245.108 250.509 240 250z"/>
<path style="fill:#c6ceda; stroke:none;" d="M70 236L74 241L70 236z"/>
<path style="fill:#dea464; stroke:none;" d="M320 236L320 243L321 243L322 236L320 236z"/>
<path style="fill:#874420; stroke:none;" d="M113 237L113 240L115 240L115 237L113 237z"/>
<path style="fill:#a27b56; stroke:none;" d="M229 237L229 240L234 237L229 237z"/>
<path style="fill:#985931; stroke:none;" d="M265 248L268 252L265 249L247 254L252 270L265 267L262 258L266 259C273.476 251.07 272.348 248.182 273 237L265 248z"/>
<path style="fill:#c3945e; stroke:none;" d="M282.667 237.333L283.333 237.667L282.667 237.333M76.3333 240.667L76.6667 241.333L76.3333 240.667z"/>
<path style="fill:#985931; stroke:none;" d="M159 240L160 254L161 254L159 240z"/>
<path style="fill:#a27b56; stroke:none;" d="M161 240L162 256L163 256C164.572 250.682 164.969 244.236 161 240z"/>
<path style="fill:#c6ceda; stroke:none;" d="M74 241C74.6144 252.818 87.4346 268.975 98 274L74 241z"/>
<path style="fill:#d5b9a1; stroke:none;" d="M75 241L78 249L79 249L75 241z"/>
<path style="fill:#874420; stroke:none;" d="M86 241L86 244L90 244L90 241L86 241z"/>
<path style="fill:#99684b; stroke:none;" d="M120 241L120 247L121 247L120 241z"/>
<path style="fill:#b98357; stroke:none;" d="M163.333 241.667L163.667 242.333L163.333 241.667z"/>
<path style="fill:#d5b9a1; stroke:none;" d="M174 241L174 243L176 243L174 241z"/>
<path style="fill:#a27b56; stroke:none;" d="M225 241L225 243L228 243L228 241L225 241z"/>
<path style="fill:#a9a2a0; stroke:none;" d="M77.3333 243.667L77.6667 244.333L77.3333 243.667z"/>
<path style="fill:#b98357; stroke:none;" d="M164 243L161 258C166.491 254.917 167.048 248.314 164 243z"/>
<path style="fill:#dea464; stroke:none;" d="M319 244L317 249L312 248L308 252L312 263C308.508 261.943 307.568 260.582 307 257C302.299 260.082 306.395 264.549 307 269L308 269L308 265C315.313 264.158 321.089 250.813 319 244z"/>
<path style="fill:#a9a2a0; stroke:none;" d="M78 245L79 250L80 250L78 245z"/>
<path style="fill:#c3945e; stroke:none;" d="M79.3333 245.667L79.6667 246.333L79.3333 245.667z"/>
<path style="fill:#b98357; stroke:none;" d="M80 245L83 252L80 245z"/>
<path style="fill:#a27b56; stroke:none;" d="M81 245L81 250L82 250L81 245z"/>
<path style="fill:#874420; stroke:none;" d="M117 245L117 249L119 249L119 245L117 245z"/>
<path style="fill:#d5b9a1; stroke:none;" d="M181 245L181 247L184 247L184 245L181 245z"/>
<path style="fill:#99684b; stroke:none;" d="M100 247C101.046 253.077 105.927 252.172 111 252L111 251L105 251L100 247z"/>
<path style="fill:#874420; stroke:none;" d="M90 248C93.6015 256.519 102.088 266.416 111.001 269.612C122.225 273.636 126.941 263.343 123 254L121 254C113.061 272.442 101.862 249.845 90 248z"/>
<path style="fill:#99684b; stroke:none;" d="M121.667 248.333L122.333 248.667L121.667 248.333z"/>
<path style="fill:#bf7844; stroke:none;" d="M101.667 249.333L102.333 249.667L101.667 249.333z"/>
<path style="fill:#99684b; stroke:none;" d="M123 249L125 252L123 249z"/>
<path style="fill:#d5b9a1; stroke:none;" d="M79 250L86 259L79 250z"/>
<path style="fill:#bf7844; stroke:none;" d="M105 252C106.669 257.498 111.879 257.595 117 258C116.381 248.809 111.803 251.558 105 252z"/>
<path style="fill:#b98357; stroke:none;" d="M170 251L169 255L177 256L172 260L172 265C162.76 262.896 168.411 273.531 170 278L171 278L171 276L172 276C172.001 283.399 172.455 288.426 181 289L180 285L185 290L181 291L188 296L188 297L186 298L193 301L193 297L200 296L200 300L203 300L201 292L193 288C209.583 290.931 193.141 270.797 191 263C185.028 264.332 177.179 261.25 179 270C175.044 265.322 178.849 261.07 184 260C181.955 253.752 175.81 252.272 170 251z"/>
<path style="fill:#a9a2a0; stroke:none;" d="M81.6667 252.333L82.3333 252.667L81.6667 252.333z"/>
<path style="fill:#c3945e; stroke:none;" d="M83 252L83 255L84 255L83 252M207 252L207 255L211 255L211 252L207 252z"/>
<path style="fill:#a27b56; stroke:none;" d="M84 253C85.5397 258.666 89.848 264.149 95 267L84 253z"/>
<path style="fill:#b98357; stroke:none;" d="M109 253L109 255L113 255L113 253L109 253z"/>
<path style="fill:#874420; stroke:none;" d="M252 256L253 268C259.997 265.955 260.126 256.391 252 256z"/>
<path style="fill:#a27b56; stroke:none;" d="M110 257L110 258L113 258L110 257M158 259L161 257L158 259z"/>
<path style="fill:#a9a2a0; stroke:none;" d="M86 258L88 263L89 263L86 258z"/>
<path style="fill:#bf7844; stroke:none;" d="M127 258L127 266L128 266L127 258z"/>
<path style="fill:#985931; stroke:none;" d="M155 258L155 260L157 258L155 258z"/>
<path style="fill:#bf7844; stroke:none;" d="M285.333 258.667L285.667 259.333L285.333 258.667z"/>
<path style="fill:#b98357; stroke:none;" d="M156 259L156 261L158 259L156 259z"/>
<path style="fill:#d5b9a1; stroke:none;" d="M213 259L213 262L215 262L215 259L213 259z"/>
<path style="fill:#a9a2a0; stroke:none;" d="M317 259L315 262C317.251 261.527 318.118 261.14 317 259z"/>
<path style="fill:#d5b9a1; stroke:none;" d="M86 260L88 263L86 260z"/>
<path style="fill:#99684b; stroke:none;" d="M147 264L147 265L156 261L147 264z"/>
<path style="fill:#d5b9a1; stroke:none;" d="M155 264C164.831 261.32 163 275.827 163 282L165 282L164 260C159.839 260.049 157.112 260.17 155 264z"/>
<path style="fill:#dea464; stroke:none;" d="M164 260L164 264L165 264L164 260z"/>
<path style="fill:#bf7844; stroke:none;" d="M286 260L286 263L287 263L286 260z"/>
<path style="fill:#a9a2a0; stroke:none;" d="M152 264L156 261L152 264z"/>
<path style="fill:#bf7844; stroke:none;" d="M282 261L283 265L286 264L282 261z"/>
<path style="fill:#c6ceda; stroke:none;" d="M157 262L157 263L161.514 280.961L172 293L173 293C171.454 287.368 166.19 285.649 163.854 280.675C160.848 274.276 165.928 264.702 157 262z"/>
<path style="fill:#c3945e; stroke:none;" d="M89 263L92 265L89 263z"/>
<path style="fill:#a9a2a0; stroke:none;" d="M148 267L151 264L148 267z"/>
<path style="fill:#d5b9a1; stroke:none;" d="M150 266L153 264L150 266z"/>
<path style="fill:#c6ceda; stroke:none;" d="M135 278L157 265C151.257 263.113 137.668 272.906 135 278z"/>
<path style="fill:#a9a2a0; stroke:none;" d="M164 264L164 267L165 267L164 264z"/>
<path style="fill:#d5b9a1; stroke:none;" d="M91.3333 265.667L91.6667 266.333L91.3333 265.667z"/>
<path style="fill:#a9a2a0; stroke:none;" d="M92 265L94 268L92 265z"/>
<path style="fill:#a27b56; stroke:none;" d="M144 268L148 265L144 268M269 265L269 267L271 267L271 265L269 265z"/>
<path style="fill:#985931; stroke:none;" d="M142 266L142 267L145 267L142 266z"/>
<path style="fill:#b98357; stroke:none;" d="M94 267L97 269L94 267z"/>
<path style="fill:#d5b9a1; stroke:none;" d="M144 271L149 267L144 271M93.6667 268.333L94.3333 268.667L93.6667 268.333z"/>
<path style="fill:#a9a2a0; stroke:none;" d="M142 271L146 269L142 271z"/>
<path style="fill:#c6ceda; stroke:none;" d="M313 268L311 272L315 268L313 268z"/>
<path style="fill:#d5b9a1; stroke:none;" d="M95 269C99.68 278.598 111.944 282.791 122 283L122 282C110.507 280.856 104.502 274.028 95 269z"/>
<path style="fill:#a27b56; stroke:none;" d="M97 269L97 270L110 277L110 276L97 269M141 269L141 271L143 269L141 269z"/>
<path style="fill:#dea464; stroke:none;" d="M290.333 269.667L290.667 270.333L290.333 269.667z"/>
<path style="fill:#b98357; stroke:none;" d="M97.6667 270.333L98.3333 270.667L97.6667 270.333z"/>
<path style="fill:#a9a2a0; stroke:none;" d="M165 270C165 276.203 163.789 287.917 173 287L165 270z"/>
<path style="fill:#dea464; stroke:none;" d="M198 270L198 274L199 274L198 270z"/>
<path style="fill:#a9a2a0; stroke:none;" d="M300 279L301 279L306 275L306 270C301.026 271.082 300.39 274.289 300 279M98.6667 271.333L99.3333 271.667L98.6667 271.333M136 275L141 272L136 275z"/>
<path style="fill:#d5b9a1; stroke:none;" d="M141.667 271.333L142.333 271.667L141.667 271.333z"/>
<path style="fill:#dea464; stroke:none;" d="M298 271L295 275L300 275L298 271z"/>
<path style="fill:#b98357; stroke:none;" d="M100.667 272.333L101.333 272.667L100.667 272.333z"/>
<path style="fill:#c3945e; stroke:none;" d="M185 272L182 283L182 284L189 283L189 273L185 272z"/>
<path style="fill:#c6ceda; stroke:none;" d="M309 272C304.56 277.087 291.026 292.367 283.985 292.117C275.631 291.821 267.568 281.699 259 280L259 281L287 296L311 272L309 272z"/>
<path style="fill:#a9a2a0; stroke:none;" d="M100.667 273.333L101.333 273.667L100.667 273.333z"/>
<path style="fill:#d5b9a1; stroke:none;" d="M138.667 273.333L139.333 273.667L138.667 273.333z"/>
<path style="fill:#b98357; stroke:none;" d="M225 273L225 275L227 275L227 273L225 273z"/>
<path style="fill:#c6ceda; stroke:none;" d="M99 274C101.14 278.376 104.195 280.358 109 281L109 280L99 274z"/>
<path style="fill:#dea464; stroke:none;" d="M205 274L207 277L205 274z"/>
<path style="fill:#c3945e; stroke:none;" d="M252 274L252 275L256 275L252 274z"/>
<path style="fill:#a9a2a0; stroke:none;" d="M103.667 275.333L104.333 275.667L103.667 275.333z"/>
<path style="fill:#985931; stroke:none;" d="M112 275L112 278L123 278L123 276L112 275z"/>
<path style="fill:#a27b56; stroke:none;" d="M130 278L134 276L130 278z"/>
<path style="fill:#a9a2a0; stroke:none;" d="M132 278L136 276L132 278M251 275L251 277L253 275L251 275z"/>
<path style="fill:#d5b9a1; stroke:none;" d="M248 284C253.434 280.877 253.033 277.494 260 280C254.525 272.84 250.918 277.594 248 284z"/>
<path style="fill:#b98357; stroke:none;" d="M256.667 275.333L257.333 275.667L256.667 275.333z"/>
<path style="fill:#a9a2a0; stroke:none;" d="M105 276L108 278L105 276M257 276L266 281L266 280L257 276z"/>
<path style="fill:#b98357; stroke:none;" d="M108.667 277.333L109.333 277.667L108.667 277.333z"/>
<path style="fill:#d5b9a1; stroke:none;" d="M131 280L135 278L131 280z"/>
<path style="fill:#c3945e; stroke:none;" d="M250 277L248 282L250 277z"/>
<path style="fill:#c6ceda; stroke:none;" d="M250 284L256 278C252.264 277.173 251.207 280.994 250 284z"/>
<path style="fill:#dea464; stroke:none;" d="M291 277L291 279L293 277L291 277z"/>
<path style="fill:#c3945e; stroke:none;" d="M108 278L108 279L112 280L112 279L108 278z"/>
<path style="fill:#a27b56; stroke:none;" d="M110.667 278.333L111.333 278.667L110.667 278.333M114 279L114 280L128 279L114 279z"/>
<path style="fill:#b98357; stroke:none;" d="M128 278L128 279L131 279L128 278z"/>
<path style="fill:#99684b; stroke:none;" d="M233 279L235 283L237 283L238 281L238 280L236 278L233 279z"/>
<path style="fill:#b98357; stroke:none;" d="M249.333 278.667L249.667 279.333L249.333 278.667M112.667 279.333L113.333 279.667L112.667 279.333z"/>
<path style="fill:#c3945e; stroke:none;" d="M125 279L125 280L128 280L125 279z"/>
<path style="fill:#a9a2a0; stroke:none;" d="M128 279L128 280L131 280L128 279z"/>
<path style="fill:#c6ceda; stroke:none;" d="M130 280L130 281L134 280L130 280z"/>
<path style="fill:#b98357; stroke:none;" d="M264.667 279.333L265.333 279.667L264.667 279.333z"/>
<path style="fill:#c3945e; stroke:none;" d="M115.667 280.333L116.333 280.667L115.667 280.333z"/>
<path style="fill:#b98357; stroke:none;" d="M117 280L117 281L123 281L117 280z"/>
<path style="fill:#a9a2a0; stroke:none;" d="M117 281L117 282L125 281L117 281z"/>
<path style="fill:#d5b9a1; stroke:none;" d="M123 281L123 282L130 281L123 281z"/>
<path style="fill:#99684b; stroke:none;" d="M245.333 280.667L245.667 281.333L245.333 280.667z"/>
<path style="fill:#d5b9a1; stroke:none;" d="M262.667 280.333L263.333 280.667L262.667 280.333z"/>
<path style="fill:#b98357; stroke:none;" d="M266.667 280.333L267.333 280.667L266.667 280.333z"/>
<path style="fill:#c6ceda; stroke:none;" d="M109 281L109 282L112 282L109 281M116 283L116 284L129 282L116 283z"/>
<path style="fill:#c3945e; stroke:none;" d="M193 281L192 285L195 281L193 281z"/>
<path style="fill:#b98357; stroke:none;" d="M210 281L210 283L212 283L212 281L210 281z"/>
<path style="fill:#d5b9a1; stroke:none;" d="M264 281L272 285L272 284L264 281z"/>
<path style="fill:#c3945e; stroke:none;" d="M266.667 281.333L267.333 281.667L266.667 281.333z"/>
<path style="fill:#dea464; stroke:none;" d="M294 282L294 283L299 282L294 282z"/>
<path style="fill:#c6ceda; stroke:none;" d="M113 282L113 283L116 283L113 282z"/>
<path style="fill:#a9a2a0; stroke:none;" d="M236 292L249 282C243.896 283.718 238.595 287.186 236 292M267.667 282.333L268.333 282.667L267.667 282.333z"/>
<path style="fill:#c3945e; stroke:none;" d="M269.667 282.333L270.333 282.667L269.667 282.333z"/>
<path style="fill:#a27b56; stroke:none;" d="M276 283L276 285L286 290L287 286C283.17 282.99 280.848 281.9 276 283z"/>
<path style="fill:#d5b9a1; stroke:none;" d="M165.667 283.333L166.333 283.667L165.667 283.333z"/>
<path style="fill:#a27b56; stroke:none;" d="M222 283L221 291C228.946 290.74 230.932 283.297 222 283z"/>
<path style="fill:#a9a2a0; stroke:none;" d="M270 283L270 284C279.414 289.499 285.681 295.326 293 284C289.189 284.916 287.172 286.199 286 290L270 283z"/>
<path style="fill:#c3945e; stroke:none;" d="M272.667 283.333L273.333 283.667L272.667 283.333z"/>
<path style="fill:#d5b9a1; stroke:none;" d="M291 288L298 284C294.22 282.544 292.435 284.575 291 288z"/>
<path style="fill:#c6ceda; stroke:none;" d="M232 300L249 285C242.822 284.161 234.101 294.712 232 300z"/>
<path style="fill:#c3945e; stroke:none;" d="M274.667 284.333L275.333 284.667L274.667 284.333M180 285L181 289L173 287L186 298L181 291L185 290L183 285L180 285z"/>
<path style="fill:#b98357; stroke:none;" d="M276.667 285.333L277.333 285.667L276.667 285.333z"/>
<path style="fill:#d5b9a1; stroke:none;" d="M273 286L273 287L280 291L273 286M172 287C172.809 294.112 179.399 296.648 185 300L172 287M240 290L243 289L240 290M288 291L289 291L291 289C288.86 287.882 288.473 288.749 288 291z"/>
<path style="fill:#c3945e; stroke:none;" d="M234 291L234 294L235 294L236 291L234 291z"/>
<path style="fill:#d5b9a1; stroke:none;" d="M235 295L236 295L239 292L235 295M280.667 291.333L281.333 291.667L280.667 291.333M283 292L283 293L288 292L283 292z"/>
<path style="fill:#c6ceda; stroke:none;" d="M175 294C177.494 298.877 181.681 299.405 185.741 302.519C199.899 313.381 218.536 318.804 230 300C221.679 304.218 213.691 314.628 203 311.421C195.621 309.208 190.727 301.211 183 300L175 294z"/>
<path style="fill:#a9a2a0; stroke:none;" d="M180 294L183 296L180 294z"/>
<path style="fill:#c3945e; stroke:none;" d="M189.667 294.333L190.333 294.667L189.667 294.333z"/>
<path style="fill:#dea464; stroke:none;" d="M205 294L205 298L207 298L207 294L205 294z"/>
<path style="fill:#c3945e; stroke:none;" d="M221 303L233 295C228.176 293.485 223.081 299.01 221 303z"/>
<path style="fill:#a9a2a0; stroke:none;" d="M220 305L235 295C229.896 294.3 222.626 300.863 220 305z"/>
<path style="fill:#b98357; stroke:none;" d="M210 295L212 299L210 295z"/>
<path style="fill:#a27b56; stroke:none;" d="M186.667 296.333L187.333 296.667L186.667 296.333z"/>
<path style="fill:#d5b9a1; stroke:none;" d="M232 296L229 299L229 300L234 296L232 296z"/>
<path style="fill:#a27b56; stroke:none;" d="M216 304L224 297L216 304z"/>
<path style="fill:#a9a2a0; stroke:none;" d="M185 298C192.119 310.074 207.359 312.859 219 307L219 306L204 308.686L185 298z"/>
<path style="fill:#b98357; stroke:none;" d="M196 301L200 305L199 301L196 301z"/>
<path style="fill:#d5b9a1; stroke:none;" d="M209 310L209 311L227 303L209 310M189 303L189 304L193 305L193 304L189 303z"/>
<path style="fill:#a9a2a0; stroke:none;" d="M387 303L386 307L387 303z"/>
<path style="fill:#f9fefe; stroke:none;" d="M0 306L0 428L175 428L175 425L165 424C163.864 420.118 160.696 420.118 157 420C155.712 415.597 148.843 414.243 145 412.037C133.629 405.509 120.422 393.375 107 392L107 389L79.5448 373.244L45 354.191L26 344L9.82176 324.573L2 306L0 306z"/>
<path style="fill:#d5b9a1; stroke:none;" d="M196 307L199 309L196 307M199 309L209 312L209 311L199 309z"/>
<path style="fill:#f9fefe; stroke:none;" d="M386 313C378.846 333.371 364.034 341.204 347 352.323C318.393 370.997 287.122 390.608 256.086 404.816C242.53 411.022 231.327 423.009 216 425L216 428L388 428L388 313L386 313z"/>
<path style="fill:#a9a2a0; stroke:none;" d="M289 381L289 383L292 383L292 381L289 381M105 385L105 387L107 387L107 385L105 385M112 389L112 391L114 391L114 389L112 389M269 393L269 395L271 395L271 393L269 393z"/>
</svg>
