<?xml version="1.0" standalone="yes"?>
<svg xmlns="http://www.w3.org/2000/svg" width="388" height="428">
<path style="fill:#f8fcfc; stroke:none;" d="M0 0L0 126L3 126C3.54149 119.148 5.57484 110.558 12 107C14.1111 99.5034 23.5034 90.1111 31 88C35.6048 79.6744 56.6292 68.4685 66 67C68.5817 62.5356 74.3775 61.0705 78.5764 58.2408C89.8184 50.6646 107.727 37.558 121 35C125.616 27.0524 141.102 21.6955 149 16.9861C157.626 11.843 167.057 6.0267 177 3.86188C217.782 -5.01736 255.008 25.1487 287.845 44.5795C299.988 51.7648 316.857 66.4028 331 68L342.884 75.8009L364.588 89.3518L377 99L377 104C381.899 106.674 384.51 113.6 385 119L388 119L388 0L0 0z"/>
<path style="fill:#e5cfb2; stroke:none;" d="M121 35L98.7145 46.6296L77.7184 58.2408L66 67C56.2145 67.8876 47.2935 75.5063 39.2708 80.6952C35.8365 82.9165 32.3532 83.9393 31 88C23.2848 89.2222 13.2222 99.2849 12 107C4.98037 109.34 3.27996 119.48 3 126L0 126L0 130L3 130C3.87939 172.605 4 215.316 4 258C4 269.192 4.94813 280.863 3.82948 292C3.44594 295.818 -0.100826 301.259 0.69213 304.804C5.39387 325.824 23.7436 343.144 42 353.116C47.4031 356.067 53.8712 360.438 60 361C62.2602 367.904 80.888 376.348 88 377C89.7398 382.391 101.548 388.157 107 389L107 392C120.061 395.059 131.662 404.686 143 411.424C147.442 414.063 154.293 415.57 157 420L165 424C169.421 424.016 172.711 423.849 175 428L216 428L216 425C228.849 423.976 240.254 414.934 250.87 408.285C257.455 404.159 264.666 401.567 271 397L271 396L268 393L272 396C283.874 392.344 295.44 383.199 306.09 376.84C327.187 364.241 354.163 353.666 372.07 336.696C379.136 330 381.363 319.413 388 313L388 292L388 247L388 161L388 119L385 119C384.752 113.663 382.492 105.811 377 104L377 99L344.579 76.3572L331 68C313.056 64.368 296.664 47.5122 280 40L276 43L279 40C253.218 17.4661 211.835 -3.07202 177 3.63425C166.708 5.6156 156.863 11.6847 148.001 16.9861C141.099 21.1144 123.679 27.3437 121 35z"/>
<path style="fill:#d1b09d; stroke:none;" d="M178 5L178 7L183 7L183 5L178 5z"/>
<path style="fill:#f8fcfc; stroke:none;" d="M95 56C82.8077 57.259 69.5428 69.5187 59.0039 75.5247C42.1276 85.1422 24.9705 92.2419 14.1034 109.169C3.39434 125.85 5 144.029 5 163L5 250C5 282.449 -0.888363 322.915 33.0394 341.267C37.8109 343.848 42.538 347.589 48 348C49.9537 353.907 61.5224 357.19 66.8449 360.117C78.5231 366.537 89.201 374.528 101.039 380.741C105.968 383.327 114.317 386.124 117 391C126.73 392.356 138.795 402.175 147.245 407.265C167.692 419.583 185.654 427.561 209.985 423.853C222.823 421.896 236.053 410.973 247.05 404.383C271.106 389.967 295.852 376.775 320 362.598C330.695 356.319 343.685 344.952 356 343C363.193 331.071 378.477 327.907 380 311L383 311L385 176L384 121L380 121C377.865 104.613 363.269 101.065 356 89C337.016 84.2195 320.761 60.9208 301 60L301 57C292.339 54.6213 271.627 44.5816 267 37C258.131 35.2048 237.728 24.822 233 17L225 13C212.566 11.0851 202.321 6.4241 189 7.18982C165.322 8.5509 141.232 27.1926 121.741 39.4537C115.445 43.4143 97.002 49.1559 95 56z"/>
<path style="fill:#d1b09d; stroke:none;" d="M167 9L167 11L170 11L170 9L167 9M221 9L221 11L224 11L224 9L221 9z"/>
<path style="fill:#a8a8aa; stroke:none;" d="M157 14L157 15L162 15L162 13L157 14z"/>
<path style="fill:#d1b09d; stroke:none;" d="M228 13L228 15L232 15L232 13L228 13M148 23L149 23L155 20L155 19L151 19L153 17C149.388 16.9187 148.501 19.774 148 23z"/>
<path style="fill:#a8a8aa; stroke:none;" d="M151 19C153.993 18.9358 155.346 19.0539 156 16L151 19z"/>
<path style="fill:#d1b09d; stroke:none;" d="M236 17L236 19L239 19L239 17L236 17M144 20L143 24L147 24L147 23L144 23L146 21L144 20z"/>
<path style="fill:#a8a8aa; stroke:none;" d="M144 23L148 20L144 23z"/>
<path style="fill:#d1b09d; stroke:none;" d="M243 21L243 23L247 23L247 21L243 21z"/>
<path style="fill:#e5cfb2; stroke:none;" d="M147.667 23.3333L148.333 23.6667L147.667 23.3333z"/>
<path style="fill:#d1b09d; stroke:none;" d="M139 24L139 25L141 27L142 27L139 24M248 27L252 25C249.588 23.6452 248.568 24.3511 248 27M136.333 25.6667L136.667 26.3333L136.333 25.6667z"/>
<path style="fill:#a8a8aa; stroke:none;" d="M136 28L141 25L136 28M250 25L250 27L253 27L253 25L250 25z"/>
<path style="fill:#d1b09d; stroke:none;" d="M253 25L251 27L251 28L255 31L256 31L259 29L259 28L253 25M132 28L132 29L135 29L132 28z"/>
<path style="fill:#a8a8aa; stroke:none;" d="M130 30L130 31L135 31L135 29L130 30M256 29L256 31L260 31L260 29L256 29z"/>
<path style="fill:#d1b09d; stroke:none;" d="M260 29L257 31L257 32C259.348 31.7058 260.951 31.5066 260 29M123.333 33.6667L123.667 34.3333L123.333 33.6667z"/>
<path style="fill:#a8a8aa; stroke:none;" d="M124 33L124 35L127 35L127 33L124 33z"/>
<path style="fill:#d1b09d; stroke:none;" d="M263 33L263 35L265 35L265 33L263 33z"/>
<path style="fill:#a8a8aa; stroke:none;" d="M265.333 33.6667L265.667 34.3333L265.333 33.6667z"/>
<path style="fill:#d1b09d; stroke:none;" d="M266 33L266 35L268 35L268 33L266 33M116.333 37.6667L116.667 38.3333L116.333 37.6667z"/>
<path style="fill:#a8a8aa; stroke:none;" d="M117 37L117 39L120 39L120 37L117 37z"/>
<path style="fill:#d1b09d; stroke:none;" d="M270 37L270 39L274 39L274 37L270 37M276 43L277 43L279 43C280.622 39.8949 276.763 39.4387 276 43M110.333 41.6667L110.667 42.3333L110.333 41.6667z"/>
<path style="fill:#a8a8aa; stroke:none;" d="M111 41L111 43L113 43L113 41L111 41M277 41L277 43L279 43L279 41L277 41z"/>
<path style="fill:#d1b09d; stroke:none;" d="M104 45L104 47L107 47L107 45L104 45M284.333 45.6667L284.667 46.3333L284.333 45.6667z"/>
<path style="fill:#a8a8aa; stroke:none;" d="M285.333 45.6667L285.667 46.3333L285.333 45.6667z"/>
<path style="fill:#d1b09d; stroke:none;" d="M286.333 45.6667L286.667 46.3333L286.333 45.6667M97 49L97 51L99 51L99 49L97 49M89 53L89 55L92 55L92 53L89 53M82 57L82 59L85 59L85 57L82 57M76.3333 61.6667L76.6667 62.3333L76.3333 61.6667z"/>
<path style="fill:#a8a8aa; stroke:none;" d="M77 61L77 63L79 63L79 61L77 61z"/>
<path style="fill:#d1b09d; stroke:none;" d="M313 61L313 63L315 63L315 61L313 61M69 65L69 67L71 67L71 65L69 65M318 65L318 67L321 67L321 65L318 65M61.3333 69.6667L61.6667 70.3333L61.3333 69.6667z"/>
<path style="fill:#a8a8aa; stroke:none;" d="M62 69L62 71L64 71L64 69L62 69z"/>
<path style="fill:#d1b09d; stroke:none;" d="M64.3333 69.6667L64.6667 70.3333L64.3333 69.6667z"/>
<path style="fill:#a8a8aa; stroke:none;" d="M325 69L325 71L327 71L327 69L325 69z"/>
<path style="fill:#d1b09d; stroke:none;" d="M327.333 69.6667L327.667 70.3333L327.333 69.6667z"/>
<path style="fill:#a8a8aa; stroke:none;" d="M54 74L54 75L58 73L54 74z"/>
<path style="fill:#d1b09d; stroke:none;" d="M333 73L333 75L335 75L335 73L333 73M53 75L53 76L57 76L53 75M47.3333 77.6667L47.6667 78.3333L47.3333 77.6667z"/>
<path style="fill:#a8a8aa; stroke:none;" d="M48 77L48 79L51 79L51 77L48 77M340 77L340 79L343 79L343 77L340 77z"/>
<path style="fill:#d1b09d; stroke:none;" d="M343.333 77.6667L343.667 78.3333L343.333 77.6667M40.3333 81.6667L40.6667 82.3333L40.3333 81.6667z"/>
<path style="fill:#a8a8aa; stroke:none;" d="M41 81L41 83L43 83L43 81L41 81z"/>
<path style="fill:#d1b09d; stroke:none;" d="M43.3333 81.6667L43.6667 82.3333L43.3333 81.6667z"/>
<path style="fill:#a8a8aa; stroke:none;" d="M345 81L345 82L350 83L350 81L345 81z"/>
<path style="fill:#d1b09d; stroke:none;" d="M350 82L348 83L348 84L350 82M352 87L353 87L355 85C352.86 83.8822 352.473 84.7492 352 87z"/>
<path style="fill:#a8a8aa; stroke:none;" d="M353 85L353 87L356 87L356 85L353 85z"/>
<path style="fill:#d1b09d; stroke:none;" d="M356.333 85.6667L356.667 86.3333L356.333 85.6667M358 88L363 92L358 88z"/>
<path style="fill:#a8a8aa; stroke:none;" d="M360 89L360 91L362 91L362 89L360 89z"/>
<path style="fill:#e5cfb2; stroke:none;" d="M215 125L216 125L224 116C225.199 125.429 230.288 129.922 240 127C243.595 136.704 263.222 141.678 271.123 134.49C279.73 126.661 279.33 116.525 278 106L274 106C272.334 96.3786 258.632 101.035 252 99L252 97C263.838 94.6716 271.917 94.7569 284 97C269.427 83.274 246.424 95.0222 233.004 103.049C224.627 108.06 215.775 114.317 215 125z"/>
<path style="fill:#d1b09d; stroke:none;" d="M364 92L364 93L367 93L364 92M263 93L263 94L276 97L263 93z"/>
<path style="fill:#a8a8aa; stroke:none;" d="M364 93L375 104L375 100L364 93z"/>
<path style="fill:#d1b09d; stroke:none;" d="M252 97L252 99C258.947 101.916 270.986 96.4278 274 106L278 106C278.696 114.814 279.873 121.945 274.456 129.714C266.383 141.293 246.889 139.186 240 127C235.453 127.774 230.101 128.384 226.477 124.542C223.607 121.499 225.674 117.367 221 116L221 117L223 127L269 142L275 139L274 135L280 135L277 131C280.029 122.834 286.345 109.186 277.566 101.854C272.404 97.5423 265.448 100.836 262 94L252 97z"/>
<path style="fill:#a8a8aa; stroke:none;" d="M262 94C264.249 101.41 272.698 97.7935 277.566 102.513C285.962 110.652 279.084 122.304 277 131L280 135L274 135L275 139L272 140L271 143L288 139L291 143L290 134C292.622 135.806 298.171 136.625 298.998 140.073C301.145 149.028 290.076 165.321 299 173C297.16 160.484 302.74 151.44 302.985 139C303.259 125.031 295.459 104.33 282.715 97.1798C278.69 94.9219 266.881 94.2635 262 94M255 97L255 99L259 99L259 97L255 97z"/>
<path style="fill:#d1b09d; stroke:none;" d="M284 97L288 102L284 97z"/>
<path style="fill:#e5cfb2; stroke:none;" d="M285 97L292 105L285 97z"/>
<path style="fill:#d1b09d; stroke:none;" d="M372 98L372 100L374 100L372 98M375 100L375 104L376 104L375 100z"/>
<path style="fill:#f8fcfc; stroke:none;" d="M249 124C251.376 141.036 259.202 122.67 261 116L255 119L254 119L259 108C252.688 108.099 247.685 99.1337 242.058 102.043C231.934 107.277 240.59 122.65 249 124z"/>
<path style="fill:#d1b09d; stroke:none;" d="M292.333 105.667L292.667 106.333L292.333 105.667M376 105L376 109L377 109L379 106L376 105z"/>
<path style="fill:#e5cfb2; stroke:none;" d="M293 106C297.309 116.992 303.866 127.689 303.406 140C303.053 149.453 296.718 158.562 298.259 168C301.456 187.58 310.015 205.737 310.414 226C310.679 239.474 304.018 251.934 303.444 265C303.062 273.681 309.675 279.097 306.151 288C303.728 294.122 300.295 299.797 298.09 306C294.363 316.482 293.786 335.682 280 338.353C268.144 340.65 255.903 332.619 245 329.704C222.458 323.678 199.502 315.555 178 306.252C163.43 299.947 147.668 291.092 132 288L132 289C167.873 305.178 205.051 320.657 243 331.698C254.295 334.985 272.219 345.12 283.985 339.152C295.82 333.149 298.197 313.529 302.446 302.039C305.236 294.497 309.833 288.309 309.985 280.001C310.107 273.269 305.801 267.737 306.773 261C308.383 249.851 314.217 235.083 312.66 224C310.855 211.154 308.692 197.641 305.485 185C303.896 178.735 300.074 172.525 299.563 166C299.077 159.787 303.331 153.916 304.522 148C307.031 135.525 303.271 114.246 293 106z"/>
<path style="fill:#a8a8aa; stroke:none;" d="M377 106L377 110L379 110L379 106L377 106z"/>
<path style="fill:#d1b09d; stroke:none;" d="M9.66667 110.333L10.3333 110.667L9.66667 110.333M295.333 110.667L295.667 111.333L295.333 110.667M377.667 110.333L378.333 110.667L377.667 110.333z"/>
<path style="fill:#a8a8aa; stroke:none;" d="M9.66667 111.333L10.3333 111.667L9.66667 111.333z"/>
<path style="fill:#d1b09d; stroke:none;" d="M9.66667 112.333L10.3333 112.667L9.66667 112.333M381.667 113.333L382.333 113.667L381.667 113.333z"/>
<path style="fill:#a8a8aa; stroke:none;" d="M381 114L381 118L383 118L383 114L381 114z"/>
<path style="fill:#d1b09d; stroke:none;" d="M297 115L298 119L299 119L297 115z"/>
<path style="fill:#a8a8aa; stroke:none;" d="M221 117L217 126L223 127L223 117L221 117z"/>
<path style="fill:#d1b09d; stroke:none;" d="M5 118L5 120L7 120L7 118L5 118M381.667 118.333L382.333 118.667L381.667 118.333M299.333 119.667L299.667 120.333L299.333 119.667z"/>
<path style="fill:#a8a8aa; stroke:none;" d="M5 120L5 123L7 123L7 120L5 120z"/>
<path style="fill:#d1b09d; stroke:none;" d="M217 120L217 122L219 120L217 120M5.66667 123.333L6.33333 123.667L5.66667 123.333M216 123L215 128L172 135L172 136C178.535 135.847 183.748 132.745 190.004 131.404C197.374 129.823 204.662 130.059 211.956 128.852C215.325 128.294 216.839 126.154 216 123z"/>
<path style="fill:#a57e6a; stroke:none;" d="M296 123L295 132L298 132L298 123L296 123z"/>
<path style="fill:#a8a8aa; stroke:none;" d="M387 123L386 129L388 129L387 123z"/>
<path style="fill:#a57e6a; stroke:none;" d="M171 139C187.889 131.797 210 128.576 228 131C225.945 128.803 222.958 125.993 219.754 125.701C216.663 125.42 214.055 128.405 210.985 128.856C200.815 130.349 177.472 129.801 171 139z"/>
<path style="fill:#d1b09d; stroke:none;" d="M300.333 125.667L300.667 126.333L300.333 125.667M385 125L385 128L386 128L385 125z"/>
<path style="fill:#e5cfb2; stroke:none;" d="M157 138L145.259 148.665L130.525 164.571L111.665 174.599L97.0494 197.039L90 211L82 218C81.1029 223.777 77.8729 228.998 78.2099 235C78.907 247.419 92.9187 265.696 104 271C97.0984 258.772 80.061 249.762 80.0802 234C80.094 222.787 91.9113 210.226 97.4815 200.985C102.396 192.832 106.277 182.534 114.039 176.542C118.66 172.975 125.021 172.764 129.286 169.487C138.746 162.218 145.361 151.343 154.985 144.09C171.258 131.827 195.211 128 215 128L215 126L190.09 127.552L157 138z"/>
<path style="fill:#da995b; stroke:none;" d="M224 127L224 128L232 131L232 129L224 127z"/>
<path style="fill:#d1b09d; stroke:none;" d="M301.333 127.667L301.667 128.333L301.333 127.667z"/>
<path style="fill:#da995b; stroke:none;" d="M199 129L199 130L203 130L199 129z"/>
<path style="fill:#885746; stroke:none;" d="M216 129L216 130L221 130L216 129z"/>
<path style="fill:#d1b09d; stroke:none;" d="M387.333 129.667L387.667 130.333L387.333 129.667M0 130L0 131L3 132L0 130z"/>
<path style="fill:#da995b; stroke:none;" d="M194 130L194 131L199 131L194 130z"/>
<path style="fill:#bf573e; stroke:none;" d="M204 131L204 132L232 133C223.715 127.939 213.16 131 204 131z"/>
<path style="fill:#d1b09d; stroke:none;" d="M302.333 130.667L302.667 131.333L302.333 130.667z"/>
<path style="fill:#a8a8aa; stroke:none;" d="M0 131L0 301C3.92744 298.454 2.76583 294.242 3.16975 290C4.12231 279.997 4 270.058 4 260L4 176C4 161.613 6.11272 144.909 2 131L0 131z"/>
<path style="fill:#da995b; stroke:none;" d="M189.667 131.333L190.333 131.667L189.667 131.333z"/>
<path style="fill:#d4862f; stroke:none;" d="M229.667 131.333L230.333 131.667L229.667 131.333z"/>
<path style="fill:#a57e6a; stroke:none;" d="M231 131L231 132L281.985 150.19L293.956 163.429L299 175C295.896 166.918 296.209 159.505 297.174 151C297.6 147.247 301.025 141.892 298.802 138.328C297.256 135.848 292.536 135.205 290 134L291 143L288 139L269 142.722L231 131z"/>
<path style="fill:#da995b; stroke:none;" d="M233 131L233 132L242 135L233 131z"/>
<path style="fill:#885746; stroke:none;" d="M182 136L182 137L208 133C200.682 130.142 188.718 132.304 182 136z"/>
<path style="fill:#bf573e; stroke:none;" d="M198 132L198 133L203 133L198 132z"/>
<path style="fill:#b5501f; stroke:none;" d="M153 153C151.819 157.347 144.013 163.879 148 168L148 169L134 170C137.467 175.347 142.934 171.432 148 171.218C157.461 170.819 170.465 175.82 179 179.576C182.12 180.949 187.18 182.692 187.211 186.846C187.27 194.599 177.856 199.966 176 207L177 207C180.838 205.456 180.904 210.03 181 213L175 213L175 209L174 209L175 219L171 219L171 224L180 220L179 228L189 230L187 235L193 240C187.752 239.596 185.69 237.145 185 232C181.59 232.263 180.099 232.679 179 236L170 234L171 227C164.418 229.224 157.18 235.632 158 243L134 238L135 234L126 235L126 236L160 246L161 237L169 239L169 243L172 240L187 248L187 244L192 244L193 252C199.132 250.27 199.962 253.411 205 256L204 268L201 268C202.055 278.196 211.409 279.968 220 281L220 282C214.869 285.698 220.434 288.323 223.546 291.27C228.802 296.25 238.988 296.297 246 295L246 291C236.08 290.242 246.086 278.807 247 272L237 274L238 269C247.483 268.165 246.176 264.478 244 257L245 256L247 256L248 260L256 258C256.744 244.378 272.003 245.541 266 232L265 232C263.233 243.038 248.97 227.758 243 226L244 230L236 230L236 229L242 226L222 230C222.493 222.402 222.962 209.816 231 207L231 206L217.897 199.544L177.576 176.598L160 168L242 182C246.591 172.898 258.63 177.257 257 164L266 169C268.894 165.819 270.788 165.352 275 166L275 153L268 152L269 148L258 145C259.928 148.498 262.122 148.875 266 149L266 155C263.108 153.656 248.115 151.818 253 148C250.688 144.027 247.575 141.685 243 141C244.266 145.327 243.612 147.258 239 148L239 144L217 140L226 151L230 155C234.196 154.87 235.856 156.5 238 160L232 160L232 163L240 163C235.877 171.622 220.934 172.98 215 166L205 170L207 166L188 165C186.849 158.104 175.089 161.894 169 161L160 163L160 160C163.138 160 173.502 152.7 170 152L170 151L181.035 145.734L194.682 143.277L197 139L231 139L231 137L236 138L236 141L243 140C224.443 125.241 192.633 134.437 173.019 142.969C165.33 146.314 162.065 151.13 153 153z"/>
<path style="fill:#8e491b; stroke:none;" d="M135 171L148 169L148 168L153 153C162.19 151.762 164.697 147.711 172.055 143.848C182.676 138.271 195.981 135.033 208 135L208 133C183.099 134.069 144.292 144.19 135 171z"/>
<path style="fill:#885746; stroke:none;" d="M231 133L231 134L233 137L236 136L236 134L231 133z"/>
<path style="fill:#da995b; stroke:none;" d="M180 134L180 135L183 135L180 134z"/>
<path style="fill:#8e491b; stroke:none;" d="M232.333 134.667L232.667 135.333L232.333 134.667z"/>
<path style="fill:#bf573e; stroke:none;" d="M236 134L235 137L243 140L236 141L236 138L231 137L231 139C221.033 134.204 207.766 139.538 197 139L194.682 142.738L180.089 145.734L170 151L170 152L172 153L160 160L160 163C163.781 163.689 166.726 164.495 169 161C175.11 162.397 186.106 158.786 188 165L207 166L205 170L215 166C219.627 174.001 237.444 171.886 240 163L232 163L232 160L238 160C236.323 155.965 234.376 154.646 230 155L226 151C226.299 144.035 221.185 143.985 217 140L239 144L239 148C244.046 147.607 245.075 145.569 243 141L253 148C244.258 149.883 263.625 154.232 266 155L266 149L258 145L265 145L265 144L236 134z"/>
<path style="fill:#da995b; stroke:none;" d="M243.667 135.333L244.333 135.667L243.667 135.333z"/>
<path style="fill:#d1b09d; stroke:none;" d="M3 136L3 142L4 142L3 136M160 141L171 137L160 141z"/>
<path style="fill:#da995b; stroke:none;" d="M171.667 136.333L172.333 136.667L171.667 136.333z"/>
<path style="fill:#bf573e; stroke:none;" d="M179 136L179 137L182 137L179 136z"/>
<path style="fill:#da995b; stroke:none;" d="M245 136L245 137L258 140L245 136M168 139L171 137L168 139z"/>
<path style="fill:#885746; stroke:none;" d="M172 140L180 138C176.668 136.617 173.994 136.924 172 140z"/>
<path style="fill:#d1b09d; stroke:none;" d="M303 137L303 141L304 141L303 137z"/>
<path style="fill:#a8a8aa; stroke:none;" d="M165 139L165 140L168 140L165 139z"/>
<path style="fill:#a57e6a; stroke:none;" d="M161 142L170 140L161 142z"/>
<path style="fill:#bf573e; stroke:none;" d="M168 140L168 141L172 140L168 140z"/>
<path style="fill:#b5501f; stroke:none;" d="M170.667 140.333L171.333 140.667L170.667 140.333z"/>
<path style="fill:#da995b; stroke:none;" d="M259 140L259 141L271 143L259 140z"/>
<path style="fill:#a8a8aa; stroke:none;" d="M159 141L159 143L161 141L159 141z"/>
<path style="fill:#885746; stroke:none;" d="M150 151L150 152L169 142C161.494 138.939 155.41 146.921 150 151z"/>
<path style="fill:#d1b09d; stroke:none;" d="M150 147L150 148L159 143L150 147z"/>
<path style="fill:#a57e6a; stroke:none;" d="M155 147L160 144L155 147z"/>
<path style="fill:#d1b09d; stroke:none;" d="M302 144L302 149L303 149L302 144z"/>
<path style="fill:#885746; stroke:none;" d="M264 145L264 146C276.594 150.694 288.459 153.191 294 167L295 167C292.966 151.723 276.854 146.624 264 145z"/>
<path style="fill:#bf573e; stroke:none;" d="M267.667 145.333L268.333 145.667L267.667 145.333z"/>
<path style="fill:#a57e6a; stroke:none;" d="M152 147L131 172L132 172L154 147L152 147z"/>
<path style="fill:#a8a8aa; stroke:none;" d="M147 152L152 149L147 152z"/>
<path style="fill:#8e491b; stroke:none;" d="M268 152L275 153L275 166C270.761 165.038 268.364 165.149 266 169L257 164C257.88 177.108 244.857 172.589 242 182C237.629 181.147 233.346 182.47 229 181.62C205.146 176.956 184.952 168.069 160 168L168 173C179.795 164.772 197.829 179.936 211 177L209 181L209 182L216 182L220 186L224 183C225.732 191.081 239.068 186.85 244 186L243 188L247 188L246 180L252 182L255 177C256.881 182.667 268.347 186.378 269 178L263 172L270 175C275.059 169.36 283.684 170.085 285 162L282 164L278 153L285 155C282.202 150.51 270.338 145.024 268 152z"/>
<path style="fill:#d1b09d; stroke:none;" d="M301 149L300 153L301 153L301 149z"/>
<path style="fill:#da995b; stroke:none;" d="M144 155L147 152L144 155z"/>
<path style="fill:#772d10; stroke:none;" d="M278 153L282 164L285 162L270 175L263 172L269 178C267.763 185.687 257.766 182.018 255 177L252 182L246 180L247 188L243 188L244 186C237.557 186.917 228.52 189.979 224 183L220 186L216 182L209 182L209 181L211 177C200.494 178.389 193.86 174.169 183.91 171.43C179.142 170.117 172.97 171.172 168 171L168 174C180.687 174.01 191.758 183.657 202.184 189.954C226.337 204.544 252.407 215.526 270.83 237.742C274.815 242.546 279.657 245.991 282 252L268 245C264.853 257.365 256.501 267.624 252.954 280.039C251.488 285.172 249.717 294.399 245 297L245 303L253 300L251 308C245.272 307.479 240.07 298.91 235.14 300.786C229.722 302.848 231.647 309.218 232.804 313.17C235.117 321.067 240.386 327.557 250 325C248.198 316.147 248.312 311.955 258 312C260.447 315.771 263.993 314.741 268 314C269.565 321.305 276.67 314.401 278.611 311C283.538 302.368 288 289.831 288 280L291 280C292.896 270.761 293.305 259.146 281 259L283 253C287.344 255.031 292.509 263.676 297.699 262.327C302.963 260.959 305.646 240.062 305.956 234.996C307.174 215.113 301.438 191.515 295.125 172.91C292.35 164.733 288.038 153.759 278 153M150 154L150 156L152 156L152 154L150 154z"/>
<path style="fill:#885746; stroke:none;" d="M141 161L146 156L141 161z"/>
<path style="fill:#8e491b; stroke:none;" d="M286 156L292 162L286 156z"/>
<path style="fill:#d1b09d; stroke:none;" d="M299 156L299 159L300 159L299 156z"/>
<path style="fill:#772d10; stroke:none;" d="M146.333 158.667L146.667 159.333L146.333 158.667z"/>
<path style="fill:#da995b; stroke:none;" d="M138 159L138 161L140 159L138 159z"/>
<path style="fill:#d1b09d; stroke:none;" d="M137 160L130 169C133.767 167.267 137.981 164.601 137 160M297 160L297 167L298 167L297 160z"/>
<path style="fill:#772d10; stroke:none;" d="M142 161L142 164L145 164L145 161L142 161z"/>
<path style="fill:#885746; stroke:none;" d="M139.333 162.667L139.667 163.333L139.333 162.667z"/>
<path style="fill:#8e491b; stroke:none;" d="M292.333 163.667L292.667 164.333L292.333 163.667z"/>
<path style="fill:#bf573e; stroke:none;" d="M244 165C243.506 168.137 243.964 169 247 170L246 165L244 165z"/>
<path style="fill:#8e491b; stroke:none;" d="M293.333 165.667L293.667 166.333L293.333 165.667z"/>
<path style="fill:#885746; stroke:none;" d="M136 166L133 172L134 172L136 166z"/>
<path style="fill:#b5501f; stroke:none;" d="M220 166L220 168L222 168L222 166L220 166z"/>
<path style="fill:#8e491b; stroke:none;" d="M294 167L294 171L295 171L294 167z"/>
<path style="fill:#da995b; stroke:none;" d="M123 172L123 173C127.746 172.885 130.353 172.069 133 168L123 172z"/>
<path style="fill:#8e491b; stroke:none;" d="M153 168L153 170L156 170L156 168L153 168z"/>
<path style="fill:#885746; stroke:none;" d="M295 168C295.875 184.862 303.596 202.155 305.812 219C307.788 234.019 303.82 251.451 298 265C303.896 260.364 304.409 251.071 306.101 244C309.432 230.077 306.32 217.645 303.924 204C301.741 191.57 300.75 179.541 295 168z"/>
<path style="fill:#d1b09d; stroke:none;" d="M104 189L120 176L128 172C118.255 168.026 107.326 181.195 104 189z"/>
<path style="fill:#bf573e; stroke:none;" d="M132 171C123.73 178.846 111.664 179.359 106 191L117 186L117 192C129.883 188.528 125.797 191.322 125 202L124 202C123.66 197.635 122.365 196.34 118 196C116.995 200.817 114.737 201.845 110 202C107.641 205.982 103.151 207.385 99.7207 210.366C91.2497 217.727 86.8155 226.498 88 238L91 238L90 225L103 221C105.688 224.075 109.892 223.251 112 220C122.666 225.669 119.636 236.851 135 234L134 238L158 243L159 236L149 234L149 236L152 239L141.745 232.829L125 234L127 230C117.562 229.28 119.98 220.867 116 215L116 209L123 210L134.522 185.725L133 176L143 175L143 173L132 171M144 171L144 172L152 172L144 171z"/>
<path style="fill:#d1b09d; stroke:none;" d="M299 171L299 174L300 174L299 171z"/>
<path style="fill:#d4862f; stroke:none;" d="M129.667 172.333L130.333 172.667L129.667 172.333M143 172L143 175L133 176L133 190C138.102 187.241 139.741 182.584 140 177C152.165 173.763 160.997 175.785 173 180.905C175.676 182.047 181.39 182.761 182.168 186.128C182.765 188.708 176.726 197.106 176 201C179.755 197.805 187.99 188.638 184.806 183.299C182.813 179.958 177.397 179.197 174 178.143C163.793 174.976 153.714 172 143 172z"/>
<path style="fill:#bf573e; stroke:none;" d="M154 172L154 173L157 173L154 172z"/>
<path style="fill:#da995b; stroke:none;" d="M120 173L120 175L122 173L120 173z"/>
<path style="fill:#a57e6a; stroke:none;" d="M108 187C115.967 182.682 121.101 174.739 131 174C121.723 170.109 112.125 179.463 108 187z"/>
<path style="fill:#da995b; stroke:none;" d="M140 177L136 189C145.679 183.347 175.51 189.821 174 203C176.972 200.596 176.141 197.424 177.585 194.144C178.906 191.143 183.239 190 182.573 186.128C181.957 182.542 175.8 181.675 173 180.46C161.904 175.643 151.087 172.197 140 177z"/>
<path style="fill:#bf573e; stroke:none;" d="M158 173L158 174L162 175L162 174L158 173z"/>
<path style="fill:#8e491b; stroke:none;" d="M295 173L297 176L295 173M169 174L169 175L183 179C178.448 174.892 175.057 174.005 169 174z"/>
<path style="fill:#a8a8aa; stroke:none;" d="M299.333 174.667L299.667 175.333L299.333 174.667z"/>
<path style="fill:#bf573e; stroke:none;" d="M162 175L162 176L168 176L162 175z"/>
<path style="fill:#da995b; stroke:none;" d="M115 176L115 178L117 176L115 176z"/>
<path style="fill:#bf573e; stroke:none;" d="M168 176L168 177L177 179L168 176z"/>
<path style="fill:#a57e6a; stroke:none;" d="M299 176L299 180L300 180L299 176z"/>
<path style="fill:#d1b09d; stroke:none;" d="M300 176L301 181L302 181L300 176z"/>
<path style="fill:#da995b; stroke:none;" d="M113 178L113 180L115 178L113 178z"/>
<path style="fill:#8e491b; stroke:none;" d="M183 179L183 180L198 187L198 185L183 179z"/>
<path style="fill:#a8a8aa; stroke:none;" d="M300 179L303 190L304 190L300 179z"/>
<path style="fill:#da995b; stroke:none;" d="M111 180L109 185L113 180L111 180z"/>
<path style="fill:#bf573e; stroke:none;" d="M180.667 180.333L181.333 180.667L180.667 180.333z"/>
<path style="fill:#a57e6a; stroke:none;" d="M300 181L300 186L301 186L300 181z"/>
<path style="fill:#bf573e; stroke:none;" d="M185 182L177 202C183.115 198.773 191.172 188.049 185 182z"/>
<path style="fill:#d1b09d; stroke:none;" d="M302 182L302 185L303 185L302 182z"/>
<path style="fill:#8e491b; stroke:none;" d="M273 183L275 186L273 183z"/>
<path style="fill:#b5501f; stroke:none;" d="M114 184L114 185L117 185L114 184z"/>
<path style="fill:#8e491b; stroke:none;" d="M253 184L253 186L255 184L253 184z"/>
<path style="fill:#d1b09d; stroke:none;" d="M139 186L139 187L156 190C151.533 186.816 144.391 184.993 139 186z"/>
<path style="fill:#d4862f; stroke:none;" d="M153 185L153 186L156 186L153 185M158 185C160.901 191.098 166.004 190 172 190L158 185z"/>
<path style="fill:#d1b09d; stroke:none;" d="M303 185L303 188L304 188L303 185z"/>
<path style="fill:#d4862f; stroke:none;" d="M107 186L106 188L108 188L107 186z"/>
<path style="fill:#b5501f; stroke:none;" d="M101 209L110 202C115.001 201.94 117.389 201.313 118 196C121.993 196.636 123.364 198.007 124 202L125 202C126.476 192.209 130.194 186.4 117 192L117 186C103.398 187.073 106.274 199.758 101 209z"/>
<path style="fill:#a57e6a; stroke:none;" d="M301.333 186.667L301.667 187.333L301.333 186.667z"/>
<path style="fill:#e5cfb2; stroke:none;" d="M125 212C130.356 212.423 151.737 217.896 149.664 208.01C149.03 204.989 146.393 202.677 145 200L140 196L155 197L155 200L160 200L160 204L155 201L154 201L153 206C155.503 207.479 159.187 212.305 162.039 212.38C168.014 212.536 176.27 200.485 172.243 195.314C169.497 191.787 162.982 192.044 159 190.986C153.579 189.546 145.738 186.102 140.09 187.357C132.924 188.949 126.03 205.483 125 212z"/>
<path style="fill:#8e491b; stroke:none;" d="M198.667 187.333L199.333 187.667L198.667 187.333z"/>
<path style="fill:#a57e6a; stroke:none;" d="M105 188L90 215L90 222L87 221L87 227C78.9148 229.946 81.2927 238.626 84 245L85 245C85.0023 223.859 100.491 207.233 107 188L105 188z"/>
<path style="fill:#8e491b; stroke:none;" d="M110 191L114 191C113.25 187.517 111.278 188.102 110 191z"/>
<path style="fill:#a57e6a; stroke:none;" d="M302.333 188.667L302.667 189.333L302.333 188.667z"/>
<path style="fill:#d1b09d; stroke:none;" d="M304 188L304 195L305 195L304 188z"/>
<path style="fill:#da995b; stroke:none;" d="M104.333 189.667L104.667 190.333L104.333 189.667z"/>
<path style="fill:#d1b09d; stroke:none;" d="M135 189L135 191L137 189L135 189z"/>
<path style="fill:#da995b; stroke:none;" d="M133 190L128 201L129 201L135 190L133 190z"/>
<path style="fill:#f8fcfc; stroke:none;" d="M147 208C133.817 211.097 137.223 194.127 148 194C145.571 182.434 130.152 199.166 130.222 205.917C130.28 211.492 145.852 213.355 147 208z"/>
<path style="fill:#d1b09d; stroke:none;" d="M157 190L157 191L160 191L157 190z"/>
<path style="fill:#bf573e; stroke:none;" d="M188 190L192 201L188 201L189 208L191 208C192.719 203.409 194.325 200.851 199 199L197 190L188 190z"/>
<path style="fill:#8e491b; stroke:none;" d="M201 190C205.645 196.136 223.493 205.932 231 206L231 205L201 190z"/>
<path style="fill:#a57e6a; stroke:none;" d="M303 190L308 231L309 231C308.966 218.525 307.876 201.513 303 190z"/>
<path style="fill:#d1b09d; stroke:none;" d="M103.333 191.667L103.667 192.333L103.333 191.667z"/>
<path style="fill:#a57e6a; stroke:none;" d="M131 191L130 195L131 195L133 191L131 191z"/>
<path style="fill:#d1b09d; stroke:none;" d="M160.667 191.333L161.333 191.667L160.667 191.333z"/>
<path style="fill:#a8a8aa; stroke:none;" d="M102 192L100 198L101 198L102 192z"/>
<path style="fill:#bf573e; stroke:none;" d="M105 192L104 196L105 196L105 192z"/>
<path style="fill:#d1b09d; stroke:none;" d="M166 192L166 193L169 193L166 192z"/>
<path style="fill:#8e491b; stroke:none;" d="M240 192L243 194L240 192z"/>
<path style="fill:#d1b09d; stroke:none;" d="M171 193L174 200L175 200L171 193z"/>
<path style="fill:#8e491b; stroke:none;" d="M249.667 193.333L250.333 193.667L249.667 193.333z"/>
<path style="fill:#d1b09d; stroke:none;" d="M100.333 194.667L100.667 195.333L100.333 194.667M132.333 194.667L132.667 195.333L132.333 194.667z"/>
<path style="fill:#f8fcfc; stroke:none;" d="M158 194L164 207C175.182 203.325 165.16 194.586 158 194z"/>
<path style="fill:#a8a8aa; stroke:none;" d="M304 195L304 198L305 198L304 195z"/>
<path style="fill:#d1b09d; stroke:none;" d="M140 196L145 200C146.045 203.293 149.921 206.326 149.534 209.942C148.777 217.007 129.812 212.207 125 212L125 213C139.077 216.468 163.414 221.873 171 207L162.039 211.836L153 206L154 201L155 201L160 204L160 200L155 200L155 197L140 196M305 196L307 209L308 209L305 196M99 197L95 206C97.8423 203.555 100.049 200.837 99 197z"/>
<path style="fill:#885746; stroke:none;" d="M103 197L94 215C99.7575 211.928 105.368 203.675 103 197z"/>
<path style="fill:#a57e6a; stroke:none;" d="M127 197L127 200L128 200L129 197L127 197z"/>
<path style="fill:#d1b09d; stroke:none;" d="M130 197L129 201L130 201L132 197L130 197z"/>
<path style="fill:#bf573e; stroke:none;" d="M205 197L201 205C207.182 203.727 214.706 200.594 214 210L219 211L219 201L205 197z"/>
<path style="fill:#8e491b; stroke:none;" d="M104 198L102 207L103 207L104 198z"/>
<path style="fill:#a8a8aa; stroke:none;" d="M152 204L152 199C148.156 200.277 148.156 202.723 152 204M305.333 199.667L305.667 200.333L305.333 199.667z"/>
<path style="fill:#d4862f; stroke:none;" d="M127 200L123 209L124 209L127 200z"/>
<path style="fill:#d1b09d; stroke:none;" d="M173 200L171 206L173 200z"/>
<path style="fill:#8e491b; stroke:none;" d="M301 200L301 203L302 203L301 200z"/>
<path style="fill:#d1b09d; stroke:none;" d="M128 201L126 206L128 201z"/>
<path style="fill:#a57e6a; stroke:none;" d="M149 201L149 203L151 203L151 201L149 201M176.333 201.667L176.667 202.333L176.333 201.667z"/>
<path style="fill:#d4862f; stroke:none;" d="M174 203L174 205L176 203L174 203z"/>
<path style="fill:#bf573e; stroke:none;" d="M176 203L166.976 224.91L160 236L161 236L171 227L170 234L179 236L185 232C185.379 237.629 187.343 239.812 193 240L187 235L189 230L179 228L180 220L171 224L171 219L175 219L176 203z"/>
<path style="fill:#8e491b; stroke:none;" d="M302.333 203.667L302.667 204.333L302.333 203.667z"/>
<path style="fill:#b5501f; stroke:none;" d="M120 204L120 207L121 207L120 204z"/>
<path style="fill:#d1b09d; stroke:none;" d="M140 204L140 207L144 207L144 204L140 204z"/>
<path style="fill:#da995b; stroke:none;" d="M173 204C170.624 207.522 168.007 213.796 163.87 215.411C154.619 219.024 123.75 217.908 126 205L125 205C123.573 208.381 121.352 213.967 124 217C117.702 226.059 128.905 222.23 133.816 223.05C137.697 223.699 139.545 226.852 144 227C146.712 222.516 157.608 227.955 163 228L163 223L147 220L147 219C158.915 217.268 163.373 222.358 170.576 210.87C172.055 208.511 173.715 206.75 173 204z"/>
<path style="fill:#a57e6a; stroke:none;" d="M174.333 205.667L174.667 206.333L174.333 205.667z"/>
<path style="fill:#8e491b; stroke:none;" d="M177 205L175 213L181 213C180.953 209.065 181.046 206.343 177 205z"/>
<path style="fill:#d1b09d; stroke:none;" d="M93 206L89 216L90 216L95 206L93 206z"/>
<path style="fill:#8e491b; stroke:none;" d="M231 206L234 208L231 206z"/>
<path style="fill:#d1b09d; stroke:none;" d="M125.333 207.667L125.667 208.333L125.333 207.667z"/>
<path style="fill:#a57e6a; stroke:none;" d="M172 207L171 214L172 214L174 207L172 207z"/>
<path style="fill:#bf573e; stroke:none;" d="M222 230L242 226L236 229L236 230L244 230L243 226C247.633 228.201 257.779 238.628 262.681 237.249C267.264 235.961 262.624 230.52 260.941 229.054C254.776 223.684 244.854 214.178 237 212L237 213L246 218C241.268 230.89 229.748 211.844 228 220C223.429 215.467 226.278 209.694 232 208C222.954 204.892 222.176 224.038 222 230z"/>
<path style="fill:#a8a8aa; stroke:none;" d="M152 208L157 212L152 208z"/>
<path style="fill:#d4862f; stroke:none;" d="M228 220C232.581 213.289 242.055 231.598 246 218C241.312 216.122 234.864 208.599 230.066 208.635C224.281 208.679 224.275 217.583 228 220z"/>
<path style="fill:#b5501f; stroke:none;" d="M232 208L232 209L235 209L232 208z"/>
<path style="fill:#8e491b; stroke:none;" d="M235 208L240 212L240 211L235 208M302 208L302 212L303 212L302 208z"/>
<path style="fill:#d4862f; stroke:none;" d="M116 209L116 215C119.286 221.556 117.372 229.684 127 230L126 233L141.745 233.435L152 239L149 236L149 234C152.12 233.637 155.996 236.083 158.65 235.253C166.779 232.71 170.46 216.085 172 209L171 209C163.748 222.097 159.574 216.162 147 219L147 220L163 223L163 228C157.461 227.886 145.949 221.209 144 227C139.752 226.673 138.357 223.819 134.675 222.724C129.753 221.259 119.399 226.551 124 217L123 210L116 209z"/>
<path style="fill:#a57e6a; stroke:none;" d="M153 209L153 211L155 211L155 209L153 209z"/>
<path style="fill:#bf573e; stroke:none;" d="M233 209L233 210L236 211L233 209z"/>
<path style="fill:#a8a8aa; stroke:none;" d="M307 209L307 214L308 214L307 209z"/>
<path style="fill:#a57e6a; stroke:none;" d="M234 210L237 213L234 210z"/>
<path style="fill:#b5501f; stroke:none;" d="M236.667 211.333L237.333 211.667L236.667 211.333z"/>
<path style="fill:#d1b09d; stroke:none;" d="M308 211L309 234L310 234L308 211z"/>
<path style="fill:#a8a8aa; stroke:none;" d="M91 212L91 215L92 215L91 212z"/>
<path style="fill:#b5501f; stroke:none;" d="M97.6667 212.333L98.3333 212.667L97.6667 212.333z"/>
<path style="fill:#bf573e; stroke:none;" d="M185 212L185 215L188 215L188 212L185 212z"/>
<path style="fill:#8e491b; stroke:none;" d="M240 212C245.445 218.635 254.339 224.108 260.985 229.745C263.887 232.206 268.762 235.311 268.211 239.811C267.75 243.583 263.164 243.522 260.876 245.599C257.233 248.905 256.113 253.312 256 258L248 260L247 256L245 256L244 257C245.094 264.292 247.185 267.616 238 269L237 274L247 272C245.291 278.957 234.777 290.631 246 291L246 295C238.379 295.941 229.197 295.807 223.546 290.509C220.342 287.506 216.337 286.201 220 282L220 281C211.715 279.028 202.817 277.998 201 268L204 268L205 256C200.344 252.419 199.078 249.474 193 252L192 244L187 244L187 248L172 240L169 243L169 239L161 237L160 246L125.004 235.147L112 228L113 225L108 225L108 229C104.966 229.105 100.077 228.499 97.4182 230.103C93.5171 232.455 85.9521 244.084 90 247C92.4977 244.09 97.0129 237.125 100.147 235.514C111.156 229.856 122.486 236.614 132.17 241.335C142.442 246.343 156.907 250.371 168 247C170.099 250.58 173.503 254.867 178.015 255.243C182.309 255.601 184.405 252.668 188 256L183 256L189 266C192.91 264.921 194.391 262.975 195 259L199 259C198.194 263.243 195.09 267.596 196.863 271.961C200.052 279.812 211.155 281.85 215.302 289.043C219.272 295.927 210.276 310.501 203 311L203 312L237 323L237 322C233.53 318.598 227.232 300.872 236.965 300.867C241.772 300.865 244.796 307.711 251 308L253 300L245 303L245 297L251.742 285L260.583 261.128L268 245L282 252C280.503 245.751 275.56 242.379 271.535 237.742C263.012 227.922 252.299 216.912 240 212M303 212L305 215L303 212M204 213L198 226L207 228L207 239L203 235L199 235L204 239C202.937 244.99 199.524 250.353 208 251C211.933 240.755 224.36 226.341 222 215L212 214L214 218L204 213z"/>
<path style="fill:#da995b; stroke:none;" d="M88 216L85 227L86 227L90 216L88 216z"/>
<path style="fill:#b5501f; stroke:none;" d="M244 216L244 217L247 217L244 216z"/>
<path style="fill:#8e491b; stroke:none;" d="M305 216L305 224L306 224L305 216z"/>
<path style="fill:#d4862f; stroke:none;" d="M89 217L89 222L90 222L91 217L89 217z"/>
<path style="fill:#b5501f; stroke:none;" d="M247.333 217.667L247.667 218.333L247.333 217.667z"/>
<path style="fill:#bf573e; stroke:none;" d="M181.667 218.333L182.333 218.667L181.667 218.333z"/>
<path style="fill:#d1b09d; stroke:none;" d="M85 219L81 228C85.5853 227.759 85.4253 222.707 87 219L85 219z"/>
<path style="fill:#d4862f; stroke:none;" d="M133 219L133 220L138 220L133 219z"/>
<path style="fill:#b5501f; stroke:none;" d="M231 219L230 224L235 224L231 219M248 219L248 221L250 221L248 219M112 220C109.124 222.934 106.369 223.536 103 221L90 225L92 239C97.7355 231.902 98.1713 229.75 108 229L108 225L113 225L112 228L120 233C120.876 227.973 116.777 221.528 112 220M214 227L211 220C203.168 221.307 208.906 226.643 214 227z"/>
<path style="fill:#a8a8aa; stroke:none;" d="M308 220L308 223L309 223L308 220z"/>
<path style="fill:#b5501f; stroke:none;" d="M251.333 221.667L251.667 222.333L251.333 221.667z"/>
<path style="fill:#d4862f; stroke:none;" d="M248 223C248.888 228.342 254.208 230.427 259 232L251 223L248 223z"/>
<path style="fill:#b5501f; stroke:none;" d="M252 223L257 226L257 225L252 223z"/>
<path style="fill:#d1b09d; stroke:none;" d="M3 224L3 237L4 237L3 224z"/>
<path style="fill:#bf573e; stroke:none;" d="M192 224L192 227L195 227L195 224L192 224z"/>
<path style="fill:#d4862f; stroke:none;" d="M86.3333 225.667L86.6667 226.333L86.3333 225.667z"/>
<path style="fill:#a8a8aa; stroke:none;" d="M309 225L309 228L310 228L309 225M81 228L81 232L82 232L81 228z"/>
<path style="fill:#d1b09d; stroke:none;" d="M80 229L82 244L83 244L80 229z"/>
<path style="fill:#b5501f; stroke:none;" d="M109.667 229.333L110.333 229.667L109.667 229.333z"/>
<path style="fill:#bf573e; stroke:none;" d="M230 231L230 236C236.127 235.523 236.127 231.477 230 231z"/>
<path style="fill:#a8a8aa; stroke:none;" d="M308 231L308 236L309 236L308 231z"/>
<path style="fill:#772d10; stroke:none;" d="M211 232L211 234L213 234L213 232L211 232z"/>
<path style="fill:#a57e6a; stroke:none;" d="M307 232L307 241L308 241L307 232z"/>
<path style="fill:#885746; stroke:none;" d="M86 233C84.2406 238.952 83.5404 246.259 90 249C87.3587 242.934 90.0994 243.31 92 238L88 238L86 233z"/>
<path style="fill:#772d10; stroke:none;" d="M127 255L124 266C129.43 262.92 133.387 255.932 131 250C141.088 253.196 133.62 268.421 125 269C124.248 288.086 150.114 288.149 164 291L161 280C165.973 279.612 166.735 277.738 166 273L174 271C175.417 280.726 186.72 275.412 187 287L181 295C182.731 303.691 199.117 315.079 208.467 310.141C212.417 308.055 215.72 297.207 216.388 293C217.734 284.526 203.019 279.434 198.573 273.826C194.694 268.932 198.426 264.326 199 259L195 259L189 266L183 256L188 256L177.039 254.629L168 247C156.745 249.711 143.488 246.259 133.09 241.335C126.631 238.276 119.465 232.966 112 233.34C94.6242 234.209 82.2039 251.653 103.043 261.061C112.288 265.235 118.602 255.115 127 255z"/>
<path style="fill:#b5501f; stroke:none;" d="M121.667 233.333L122.333 233.667L121.667 233.333z"/>
<path style="fill:#a57e6a; stroke:none;" d="M125.667 233.333L126.333 233.667L125.667 233.333z"/>
<path style="fill:#d4862f; stroke:none;" d="M260 233L260 235L263 235L263 233L260 233z"/>
<path style="fill:#b5501f; stroke:none;" d="M123.667 234.333L124.333 234.667L123.667 234.333z"/>
<path style="fill:#bf573e; stroke:none;" d="M218 242L227 241C224.765 234.072 216.441 233.569 218 242z"/>
<path style="fill:#885746; stroke:none;" d="M124.667 235.333L125.333 235.667L124.667 235.333z"/>
<path style="fill:#a8a8aa; stroke:none;" d="M81 236L81 239L82 239L81 236z"/>
<path style="fill:#bf573e; stroke:none;" d="M245 236L245 238L247 238L247 236L245 236z"/>
<path style="fill:#d1b09d; stroke:none;" d="M308 236L308 245L309 245L308 236z"/>
<path style="fill:#bf573e; stroke:none;" d="M232 240L232 242L235 242L235 240L232 240z"/>
<path style="fill:#8e491b; stroke:none;" d="M303 241L303 246L304 246L303 241z"/>
<path style="fill:#a8a8aa; stroke:none;" d="M307 241L307 247L308 247L307 241z"/>
<path style="fill:#a57e6a; stroke:none;" d="M306 242L299.319 267.004L302.606 289L294 311L295 311L304.91 284L301.334 265.87L306 242z"/>
<path style="fill:#d1b09d; stroke:none;" d="M83 244L83 247L84 247L83 244z"/>
<path style="fill:#bf573e; stroke:none;" d="M225 244L224 246L226 246L225 244z"/>
<path style="fill:#a8a8aa; stroke:none;" d="M84 245L88 250L84 245z"/>
<path style="fill:#bf573e; stroke:none;" d="M213 246L206 266L212 271L229 275L223 259L213 264L213 260L223 256L213 246z"/>
<path style="fill:#d1b09d; stroke:none;" d="M307.333 247.667L307.667 248.333L307.333 247.667z"/>
<path style="fill:#a57e6a; stroke:none;" d="M88 248C89.6356 253.885 95.1486 261.82 101 264L101 263L88 248z"/>
<path style="fill:#8e491b; stroke:none;" d="M244 252L252 255C250.828 250.873 246.118 245.709 244 252z"/>
<path style="fill:#a8a8aa; stroke:none;" d="M306 248L305 254L306 254L306 248z"/>
<path style="fill:#bf573e; stroke:none;" d="M225 249L225 250L228 250L225 249z"/>
<path style="fill:#d1b09d; stroke:none;" d="M87 250L89 253L87 250z"/>
<path style="fill:#885746; stroke:none;" d="M90 250L97 258L90 250z"/>
<path style="fill:#8e491b; stroke:none;" d="M131 250C132.564 256.251 128.727 261.95 124 266L127 255C114.634 253.116 107.773 270.21 97 254L96 254C99.4744 266.73 118.921 264.528 121 278L127 280L125 269C134.252 268.725 141.293 251.788 131 250z"/>
<path style="fill:#d1b09d; stroke:none;" d="M306 250L306 253L307 253L306 250z"/>
<path style="fill:#a8a8aa; stroke:none;" d="M89 252L95 260L89 252z"/>
<path style="fill:#b5501f; stroke:none;" d="M260 252L260 255L262 255L262 252L260 252z"/>
<path style="fill:#d4862f; stroke:none;" d="M209 253L209 260C212.801 258.735 212.768 256.688 212 253L209 253z"/>
<path style="fill:#8e491b; stroke:none;" d="M283 253L281 259C293.198 259.397 292.071 271.165 291 280L288 280C287.967 289.431 283.144 301.708 278.556 309.999C276.276 314.12 271.716 319.706 268 314C263.828 314.513 261.112 315.141 258 312C248.115 311.112 247.494 316.06 250 325L247 326L247 327L271 334L271 333L269 333L269 332L283 334L276 331L276 330L290 324L294 303L289 304L288 296L297 299L297 288L296 288L290 292L298 263L283 253z"/>
<path style="fill:#d1b09d; stroke:none;" d="M305.333 254.667L305.667 255.333L305.333 254.667z"/>
<path style="fill:#a8a8aa; stroke:none;" d="M304 256L304 259L305 259L304 256z"/>
<path style="fill:#772d10; stroke:none;" d="M189 257L189 259L192 259L192 257L189 257z"/>
<path style="fill:#885746; stroke:none;" d="M97 259C109.285 279.1 139.353 287.706 160 295.129C187.316 304.949 213.381 316.785 241 326C257.27 331.429 290.141 347.709 291 318L290 318L290 324L276 330L276 331L283 334C263.275 334 246.667 325.223 228.715 318.471C218.192 314.513 207.343 313.772 197 309.486C177.146 301.26 158.086 292.866 138 285.193C132.192 282.974 127.151 279.318 121 278C120.255 268.121 105.239 262.415 97 259z"/>
<path style="fill:#8e491b; stroke:none;" d="M237 259L237 264L240 264L240 259L237 259z"/>
<path style="fill:#d1b09d; stroke:none;" d="M304 259L304 262L305 262L304 259M95 260L97 263L95 260z"/>
<path style="fill:#8e491b; stroke:none;" d="M299.333 261.667L299.667 262.333L299.333 261.667z"/>
<path style="fill:#da995b; stroke:none;" d="M302 262L302 264L304 262L302 262z"/>
<path style="fill:#a8a8aa; stroke:none;" d="M97.6667 263.333L98.3333 263.667L97.6667 263.333z"/>
<path style="fill:#d1b09d; stroke:none;" d="M99.3333 264.667L99.6667 265.333L99.3333 264.667z"/>
<path style="fill:#a8a8aa; stroke:none;" d="M100 264L103 268L100 264z"/>
<path style="fill:#d1b09d; stroke:none;" d="M301 264L305.867 280L304 294L305 294C306.211 284.697 310.606 271.215 301 264z"/>
<path style="fill:#a57e6a; stroke:none;" d="M101 265C106.335 271.254 114.805 278.421 123 280L123 279L101 265z"/>
<path style="fill:#772d10; stroke:none;" d="M113 265L113 266L116 266L113 265z"/>
<path style="fill:#bf573e; stroke:none;" d="M297 265L298 281L302 279L299 265L297 265z"/>
<path style="fill:#da995b; stroke:none;" d="M300 265L300 268L301 268L300 265z"/>
<path style="fill:#885746; stroke:none;" d="M296.333 266.667L296.667 267.333L296.333 266.667z"/>
<path style="fill:#d1b09d; stroke:none;" d="M102 268L102 269L106 272L102 268z"/>
<path style="fill:#da995b; stroke:none;" d="M105.333 268.667L105.667 269.333L105.333 268.667z"/>
<path style="fill:#b5501f; stroke:none;" d="M296 268L290 292C296.215 292.537 297.839 285.919 300 281L296 268z"/>
<path style="fill:#da995b; stroke:none;" d="M302.333 268.667L302.667 269.333L302.333 268.667z"/>
<path style="fill:#8e491b; stroke:none;" d="M205 269L211 275C210.193 271.127 208.941 269.642 205 269z"/>
<path style="fill:#b5501f; stroke:none;" d="M253 270L252 274L253 270z"/>
<path style="fill:#a8a8aa; stroke:none;" d="M106.667 271.333L107.333 271.667L106.667 271.333z"/>
<path style="fill:#8e491b; stroke:none;" d="M173 271L166 273C166.226 277.377 165.508 279.275 161 280L164 291L152 289L152 290L182 301L181 295L187 287C186.899 275.875 178.216 279.028 173 271z"/>
<path style="fill:#da995b; stroke:none;" d="M303.333 271.667L303.667 272.333L303.333 271.667z"/>
<path style="fill:#e5cfb2; stroke:none;" d="M105 272L105 273C112.505 278.883 121.329 285.47 131 287C126.733 281.888 111.375 273.515 105 272z"/>
<path style="fill:#da995b; stroke:none;" d="M108 272L108 273L111 273L108 272z"/>
<path style="fill:#d1b09d; stroke:none;" d="M109.667 273.333L110.333 273.667L109.667 273.333z"/>
<path style="fill:#a8a8aa; stroke:none;" d="M111.333 273.667L111.667 274.333L111.333 273.667z"/>
<path style="fill:#da995b; stroke:none;" d="M113.667 276.333L114.333 276.667L113.667 276.333z"/>
<path style="fill:#a8a8aa; stroke:none;" d="M305 276L305 281L306 281L305 276z"/>
<path style="fill:#d1b09d; stroke:none;" d="M114 277L114 278L121 281L121 280L114 277z"/>
<path style="fill:#885746; stroke:none;" d="M299 279L300 283C295.811 285.96 295.347 298.771 295 304L296 304L303 279L299 279z"/>
<path style="fill:#a8a8aa; stroke:none;" d="M121 280L121 281L126 284L121 280z"/>
<path style="fill:#da995b; stroke:none;" d="M305 281L305 287L306 287L305 281z"/>
<path style="fill:#a57e6a; stroke:none;" d="M125 282L125 283L134 287L125 282z"/>
<path style="fill:#d1b09d; stroke:none;" d="M126 284L126 285L129 285L126 284z"/>
<path style="fill:#a8a8aa; stroke:none;" d="M129.667 284.333L130.333 284.667L129.667 284.333z"/>
<path style="fill:#772d10; stroke:none;" d="M168 284L168 288L172 287L168 284z"/>
<path style="fill:#d1b09d; stroke:none;" d="M131 285L133 288L131 285z"/>
<path style="fill:#8e491b; stroke:none;" d="M138 285L138 286L141 286L138 285z"/>
<path style="fill:#bf573e; stroke:none;" d="M233 285L233 288L234 288L233 285z"/>
<path style="fill:#8e491b; stroke:none;" d="M142 286L142 287L146 288L146 287L142 286z"/>
<path style="fill:#d1b09d; stroke:none;" d="M3 287L3 295L4 295L3 287z"/>
<path style="fill:#a8a8aa; stroke:none;" d="M133.667 287.333L134.333 287.667L133.667 287.333z"/>
<path style="fill:#a57e6a; stroke:none;" d="M135 287L135 288L183 306C180.713 302.748 175.603 301.534 172 299.825C161.649 294.916 146.42 287.616 135 287z"/>
<path style="fill:#da995b; stroke:none;" d="M304.333 287.667L304.667 288.333L304.333 287.667z"/>
<path style="fill:#d1b09d; stroke:none;" d="M134 288L134 289L137 289L134 288z"/>
<path style="fill:#a8a8aa; stroke:none;" d="M137 288L137 289L142 291L137 288z"/>
<path style="fill:#d1b09d; stroke:none;" d="M141 291L141 292L144 292L141 291z"/>
<path style="fill:#a8a8aa; stroke:none;" d="M144 291L144 292L147 292L144 291z"/>
<path style="fill:#d1b09d; stroke:none;" d="M145 292L145 293L148 293L145 292z"/>
<path style="fill:#a8a8aa; stroke:none;" d="M303 292L302 296L303 296L303 292M149 293L152 295L149 293z"/>
<path style="fill:#d1b09d; stroke:none;" d="M151 295L151 296L164 300L151 295z"/>
<path style="fill:#a8a8aa; stroke:none;" d="M153.667 295.333L154.333 295.667L153.667 295.333M156.667 296.333L157.333 296.667L156.667 296.333z"/>
<path style="fill:#b5501f; stroke:none;" d="M288 296L289 304L294 303L294 307L295 307L294 296L288 296z"/>
<path style="fill:#d1b09d; stroke:none;" d="M301 296L301 298L303 296L301 296z"/>
<path style="fill:#a8a8aa; stroke:none;" d="M300 297L298 303L299 303L300 297z"/>
<path style="fill:#772d10; stroke:none;" d="M224 298L227 301L224 298z"/>
<path style="fill:#a8a8aa; stroke:none;" d="M164 299L164 300L167 300L164 299z"/>
<path style="fill:#d1b09d; stroke:none;" d="M300.333 299.667L300.667 300.333L300.333 299.667M165 300L165 301L172 303L165 300z"/>
<path style="fill:#772d10; stroke:none;" d="M216 300L216 303L217 303L218 300L216 300z"/>
<path style="fill:#d1b09d; stroke:none;" d="M386 300L386 302L388 300L386 300M0.666667 301.333L1.33333 301.667L0.666667 301.333M299.333 301.667L299.667 302.333L299.333 301.667z"/>
<path style="fill:#a8a8aa; stroke:none;" d="M387 301L386 309L388 309L387 301z"/>
<path style="fill:#d1b09d; stroke:none;" d="M172 303L175 305L172 303M298.333 303.667L298.667 304.333L298.333 303.667M385 303L385 308L386 308L385 303z"/>
<path style="fill:#a8a8aa; stroke:none;" d="M175 304L175 305L190 309L175 304z"/>
<path style="fill:#8e491b; stroke:none;" d="M185.667 304.333L186.333 304.667L185.667 304.333z"/>
<path style="fill:#a8a8aa; stroke:none;" d="M297 304L296 308L297 308L297 304z"/>
<path style="fill:#d1b09d; stroke:none;" d="M176.667 305.333L177.333 305.667L176.667 305.333z"/>
<path style="fill:#8e491b; stroke:none;" d="M187.667 305.333L188.333 305.667L187.667 305.333z"/>
<path style="fill:#f8fcfc; stroke:none;" d="M0 306L0 428L175 428C173.44 423.3 169.346 424.003 165 424C163.864 420.118 160.696 420.118 157 420C155.712 415.597 148.843 414.243 145 412.037C133.629 405.509 120.422 393.375 107 392L107 389C101.382 387.442 90.7723 382.171 88 377C80.4603 375.795 63.6305 367.675 60 361C41.597 358.059 18.4831 338.19 8.87886 322.745C5.62193 317.507 4.62949 311.432 2 306L0 306z"/>
<path style="fill:#d1b09d; stroke:none;" d="M178 306L178 307L183 308L183 307L178 306z"/>
<path style="fill:#a57e6a; stroke:none;" d="M184 306L184 307L190 308L190 307L184 306z"/>
<path style="fill:#8e491b; stroke:none;" d="M190.667 306.333L191.333 306.667L190.667 306.333z"/>
<path style="fill:#d1b09d; stroke:none;" d="M297.333 306.667L297.667 307.333L297.333 306.667z"/>
<path style="fill:#8e491b; stroke:none;" d="M193 307L196 309L193 307z"/>
<path style="fill:#bf573e; stroke:none;" d="M294 307L291 319L292 319L294 307z"/>
<path style="fill:#a57e6a; stroke:none;" d="M190 308L190 309L220.83 320.401L246 328L246 327L190 308z"/>
<path style="fill:#b5501f; stroke:none;" d="M292 308L290 318L291 318L294 308L292 308z"/>
<path style="fill:#d1b09d; stroke:none;" d="M296 308L296 312L297 312L296 308M186 309L186 310L194 312L186 309z"/>
<path style="fill:#da995b; stroke:none;" d="M295 309L292 321L293 321L295 309z"/>
<path style="fill:#d1b09d; stroke:none;" d="M386.667 309.333L387.333 309.667L386.667 309.333M5 310L5 313L7 313L7 310L5 310z"/>
<path style="fill:#8e491b; stroke:none;" d="M199 310L199 311L202 311L199 310z"/>
<path style="fill:#d4862f; stroke:none;" d="M294 311L294 314L295 314L294 311z"/>
<path style="fill:#d1b09d; stroke:none;" d="M194 312L194 313L197 313L194 312z"/>
<path style="fill:#a8a8aa; stroke:none;" d="M198.667 313.333L199.333 313.667L198.667 313.333z"/>
<path style="fill:#f8fcfc; stroke:none;" d="M386 313C378.155 335.338 360.143 344.279 341.09 355.869C312.984 372.966 284.56 390.613 255.169 405.241C242.181 411.705 230.884 423.066 216 425L216 428L388 428L388 313L386 313z"/>
<path style="fill:#a8a8aa; stroke:none;" d="M200 314L200 315L204 316L204 315L200 314z"/>
<path style="fill:#d4862f; stroke:none;" d="M293 314L292 319L293 319L293 314z"/>
<path style="fill:#d1b09d; stroke:none;" d="M295 314L295 317L296 317L295 314M200.667 315.333L201.333 315.667L200.667 315.333M381.667 315.333L382.333 315.667L381.667 315.333M202 316L202 317L216 320L202 316z"/>
<path style="fill:#a8a8aa; stroke:none;" d="M208.667 316.333L209.333 316.667L208.667 316.333M381 316L381 319L383 319L383 316L381 316M210 317L210 318L213 318L210 317z"/>
<path style="fill:#772d10; stroke:none;" d="M253 317C253.94 324.013 259.3 331.578 267 330L253 317z"/>
<path style="fill:#d1b09d; stroke:none;" d="M294.333 317.667L294.667 318.333L294.333 317.667z"/>
<path style="fill:#a8a8aa; stroke:none;" d="M216.667 319.333L217.333 319.667L216.667 319.333z"/>
<path style="fill:#a57e6a; stroke:none;" d="M291 319C287.833 344.847 263.078 332.944 247 328C252.068 335.124 273.764 338.978 281.985 336.487C288.57 334.492 293.628 325.458 291 319z"/>
<path style="fill:#d1b09d; stroke:none;" d="M293.333 319.667L293.667 320.333L293.333 319.667M217 320L217 321L220 321L217 320z"/>
<path style="fill:#a8a8aa; stroke:none;" d="M220 320L223 322L220 320z"/>
<path style="fill:#d1b09d; stroke:none;" d="M292 321L292 326L293 326L292 321z"/>
<path style="fill:#a8a8aa; stroke:none;" d="M223 322L223 323L237 327L237 326L223 322z"/>
<path style="fill:#b5501f; stroke:none;" d="M269 322L269 324L271 324L271 322L269 322z"/>
<path style="fill:#a8a8aa; stroke:none;" d="M377 323L377 325L379 325L379 323L377 323z"/>
<path style="fill:#d1b09d; stroke:none;" d="M226 324L226 325L229 325L226 324M230.667 325.333L231.333 325.667L230.667 325.333z"/>
<path style="fill:#b5501f; stroke:none;" d="M271 327L275 326L271 327z"/>
<path style="fill:#a8a8aa; stroke:none;" d="M291 325L290 330L291 330L291 325z"/>
<path style="fill:#d1b09d; stroke:none;" d="M377.667 325.333L378.333 325.667L377.667 325.333M232 326L232 327L247 330L247 329L232 326z"/>
<path style="fill:#a8a8aa; stroke:none;" d="M238 327L238 328L241 328L238 327M244 328L244 329L247 329L244 328z"/>
<path style="fill:#8e491b; stroke:none;" d="M284 328L284 331L286 331L286 328L284 328z"/>
<path style="fill:#d1b09d; stroke:none;" d="M291.333 328.667L291.667 329.333L291.333 328.667z"/>
<path style="fill:#a8a8aa; stroke:none;" d="M373 329L373 331L375 331L375 329L373 329M248.667 330.333L249.333 330.667L248.667 330.333z"/>
<path style="fill:#d1b09d; stroke:none;" d="M249.667 331.333L250.333 331.667L249.667 331.333M289.333 331.667L289.667 332.333L289.333 331.667M251 332L251 333L255 333L251 332z"/>
<path style="fill:#da995b; stroke:none;" d="M255.667 332.333L256.333 332.667L255.667 332.333z"/>
<path style="fill:#772d10; stroke:none;" d="M269 332L269 333L276 334L269 332z"/>
<path style="fill:#a8a8aa; stroke:none;" d="M287 332L287 334L289 332L287 332z"/>
<path style="fill:#d1b09d; stroke:none;" d="M256 333L265 336L265 335L256 333z"/>
<path style="fill:#772d10; stroke:none;" d="M279 333L279 334L282 334L279 333z"/>
<path style="fill:#a8a8aa; stroke:none;" d="M369 333L369 335L371 335L371 333L369 333z"/>
<path style="fill:#da995b; stroke:none;" d="M259 334L259 335L262 335L259 334z"/>
<path style="fill:#d1b09d; stroke:none;" d="M286 334L286 336L288 334L286 334z"/>
<path style="fill:#a8a8aa; stroke:none;" d="M284.667 335.333L285.333 335.667L284.667 335.333z"/>
<path style="fill:#d1b09d; stroke:none;" d="M265.667 336.333L266.333 336.667L265.667 336.333z"/>
<path style="fill:#a8a8aa; stroke:none;" d="M267 336L267 337L271 337L267 336z"/>
<path style="fill:#d1b09d; stroke:none;" d="M276 338L276 339L285 337L276 338M269 337L269 338L274 338L269 337z"/>
<path style="fill:#a8a8aa; stroke:none;" d="M274 337L274 338L281 338L274 337z"/>
<path style="fill:#d1b09d; stroke:none;" d="M365 337L365 339L367 339L367 337L365 337z"/>
<path style="fill:#a8a8aa; stroke:none;" d="M35 345L35 347L38 347L38 345L35 345z"/>
<path style="fill:#d1b09d; stroke:none;" d="M38.3333 345.667L38.6667 346.333L38.3333 345.667M351 347L354 345L351 347M41 349L41 351L45 351L45 349L41 349z"/>
<path style="fill:#a8a8aa; stroke:none;" d="M345 349L345 351L347 351L347 349L345 349z"/>
<path style="fill:#d1b09d; stroke:none;" d="M347.333 349.667L347.667 350.333L347.333 349.667z"/>
<path style="fill:#a8a8aa; stroke:none;" d="M337 353L337 355L340 355L340 353L337 353z"/>
<path style="fill:#d1b09d; stroke:none;" d="M340 353L340 355L342 355L342 353L340 353M337 355L337 356L340 356L337 355M57 357L57 359L59 359L59 357L57 357M330 358L330 359L334 357L330 358M62 363L67 363C65.2315 360.966 63.7685 360.966 62 363z"/>
<path style="fill:#a8a8aa; stroke:none;" d="M64.6667 362.333L65.3333 362.667L64.6667 362.333z"/>
<path style="fill:#d1b09d; stroke:none;" d="M69 365L69 366L72 367L69 365M311 369L314 371L311 369z"/>
<path style="fill:#a8a8aa; stroke:none;" d="M310.667 370.333L311.333 370.667L310.667 370.333z"/>
<path style="fill:#d1b09d; stroke:none;" d="M85.3333 373.667L85.6667 374.333L85.3333 373.667z"/>
<path style="fill:#a8a8aa; stroke:none;" d="M304 373L303 375L305 375L304 373z"/>
<path style="fill:#d1b09d; stroke:none;" d="M305 373L305 375L307 375L307 373L305 373M91 377L91 379L94 379L94 377L91 377z"/>
<path style="fill:#a8a8aa; stroke:none;" d="M296 377L296 379L300 379L300 377L296 377z"/>
<path style="fill:#d1b09d; stroke:none;" d="M290 380L290 381L293 383C293.951 380.493 292.348 380.294 290 380M97 381L97 383L100 383L100 381L97 381z"/>
<path style="fill:#a8a8aa; stroke:none;" d="M289 384L293 381L289 384z"/>
<path style="fill:#d1b09d; stroke:none;" d="M288.333 382.667L288.667 383.333L288.333 382.667z"/>
<path style="fill:#a8a8aa; stroke:none;" d="M104 385L104 387L108 387L108 385L104 385z"/>
<path style="fill:#d1b09d; stroke:none;" d="M281 385L285 388L285 387L283 385L281 385z"/>
<path style="fill:#a8a8aa; stroke:none;" d="M282 386L282 387L286 385L282 386z"/>
<path style="fill:#d1b09d; stroke:none;" d="M286.333 385.667L286.667 386.333L286.333 385.667M106.667 387.333L107.333 387.667L106.667 387.333M110 389L110 391L113 392L113 391L111 389L115 389L110 389z"/>
<path style="fill:#a8a8aa; stroke:none;" d="M111 389L115 392L111 389z"/>
<path style="fill:#d1b09d; stroke:none;" d="M275 390L275 391L279 389L275 390z"/>
<path style="fill:#a8a8aa; stroke:none;" d="M117 393L117 394L121 395L117 393z"/>
<path style="fill:#d1b09d; stroke:none;" d="M121.333 393.667L121.667 394.333L121.333 393.667z"/>
<path style="fill:#a8a8aa; stroke:none;" d="M268 393L268 395L272 395L272 393L268 393z"/>
<path style="fill:#d1b09d; stroke:none;" d="M268 395L268 396L272 396L268 395M264 396L264 397L266 399L267 399L264 396M125 397L125 399L128 399L128 397L125 397M261 397L261 399L263 397L261 397z"/>
<path style="fill:#a8a8aa; stroke:none;" d="M262 398L262 399L266 397L262 398M132 401L132 403L135 403L135 401L132 401z"/>
<path style="fill:#d1b09d; stroke:none;" d="M255 402L255 403L259 401L255 402z"/>
<path style="fill:#a8a8aa; stroke:none;" d="M138 405L138 406L142 407L138 405z"/>
<path style="fill:#d1b09d; stroke:none;" d="M248 405L248 407L251 407L251 405L248 405M138.667 406.333L139.333 406.667L138.667 406.333M241.333 409.667L241.667 410.333L241.333 409.667z"/>
<path style="fill:#a8a8aa; stroke:none;" d="M242.333 409.667L242.667 410.333L242.333 409.667z"/>
<path style="fill:#d1b09d; stroke:none;" d="M243.333 409.667L243.667 410.333L243.333 409.667M234 415L237 413L234 415M226 418L226 419L230 417L226 418M206 427L206 428L211 428L206 427z"/>
</svg>
